%TF.GenerationSoftware,KiCad,Pcbnew,9.0.1+1*%
%TF.CreationDate,2025-09-06T09:54:07+00:00*%
%TF.ProjectId,ZSWatch-Heartrate-DevKit,5a535761-7463-4682-9d48-656172747261,1.3.0*%
%TF.SameCoordinates,Original*%
%TF.FileFunction,Soldermask,Top*%
%TF.FilePolarity,Negative*%
%FSLAX46Y46*%
G04 Gerber Fmt 4.6, Leading zero omitted, Abs format (unit mm)*
G04 Created by KiCad (PCBNEW 9.0.1+1) date 2025-09-06 09:54:07*
%MOMM*%
%LPD*%
G01*
G04 APERTURE LIST*
G04 Aperture macros list*
%AMRoundRect*
0 Rectangle with rounded corners*
0 $1 Rounding radius*
0 $2 $3 $4 $5 $6 $7 $8 $9 X,Y pos of 4 corners*
0 Add a 4 corners polygon primitive as box body*
4,1,4,$2,$3,$4,$5,$6,$7,$8,$9,$2,$3,0*
0 Add four circle primitives for the rounded corners*
1,1,$1+$1,$2,$3*
1,1,$1+$1,$4,$5*
1,1,$1+$1,$6,$7*
1,1,$1+$1,$8,$9*
0 Add four rect primitives between the rounded corners*
20,1,$1+$1,$2,$3,$4,$5,0*
20,1,$1+$1,$4,$5,$6,$7,0*
20,1,$1+$1,$6,$7,$8,$9,0*
20,1,$1+$1,$8,$9,$2,$3,0*%
%AMOutline4P*
0 Free polygon, 4 corners , with rotation*
0 The origin of the aperture is its center*
0 number of corners: always 4*
0 $1 to $8 corner X, Y*
0 $9 Rotation angle, in degrees counterclockwise*
0 create outline with 4 corners*
4,1,4,$1,$2,$3,$4,$5,$6,$7,$8,$1,$2,$9*%
G04 Aperture macros list end*
%ADD10RoundRect,0.225000X-0.225000X-0.250000X0.225000X-0.250000X0.225000X0.250000X-0.225000X0.250000X0*%
%ADD11RoundRect,0.140000X-0.140000X-0.170000X0.140000X-0.170000X0.140000X0.170000X-0.140000X0.170000X0*%
%ADD12RoundRect,0.140000X0.170000X-0.140000X0.170000X0.140000X-0.170000X0.140000X-0.170000X-0.140000X0*%
%ADD13RoundRect,0.250000X0.450000X-0.262500X0.450000X0.262500X-0.450000X0.262500X-0.450000X-0.262500X0*%
%ADD14C,0.330000*%
%ADD15C,0.650000*%
%ADD16RoundRect,0.150000X-0.425000X0.150000X-0.425000X-0.150000X0.425000X-0.150000X0.425000X0.150000X0*%
%ADD17RoundRect,0.075000X-0.500000X0.075000X-0.500000X-0.075000X0.500000X-0.075000X0.500000X0.075000X0*%
%ADD18O,2.100000X1.000000*%
%ADD19O,1.800000X1.000000*%
%ADD20RoundRect,0.135000X0.135000X0.185000X-0.135000X0.185000X-0.135000X-0.185000X0.135000X-0.185000X0*%
%ADD21R,1.700000X1.700000*%
%ADD22C,1.700000*%
%ADD23RoundRect,0.135000X0.185000X-0.135000X0.185000X0.135000X-0.185000X0.135000X-0.185000X-0.135000X0*%
%ADD24RoundRect,0.140000X0.140000X0.170000X-0.140000X0.170000X-0.140000X-0.170000X0.140000X-0.170000X0*%
%ADD25R,1.000000X1.000000*%
%ADD26C,1.000000*%
%ADD27RoundRect,0.250000X0.450000X-0.325000X0.450000X0.325000X-0.450000X0.325000X-0.450000X-0.325000X0*%
%ADD28R,1.140000X0.575000*%
%ADD29R,0.200000X0.700000*%
%ADD30Outline4P,-0.360000X-0.180000X0.360000X-0.180000X0.000000X0.180000X0.000000X0.180000X315.000000*%
%ADD31R,0.700000X0.200000*%
%ADD32Outline4P,-0.360000X-0.180000X0.360000X-0.180000X0.000000X0.180000X0.000000X0.180000X45.000000*%
%ADD33Outline4P,-0.360000X-0.180000X0.360000X-0.180000X0.000000X0.180000X0.000000X0.180000X135.000000*%
%ADD34Outline4P,-0.360000X-0.180000X0.360000X-0.180000X0.000000X0.180000X0.000000X0.180000X225.000000*%
%ADD35R,1.701800X1.701800*%
%ADD36RoundRect,0.150000X0.587500X0.150000X-0.587500X0.150000X-0.587500X-0.150000X0.587500X-0.150000X0*%
%ADD37R,1.300000X1.500000*%
%ADD38R,0.350000X0.375000*%
%ADD39R,0.375000X0.350000*%
%ADD40RoundRect,0.150000X-0.512500X-0.150000X0.512500X-0.150000X0.512500X0.150000X-0.512500X0.150000X0*%
%ADD41RoundRect,0.303200X-0.000010X-0.000010X0.000010X-0.000010X0.000010X0.000010X-0.000010X0.000010X0*%
%ADD42RoundRect,0.304800X-0.000010X-0.000010X0.000010X-0.000010X0.000010X0.000010X-0.000010X0.000010X0*%
%ADD43RoundRect,0.101600X-0.228600X-0.203200X0.228600X-0.203200X0.228600X0.203200X-0.228600X0.203200X0*%
%ADD44RoundRect,0.101600X-0.231500X-0.203200X0.231500X-0.203200X0.231500X0.203200X-0.231500X0.203200X0*%
%ADD45RoundRect,0.225000X0.225000X0.250000X-0.225000X0.250000X-0.225000X-0.250000X0.225000X-0.250000X0*%
%ADD46RoundRect,0.140000X-0.170000X0.140000X-0.170000X-0.140000X0.170000X-0.140000X0.170000X0.140000X0*%
%ADD47RoundRect,0.135000X-0.135000X-0.185000X0.135000X-0.185000X0.135000X0.185000X-0.135000X0.185000X0*%
%ADD48RoundRect,0.150000X0.512500X0.150000X-0.512500X0.150000X-0.512500X-0.150000X0.512500X-0.150000X0*%
%ADD49RoundRect,0.218750X-0.256250X0.218750X-0.256250X-0.218750X0.256250X-0.218750X0.256250X0.218750X0*%
%ADD50RoundRect,0.150000X0.150000X0.275000X-0.150000X0.275000X-0.150000X-0.275000X0.150000X-0.275000X0*%
%ADD51RoundRect,0.175000X0.175000X0.225000X-0.175000X0.225000X-0.175000X-0.225000X0.175000X-0.225000X0*%
%ADD52C,0.290000*%
G04 APERTURE END LIST*
D10*
%TO.C,C401*%
X195850000Y-148025000D03*
X197400000Y-148025000D03*
%TD*%
D11*
%TO.C,C412*%
X212700000Y-148475000D03*
X213660000Y-148475000D03*
%TD*%
D12*
%TO.C,C416*%
X200400000Y-153335000D03*
X200400000Y-152375000D03*
%TD*%
D13*
%TO.C,R403*%
X193510000Y-152887500D03*
X193510000Y-151062500D03*
%TD*%
D14*
%TO.C,IC402*%
X195450000Y-149225000D03*
X195850000Y-149225000D03*
X195450000Y-149625000D03*
X195850000Y-149625000D03*
X195450000Y-150025000D03*
X195850000Y-150025000D03*
%TD*%
D15*
%TO.C,X401*%
X188930000Y-141140000D03*
X188930000Y-146920000D03*
D16*
X190005000Y-140830000D03*
X190005000Y-141630000D03*
D17*
X190005000Y-142780000D03*
X190005000Y-143780000D03*
X190005000Y-144280000D03*
X190005000Y-145280000D03*
D16*
X190005000Y-146430000D03*
X190005000Y-147230000D03*
X190005000Y-147230000D03*
X190005000Y-146430000D03*
D17*
X190005000Y-145780000D03*
X190005000Y-144780000D03*
X190005000Y-143280000D03*
X190005000Y-142280000D03*
D16*
X190005000Y-141630000D03*
X190005000Y-140830000D03*
D18*
X189430000Y-139710000D03*
D19*
X185250000Y-139710000D03*
D18*
X189430000Y-148350000D03*
D19*
X185250000Y-148350000D03*
%TD*%
D20*
%TO.C,R401*%
X188210000Y-150350000D03*
X187190000Y-150350000D03*
%TD*%
%TO.C,R409*%
X212210000Y-155000000D03*
X211190000Y-155000000D03*
%TD*%
D21*
%TO.C,J402*%
X225700000Y-138135000D03*
D22*
X225700000Y-140675000D03*
X225700000Y-143215000D03*
X225700000Y-145755000D03*
X225700000Y-148295000D03*
X225700000Y-150835000D03*
X225700000Y-153375000D03*
%TD*%
D11*
%TO.C,C410*%
X213100000Y-155650000D03*
X214060000Y-155650000D03*
%TD*%
D23*
%TO.C,R406*%
X196000000Y-146400000D03*
X196000000Y-145380000D03*
%TD*%
D12*
%TO.C,C411*%
X201700000Y-153335000D03*
X201700000Y-152375000D03*
%TD*%
D11*
%TO.C,C408*%
X213090000Y-156650000D03*
X214050000Y-156650000D03*
%TD*%
D24*
%TO.C,C409*%
X207480000Y-157925000D03*
X206520000Y-157925000D03*
%TD*%
D21*
%TO.C,J401*%
X225700000Y-156975000D03*
D22*
X225700000Y-159515000D03*
X225700000Y-162055000D03*
X225700000Y-164595000D03*
%TD*%
D25*
%TO.C,X403*%
X208200000Y-138200000D03*
D26*
X208200000Y-139470000D03*
X206930000Y-138200000D03*
X206930000Y-139470000D03*
X205660000Y-138200000D03*
X205660000Y-139470000D03*
X204390000Y-138200000D03*
X204390000Y-139470000D03*
X203120000Y-138200000D03*
X203120000Y-139470000D03*
%TD*%
D27*
%TO.C,D401*%
X184900000Y-152400000D03*
X184900000Y-150350000D03*
%TD*%
D28*
%TO.C,Y401*%
X213500000Y-158687500D03*
X213500000Y-157862500D03*
%TD*%
D24*
%TO.C,C417*%
X209980000Y-146775000D03*
X209020000Y-146775000D03*
%TD*%
D29*
%TO.C,IC404*%
X209230000Y-159050000D03*
D30*
X209010000Y-159020000D03*
D31*
X208980000Y-158800000D03*
D29*
X209630000Y-159050000D03*
X210030000Y-159050000D03*
X210430000Y-159050000D03*
X210830000Y-159050000D03*
X211230000Y-159050000D03*
X211630000Y-159050000D03*
D32*
X211850000Y-159020000D03*
D31*
X211880000Y-158800000D03*
X211880000Y-158400000D03*
X211880000Y-158000000D03*
X211880000Y-157600000D03*
X211880000Y-157200000D03*
X211880000Y-156800000D03*
X211880000Y-156400000D03*
D33*
X211850000Y-156180000D03*
D29*
X211630000Y-156150000D03*
X211230000Y-156150000D03*
X210830000Y-156150000D03*
X210430000Y-156150000D03*
X210030000Y-156150000D03*
X209630000Y-156150000D03*
D31*
X208980000Y-156400000D03*
D34*
X209010000Y-156180000D03*
D29*
X209230000Y-156150000D03*
D31*
X208980000Y-156800000D03*
X208980000Y-157200000D03*
X208980000Y-157600000D03*
X208980000Y-158000000D03*
X208980000Y-158400000D03*
D35*
X210430000Y-157600000D03*
%TD*%
D36*
%TO.C,Q401*%
X191200000Y-153075000D03*
X191200000Y-151175000D03*
X189325000Y-152125000D03*
%TD*%
D24*
%TO.C,C406*%
X197180000Y-164600000D03*
X196220000Y-164600000D03*
%TD*%
D20*
%TO.C,R405*%
X193160000Y-145780000D03*
X192140000Y-145780000D03*
%TD*%
D37*
%TO.C,SW401*%
X215600000Y-161500000D03*
X220100000Y-161500000D03*
X215600000Y-153550000D03*
X220100000Y-153550000D03*
%TD*%
D38*
%TO.C,IC406*%
X200687500Y-155867500D03*
X201187500Y-155867500D03*
X201687500Y-155867500D03*
X202187500Y-155867500D03*
D39*
X202200000Y-155355000D03*
X202200000Y-154855000D03*
D38*
X202187500Y-154342500D03*
X201687500Y-154342500D03*
X201187500Y-154342500D03*
X200687500Y-154342500D03*
D39*
X200675000Y-154855000D03*
X200675000Y-155355000D03*
%TD*%
D12*
%TO.C,C414*%
X202700000Y-153335000D03*
X202700000Y-152375000D03*
%TD*%
D40*
%TO.C,IC401*%
X202625000Y-143500000D03*
X202625000Y-144450000D03*
X202625000Y-145400000D03*
X204900000Y-145400000D03*
X204900000Y-143500000D03*
%TD*%
D41*
%TO.C,M401*%
X190817600Y-163113600D03*
X192621000Y-163113600D03*
D42*
X198005800Y-163113600D03*
D43*
X198234400Y-163113600D03*
D41*
X190817600Y-162224600D03*
X191706600Y-162224600D03*
X192621000Y-162224600D03*
X193510000Y-162224600D03*
X194399000Y-162224600D03*
X195313400Y-162224600D03*
X196202400Y-162224600D03*
X197116800Y-162224600D03*
D42*
X198005800Y-162224600D03*
D43*
X198234400Y-162224600D03*
D41*
X197116800Y-161335600D03*
D42*
X198005800Y-161335600D03*
D43*
X198234400Y-161335600D03*
D41*
X190817600Y-160421200D03*
X197116800Y-160421200D03*
D42*
X198005800Y-160421200D03*
D43*
X198234400Y-160421200D03*
D41*
X190817600Y-159532200D03*
X197116800Y-159532200D03*
D42*
X198005800Y-159532200D03*
D43*
X198234400Y-159532200D03*
D41*
X190817600Y-158617800D03*
X197116800Y-158617800D03*
D42*
X198005800Y-158617800D03*
D43*
X198234400Y-158617800D03*
D41*
X191706600Y-157728800D03*
X197116800Y-157728800D03*
D42*
X198005800Y-157728800D03*
D43*
X198234400Y-157728800D03*
D41*
X191706600Y-156814400D03*
X197116800Y-156814400D03*
D42*
X198005800Y-156814400D03*
D43*
X198234400Y-156814400D03*
D41*
X191706600Y-155925400D03*
X192621000Y-155925400D03*
X193510000Y-155925400D03*
X194399000Y-155925400D03*
X195313400Y-155925400D03*
X196202400Y-155925400D03*
X197116800Y-155925400D03*
D42*
X198005800Y-155925400D03*
D43*
X198234400Y-155925400D03*
D41*
X191706600Y-155036400D03*
X192621000Y-155036400D03*
X193510000Y-155036400D03*
X194399000Y-155036400D03*
X195313400Y-155036400D03*
X196202400Y-155036400D03*
X197116800Y-155036400D03*
D42*
X198005800Y-155036400D03*
D44*
X198231500Y-155036400D03*
%TD*%
D20*
%TO.C,R407*%
X200410000Y-147675000D03*
X199390000Y-147675000D03*
%TD*%
D45*
%TO.C,C404*%
X204900000Y-141950000D03*
X203350000Y-141950000D03*
%TD*%
D10*
%TO.C,C407*%
X199175000Y-142950000D03*
X200725000Y-142950000D03*
%TD*%
D46*
%TO.C,C413*%
X211400000Y-151215000D03*
X211400000Y-152175000D03*
%TD*%
D20*
%TO.C,R402*%
X217410000Y-162975000D03*
X216390000Y-162975000D03*
%TD*%
D24*
%TO.C,C415*%
X209980000Y-147775000D03*
X209020000Y-147775000D03*
%TD*%
D37*
%TO.C,SW402*%
X220100000Y-143325000D03*
X215600000Y-143325000D03*
X220100000Y-151275000D03*
X215600000Y-151275000D03*
%TD*%
D47*
%TO.C,R404*%
X192140000Y-142780000D03*
X193160000Y-142780000D03*
%TD*%
D48*
%TO.C,IC403*%
X199975000Y-146400000D03*
X199975000Y-145450000D03*
X199975000Y-144500000D03*
X197700000Y-144500000D03*
X197700000Y-146400000D03*
%TD*%
D49*
%TO.C,L401*%
X194350000Y-147837500D03*
X194350000Y-149412500D03*
%TD*%
D47*
%TO.C,R408*%
X211190000Y-160300000D03*
X212210000Y-160300000D03*
%TD*%
D10*
%TO.C,C403*%
X197100000Y-150025000D03*
X198650000Y-150025000D03*
%TD*%
D50*
%TO.C,X402*%
X196200000Y-141025000D03*
X195000000Y-141025000D03*
D51*
X197350000Y-137250000D03*
X193850000Y-137250000D03*
%TD*%
D52*
%TO.C,IC405*%
X211800000Y-148675000D03*
X211800000Y-149075000D03*
X211800000Y-149475000D03*
X211800000Y-149875000D03*
X211800000Y-150275000D03*
X211400000Y-148675000D03*
X211400000Y-149075000D03*
X211400000Y-149475000D03*
X211400000Y-149875000D03*
X211400000Y-150275000D03*
X211000000Y-148675000D03*
X211000000Y-149075000D03*
X211000000Y-149475000D03*
X211000000Y-149875000D03*
X211000000Y-150275000D03*
X210600000Y-148675000D03*
X210600000Y-149075000D03*
X210600000Y-149475000D03*
X210600000Y-149875000D03*
X210600000Y-150275000D03*
%TD*%
D10*
%TO.C,C402*%
X202625000Y-146950000D03*
X204175000Y-146950000D03*
%TD*%
D45*
%TO.C,C405*%
X197700000Y-142950000D03*
X196150000Y-142950000D03*
%TD*%
M02*
