M48
; DRILL file {KiCad 9.0.1+1} date 2025-09-06T09:54:09+0000
; FORMAT={-:-/ absolute / metric / decimal}
; #@! TF.CreationDate,2025-09-06T09:54:09+00:00
; #@! TF.GenerationSoftware,Kicad,Pcbnew,9.0.1+1
; #@! TF.FileFunction,Plated,1,4,PTH
FMAT,2
METRIC
; #@! TA.AperFunction,Plated,PTH,ViaDrill
T1C0.150
; #@! TA.AperFunction,Plated,PTH,ComponentDrill
T2C0.600
; #@! TA.AperFunction,Plated,PTH,ComponentDrill
T3C0.650
; #@! TA.AperFunction,Plated,PTH,ComponentDrill
T4C1.000
%
G90
G05
T1
X190.25Y-158.6
X190.3Y-162.225
X191.2Y-147.838
X191.2Y-151.775
X192.2Y-157.729
X192.2Y-165.475
X192.621Y-154.475
X193.1Y-155.5
X193.7Y-142.78
X193.7Y-145.78
X194.4Y-154.375
X195.0Y-140.2
X195.7Y-164.6
X196.0Y-144.6
X196.15Y-143.75
X196.202Y-156.4
X196.3Y-149.225
X196.625Y-148.025
X196.8Y-157.131
X197.1Y-150.875
X197.2Y-141.025
X197.563Y-158.175
X197.7Y-164.6
X198.234Y-163.7
X198.65Y-149.275
X198.8Y-147.675
X198.9Y-157.729
X199.0Y-145.45
X199.0Y-146.4
X199.8Y-152.375
X199.8Y-153.335
X200.112Y-143.562
X201.188Y-156.475
X201.2Y-155.355
X201.65Y-144.45
X202.7Y-154.855
X203.2Y-158.175
X203.35Y-142.65
X203.554Y-157.729
X204.125Y-141.95
X204.175Y-146.225
X204.22Y-154.755
X204.3Y-149.375
X204.3Y-151.375
X205.2Y-150.275
X205.2Y-152.375
X205.2Y-156.875
X205.5Y-151.375
X206.0Y-152.775
X206.0Y-157.675
X206.1Y-148.775
X206.1Y-149.975
X206.25Y-154.725
X206.3Y-156.375
X207.05Y-157.475
X207.4Y-155.868
X208.4Y-156.18
X209.01Y-161.275
X209.02Y-146.195
X209.63Y-160.075
X209.8Y-150.685
X209.98Y-146.195
X210.6Y-148.175
X211.0Y-150.275
X211.1Y-148.209
X211.19Y-154.485
X211.19Y-162.055
X211.4Y-149.075
X211.5Y-147.675
X212.14Y-155.89
X212.2Y-152.175
X212.21Y-160.875
X212.4Y-158.975
X212.5Y-157.6
X212.7Y-147.675
X212.775Y-155.0
X213.09Y-157.21
X213.1Y-143.3
X213.2Y-154.075
X213.6Y-153.675
X214.0Y-153.275
X214.2Y-148.475
X214.4Y-152.875
X214.6Y-155.65
X214.6Y-156.65
X218.0Y-162.975
X220.1Y-147.575
X220.1Y-155.0
T3
X203.12Y-138.2
X203.12Y-139.47
X204.39Y-138.2
X204.39Y-139.47
X205.66Y-138.2
X205.66Y-139.47
X206.93Y-138.2
X206.93Y-139.47
X208.2Y-138.2
X208.2Y-139.47
T4
X225.7Y-138.135
X225.7Y-140.675
X225.7Y-143.215
X225.7Y-145.755
X225.7Y-148.295
X225.7Y-150.835
X225.7Y-153.375
X225.7Y-156.975
X225.7Y-159.515
X225.7Y-162.055
X225.7Y-164.595
T2
G00X185.65Y-139.71
M15
G01X184.85Y-139.71
M16
G05
G00X185.65Y-148.35
M15
G01X184.85Y-148.35
M16
G05
G00X189.98Y-139.71
M15
G01X188.88Y-139.71
M16
G05
G00X189.98Y-148.35
M15
G01X188.88Y-148.35
M16
G05
M30
