%TF.GenerationSoftware,KiCad,Pcbnew,9.0.1+1*%
%TF.CreationDate,2025-09-06T09:54:06+00:00*%
%TF.ProjectId,ZSWatch-Heartrate-DevKit,5a535761-7463-4682-9d48-656172747261,1.3.0*%
%TF.SameCoordinates,Original*%
%TF.FileFunction,Copper,L2,Inr*%
%TF.FilePolarity,Positive*%
%FSLAX46Y46*%
G04 Gerber Fmt 4.6, Leading zero omitted, Abs format (unit mm)*
G04 Created by KiCad (PCBNEW 9.0.1+1) date 2025-09-06 09:54:06*
%MOMM*%
%LPD*%
G01*
G04 APERTURE LIST*
%TA.AperFunction,ComponentPad*%
%ADD10O,2.100000X1.000000*%
%TD*%
%TA.AperFunction,ComponentPad*%
%ADD11O,1.800000X1.000000*%
%TD*%
%TA.AperFunction,ComponentPad*%
%ADD12R,1.700000X1.700000*%
%TD*%
%TA.AperFunction,ComponentPad*%
%ADD13C,1.700000*%
%TD*%
%TA.AperFunction,ComponentPad*%
%ADD14R,1.000000X1.000000*%
%TD*%
%TA.AperFunction,ComponentPad*%
%ADD15C,1.000000*%
%TD*%
%TA.AperFunction,ViaPad*%
%ADD16C,0.350000*%
%TD*%
%TA.AperFunction,Conductor*%
%ADD17C,0.150000*%
%TD*%
G04 APERTURE END LIST*
D10*
%TO.N,GND*%
%TO.C,X401*%
X189430000Y-139710000D03*
D11*
X185250000Y-139710000D03*
D10*
X189430000Y-148350000D03*
D11*
X185250000Y-148350000D03*
%TD*%
D12*
%TO.N,GND*%
%TO.C,J402*%
X225700000Y-138135000D03*
D13*
%TO.N,Net-(IC404-SCLK_{SENSOR})*%
X225700000Y-140675000D03*
%TO.N,Net-(IC404-MISO_{SENSOR})*%
X225700000Y-143215000D03*
%TO.N,Net-(IC404-MOSI_{SENSOR})*%
X225700000Y-145755000D03*
%TO.N,Net-(IC404-CS_{PPG})*%
X225700000Y-148295000D03*
%TO.N,Net-(IC404-CS_{ACC})*%
X225700000Y-150835000D03*
%TO.N,/Project Architecture/Main/STATUS*%
X225700000Y-153375000D03*
%TD*%
D12*
%TO.N,/Project Architecture/Main/SDA*%
%TO.C,J401*%
X225700000Y-156975000D03*
D13*
%TO.N,/Project Architecture/Main/SCL*%
X225700000Y-159515000D03*
%TO.N,/Project Architecture/Main/~{RESET_{HR}}*%
X225700000Y-162055000D03*
%TO.N,GND*%
X225700000Y-164595000D03*
%TD*%
D14*
%TO.N,+1V8*%
%TO.C,X403*%
X208200000Y-138200000D03*
D15*
%TO.N,/Project Architecture/Main/SWDIO*%
X208200000Y-139470000D03*
%TO.N,GND*%
X206930000Y-138200000D03*
%TO.N,/Project Architecture/Main/SWDCLK*%
X206930000Y-139470000D03*
%TO.N,GND*%
X205660000Y-138200000D03*
%TO.N,unconnected-(X403-SWO{slash}TDO-Pad6)*%
X205660000Y-139470000D03*
%TO.N,unconnected-(X403-KEY-Pad7)*%
X204390000Y-138200000D03*
%TO.N,unconnected-(X403-NC{slash}TDI-Pad8)*%
X204390000Y-139470000D03*
%TO.N,unconnected-(X403-GNDDetect-Pad9)*%
X203120000Y-138200000D03*
%TO.N,/Project Architecture/Main/~{RESET}*%
X203120000Y-139470000D03*
%TD*%
D16*
%TO.N,GND*%
X206250000Y-154725000D03*
X190250000Y-158600000D03*
X196625000Y-148025000D03*
X198650000Y-149275000D03*
X202700000Y-154855000D03*
X198234400Y-163700000D03*
X193700000Y-145780000D03*
X220100000Y-155000000D03*
X195000000Y-140200000D03*
X199800000Y-152375000D03*
X220100000Y-147575000D03*
X196300000Y-149225000D03*
X209020000Y-146195000D03*
X206000000Y-157675000D03*
X204220000Y-154755000D03*
X214600000Y-155650000D03*
X196000000Y-144600000D03*
X203350000Y-142650000D03*
X190300000Y-162224600D03*
X200112500Y-143562500D03*
X204175000Y-146225000D03*
X193700000Y-142780000D03*
X214200000Y-148475000D03*
X196150000Y-143750000D03*
X212210000Y-160875000D03*
X195700000Y-164600000D03*
X199000000Y-145450000D03*
X201650000Y-144450000D03*
X212500000Y-157600000D03*
X212200000Y-152175000D03*
X196800000Y-157131200D03*
X212400000Y-158975000D03*
X191200000Y-151775000D03*
X214600000Y-156650000D03*
%TO.N,+1V8*%
X207050000Y-157475000D03*
X212775000Y-155000000D03*
X199800000Y-153335000D03*
X204125000Y-141950000D03*
X198800000Y-147675000D03*
X218000000Y-162975000D03*
X213090000Y-157210000D03*
X197700000Y-164600000D03*
X209980000Y-146195000D03*
%TO.N,PD_GND*%
X206100000Y-148775000D03*
X211000000Y-150275000D03*
X206100000Y-149975000D03*
%TO.N,/Project Architecture/Main/V_{LED}*%
X197100000Y-150875000D03*
X205500000Y-151375000D03*
X204300000Y-151375000D03*
X212700000Y-147675000D03*
%TO.N,/Project Architecture/Main/V_{BAT}*%
X197200000Y-141025000D03*
X191200000Y-147837500D03*
%TO.N,/Project Architecture/Main/INT_{ACC}*%
X201200000Y-155354998D03*
X212140000Y-155890000D03*
%TO.N,/Project Architecture/Main/SCL*%
X203200000Y-158175000D03*
X197563000Y-158175000D03*
%TO.N,/Project Architecture/Main/SDA*%
X203553800Y-157728800D03*
X198900000Y-157728800D03*
%TO.N,/Project Architecture/Main/~{RESET_{HR}}*%
X211190000Y-162055000D03*
%TO.N,/Project Architecture/Main/STATUS*%
X209010000Y-161275000D03*
%TO.N,/Project Architecture/Main/CHARGE*%
X199000000Y-146400000D03*
X194400000Y-154375000D03*
%TO.N,/Project Architecture/Main/SWDIO*%
X193100000Y-155500000D03*
%TO.N,/Project Architecture/Main/SWDCLK*%
X192621000Y-154475000D03*
%TO.N,/Project Architecture/Main/~{RESET}*%
X192200000Y-157728800D03*
X192200000Y-165475000D03*
%TO.N,Net-(D402-K)*%
X209800000Y-150685000D03*
%TO.N,Net-(D403-K)*%
X204300000Y-149375000D03*
%TO.N,Net-(IC404-SCLK_{SENSOR})*%
X205200000Y-156875000D03*
X208400000Y-156180000D03*
X214400000Y-152875000D03*
%TO.N,Net-(IC404-MOSI_{SENSOR})*%
X207400000Y-155867500D03*
X213600000Y-153675000D03*
%TO.N,Net-(IC404-CS_{PPG})*%
X213200000Y-154075000D03*
%TO.N,Net-(IC404-CS_{ACC})*%
X201187500Y-156475000D03*
X209629999Y-160075000D03*
%TO.N,Net-(IC404-INT_{PPG})*%
X211190000Y-154485000D03*
X211400000Y-149075000D03*
%TO.N,Net-(IC404-MISO_{SENSOR})*%
X214000000Y-153275000D03*
X206300000Y-156375000D03*
%TO.N,Net-(IC405-LED3-DRV)*%
X211500000Y-147675000D03*
X205200000Y-150275000D03*
%TO.N,Net-(IC405-LED1-DRV)*%
X205200000Y-152375000D03*
X210600000Y-148175000D03*
%TO.N,Net-(IC405-LED2-DRV)*%
X206000000Y-152775000D03*
X211100000Y-148209314D03*
%TO.N,Net-(M401-P2.03)*%
X213100000Y-143300000D03*
X196202400Y-156400000D03*
%TD*%
D17*
%TO.N,/Project Architecture/Main/INT_{ACC}*%
X201199998Y-155355000D02*
X201200000Y-155354998D01*
%TO.N,/Project Architecture/Main/SCL*%
X203200000Y-158175000D02*
X204540000Y-159515000D01*
X225585000Y-159400000D02*
X225700000Y-159515000D01*
X203200000Y-158175000D02*
X197563000Y-158175000D01*
X204540000Y-159515000D02*
X225700000Y-159515000D01*
%TO.N,/Project Architecture/Main/SDA*%
X203553800Y-157728800D02*
X198900000Y-157728800D01*
X221675000Y-158575000D02*
X223275000Y-156975000D01*
X204400000Y-158575000D02*
X221675000Y-158575000D01*
X223275000Y-156975000D02*
X225700000Y-156975000D01*
X203553800Y-157728800D02*
X204400000Y-158575000D01*
%TO.N,/Project Architecture/Main/~{RESET_{HR}}*%
X211190000Y-162055000D02*
X225700000Y-162055000D01*
%TO.N,/Project Architecture/Main/SWDIO*%
X193100000Y-155500000D02*
X193100000Y-149500000D01*
X206995000Y-140675000D02*
X208200000Y-139470000D01*
X193100000Y-149500000D02*
X201925000Y-140675000D01*
X201925000Y-140675000D02*
X206995000Y-140675000D01*
%TO.N,/Project Architecture/Main/SWDCLK*%
X192621000Y-149579000D02*
X201925000Y-140275000D01*
X206125000Y-140275000D02*
X206930000Y-139470000D01*
X192621000Y-154475000D02*
X192621000Y-149579000D01*
X201925000Y-140275000D02*
X206125000Y-140275000D01*
%TO.N,/Project Architecture/Main/~{RESET}*%
X192200000Y-149600000D02*
X202330000Y-139470000D01*
X202330000Y-139470000D02*
X203120000Y-139470000D01*
X192200000Y-165475000D02*
X192200000Y-157728800D01*
X192200000Y-157728800D02*
X192200000Y-149600000D01*
%TO.N,Net-(IC404-SCLK_{SENSOR})*%
X208874661Y-154600000D02*
X210599661Y-152875000D01*
X214400000Y-151975000D02*
X214400000Y-152875000D01*
X225700000Y-140675000D02*
X214400000Y-151975000D01*
X207475000Y-154600000D02*
X208874661Y-154600000D01*
X210599661Y-152875000D02*
X214400000Y-152875000D01*
X205200000Y-156875000D02*
X207475000Y-154600000D01*
%TO.N,Net-(IC404-MOSI_{SENSOR})*%
X210600000Y-153675000D02*
X213600000Y-153675000D01*
X209100000Y-155175000D02*
X210600000Y-153675000D01*
X208092500Y-155175000D02*
X209100000Y-155175000D01*
X213600000Y-153675000D02*
X217780000Y-153675000D01*
X207400000Y-155867500D02*
X208092500Y-155175000D01*
X217780000Y-153675000D02*
X225700000Y-145755000D01*
%TO.N,Net-(IC404-CS_{PPG})*%
X213200000Y-154075000D02*
X219920000Y-154075000D01*
X219920000Y-154075000D02*
X225700000Y-148295000D01*
%TO.N,Net-(IC404-MISO_{SENSOR})*%
X206300000Y-156375000D02*
X207775000Y-154900000D01*
X210625000Y-153275000D02*
X214000000Y-153275000D01*
X209000000Y-154900000D02*
X210625000Y-153275000D01*
X215640000Y-153275000D02*
X225700000Y-143215000D01*
X207775000Y-154900000D02*
X209000000Y-154900000D01*
X214000000Y-153275000D02*
X215640000Y-153275000D01*
%TO.N,Net-(IC405-LED3-DRV)*%
X205700000Y-147675000D02*
X205200000Y-148175000D01*
X211500000Y-147675000D02*
X205700000Y-147675000D01*
X205200000Y-148175000D02*
X205200000Y-150275000D01*
%TO.N,Net-(IC405-LED1-DRV)*%
X210600000Y-148175000D02*
X206400000Y-152375000D01*
X206400000Y-152375000D02*
X205200000Y-152375000D01*
%TO.N,Net-(IC405-LED2-DRV)*%
X206000000Y-152775000D02*
X206800000Y-152775000D01*
X211100000Y-148475000D02*
X211100000Y-148209314D01*
X206800000Y-152775000D02*
X211100000Y-148475000D01*
%TD*%
%TA.AperFunction,Conductor*%
%TO.N,/Project Architecture/Main/V_{LED}*%
G36*
X204081425Y-146484439D02*
G01*
X204120197Y-146500499D01*
X204120198Y-146500499D01*
X204120200Y-146500500D01*
X204120201Y-146500500D01*
X204229799Y-146500500D01*
X204229800Y-146500500D01*
X204242641Y-146495180D01*
X204268575Y-146484439D01*
X204316028Y-146475000D01*
X212976000Y-146475000D01*
X213043039Y-146494685D01*
X213088794Y-146547489D01*
X213100000Y-146599000D01*
X213100000Y-147951000D01*
X213080315Y-148018039D01*
X213027511Y-148063794D01*
X212976000Y-148075000D01*
X212424000Y-148075000D01*
X212356961Y-148055315D01*
X212311206Y-148002511D01*
X212300000Y-147951000D01*
X212300000Y-146875000D01*
X200400000Y-146875000D01*
X200400000Y-151075000D01*
X205676000Y-151075000D01*
X205743039Y-151094685D01*
X205788794Y-151147489D01*
X205800000Y-151199000D01*
X205800000Y-151451000D01*
X205780315Y-151518039D01*
X205727511Y-151563794D01*
X205676000Y-151575000D01*
X200024000Y-151575000D01*
X199956961Y-151555315D01*
X199911206Y-151502511D01*
X199900000Y-151451000D01*
X199900000Y-151275000D01*
X196824000Y-151275000D01*
X196756961Y-151255315D01*
X196711206Y-151202511D01*
X196700000Y-151151000D01*
X196700000Y-150599000D01*
X196719685Y-150531961D01*
X196772489Y-150486206D01*
X196824000Y-150475000D01*
X199900000Y-150475000D01*
X199900000Y-146599000D01*
X199919685Y-146531961D01*
X199972489Y-146486206D01*
X200024000Y-146475000D01*
X204033972Y-146475000D01*
X204081425Y-146484439D01*
G37*
%TD.AperFunction*%
%TD*%
%TA.AperFunction,Conductor*%
%TO.N,+1V8*%
G36*
X190090690Y-136416612D02*
G01*
X190145413Y-136448207D01*
X190247273Y-136475500D01*
X190247275Y-136475500D01*
X220152725Y-136475500D01*
X220152727Y-136475500D01*
X220254587Y-136448207D01*
X220309309Y-136416612D01*
X220371309Y-136400000D01*
X224028691Y-136400000D01*
X224090690Y-136416612D01*
X224145413Y-136448207D01*
X224247273Y-136475500D01*
X224280009Y-136475500D01*
X227173071Y-136475500D01*
X227191873Y-136475500D01*
X227208058Y-136476561D01*
X227243134Y-136481178D01*
X227287214Y-136486982D01*
X227318479Y-136495359D01*
X227384665Y-136522774D01*
X227412699Y-136538960D01*
X227469537Y-136582574D01*
X227492425Y-136605462D01*
X227536039Y-136662300D01*
X227552225Y-136690335D01*
X227579639Y-136756519D01*
X227588017Y-136787784D01*
X227598439Y-136866940D01*
X227599500Y-136883127D01*
X227599500Y-165891872D01*
X227598439Y-165908059D01*
X227588017Y-165987215D01*
X227579639Y-166018480D01*
X227552225Y-166084664D01*
X227536039Y-166112699D01*
X227492425Y-166169537D01*
X227469537Y-166192425D01*
X227412699Y-166236039D01*
X227384664Y-166252225D01*
X227318480Y-166279639D01*
X227287215Y-166288017D01*
X227224008Y-166296339D01*
X227208057Y-166298439D01*
X227191873Y-166299500D01*
X224247273Y-166299500D01*
X224145413Y-166326793D01*
X224145410Y-166326794D01*
X224086783Y-166360642D01*
X224054087Y-166379520D01*
X224054086Y-166379520D01*
X224047390Y-166383387D01*
X223985390Y-166400000D01*
X220442755Y-166400000D01*
X220375716Y-166380315D01*
X220355074Y-166363681D01*
X220345914Y-166354521D01*
X220345913Y-166354520D01*
X220254587Y-166301793D01*
X220152727Y-166274500D01*
X220119991Y-166274500D01*
X190326929Y-166274500D01*
X190300000Y-166274500D01*
X190247273Y-166274500D01*
X190145413Y-166301793D01*
X190145410Y-166301794D01*
X190054085Y-166354521D01*
X190044926Y-166363681D01*
X189983603Y-166397166D01*
X189957245Y-166400000D01*
X186414610Y-166400000D01*
X186352610Y-166383387D01*
X186345914Y-166379521D01*
X186345913Y-166379520D01*
X186254587Y-166326793D01*
X186152727Y-166299500D01*
X186152726Y-166299500D01*
X183208127Y-166299500D01*
X183191942Y-166298439D01*
X183172563Y-166295887D01*
X183112784Y-166288017D01*
X183081519Y-166279639D01*
X183015335Y-166252225D01*
X182987300Y-166236039D01*
X182930462Y-166192425D01*
X182907574Y-166169537D01*
X182863960Y-166112699D01*
X182847774Y-166084664D01*
X182820360Y-166018480D01*
X182811982Y-165987213D01*
X182801561Y-165908057D01*
X182800500Y-165891872D01*
X182800500Y-162169800D01*
X190024500Y-162169800D01*
X190024500Y-162279400D01*
X190066443Y-162380658D01*
X190143942Y-162458157D01*
X190245200Y-162500100D01*
X190245201Y-162500100D01*
X190354799Y-162500100D01*
X190354800Y-162500100D01*
X190456058Y-162458157D01*
X190533557Y-162380658D01*
X190575500Y-162279400D01*
X190575500Y-162169800D01*
X190533557Y-162068542D01*
X190456058Y-161991043D01*
X190354800Y-161949100D01*
X190245200Y-161949100D01*
X190245199Y-161949100D01*
X190143940Y-161991044D01*
X190066444Y-162068540D01*
X190066443Y-162068541D01*
X190066443Y-162068542D01*
X190024500Y-162169800D01*
X182800500Y-162169800D01*
X182800500Y-158545200D01*
X189974500Y-158545200D01*
X189974500Y-158654800D01*
X190016443Y-158756058D01*
X190093942Y-158833557D01*
X190195200Y-158875500D01*
X190195201Y-158875500D01*
X190304799Y-158875500D01*
X190304800Y-158875500D01*
X190406058Y-158833557D01*
X190483557Y-158756058D01*
X190525500Y-158654800D01*
X190525500Y-158545200D01*
X190483557Y-158443942D01*
X190406058Y-158366443D01*
X190304800Y-158324500D01*
X190195200Y-158324500D01*
X190195199Y-158324500D01*
X190093940Y-158366444D01*
X190016444Y-158443940D01*
X189998683Y-158486819D01*
X189974500Y-158545200D01*
X182800500Y-158545200D01*
X182800500Y-157674000D01*
X191924500Y-157674000D01*
X191924500Y-157783600D01*
X191966443Y-157884858D01*
X191966444Y-157884859D01*
X191988181Y-157906596D01*
X192021666Y-157967919D01*
X192024500Y-157994277D01*
X192024500Y-165209523D01*
X192004815Y-165276562D01*
X191988181Y-165297204D01*
X191966444Y-165318940D01*
X191966443Y-165318941D01*
X191966443Y-165318942D01*
X191924500Y-165420200D01*
X191924500Y-165529800D01*
X191966443Y-165631058D01*
X192043942Y-165708557D01*
X192145200Y-165750500D01*
X192145201Y-165750500D01*
X192254799Y-165750500D01*
X192254800Y-165750500D01*
X192356058Y-165708557D01*
X192433557Y-165631058D01*
X192475500Y-165529800D01*
X192475500Y-165420200D01*
X192433557Y-165318942D01*
X192411819Y-165297204D01*
X192378334Y-165235881D01*
X192375500Y-165209523D01*
X192375500Y-164545200D01*
X195424500Y-164545200D01*
X195424500Y-164654800D01*
X195466443Y-164756058D01*
X195543942Y-164833557D01*
X195645200Y-164875500D01*
X195645201Y-164875500D01*
X195754799Y-164875500D01*
X195754800Y-164875500D01*
X195856058Y-164833557D01*
X195933557Y-164756058D01*
X195975500Y-164654800D01*
X195975500Y-164545200D01*
X195957349Y-164501379D01*
X224749500Y-164501379D01*
X224749500Y-164688620D01*
X224786025Y-164872243D01*
X224786027Y-164872251D01*
X224857676Y-165045228D01*
X224857681Y-165045237D01*
X224961697Y-165200907D01*
X224961700Y-165200911D01*
X225094088Y-165333299D01*
X225094092Y-165333302D01*
X225249762Y-165437318D01*
X225249768Y-165437321D01*
X225249769Y-165437322D01*
X225422749Y-165508973D01*
X225606379Y-165545499D01*
X225606383Y-165545500D01*
X225606384Y-165545500D01*
X225793617Y-165545500D01*
X225793618Y-165545499D01*
X225977251Y-165508973D01*
X226150231Y-165437322D01*
X226305908Y-165333302D01*
X226438302Y-165200908D01*
X226542322Y-165045231D01*
X226613973Y-164872251D01*
X226650500Y-164688616D01*
X226650500Y-164501384D01*
X226613973Y-164317749D01*
X226542322Y-164144769D01*
X226542321Y-164144768D01*
X226542318Y-164144762D01*
X226438302Y-163989092D01*
X226438299Y-163989088D01*
X226305911Y-163856700D01*
X226305907Y-163856697D01*
X226150237Y-163752681D01*
X226150228Y-163752676D01*
X225977251Y-163681027D01*
X225977243Y-163681025D01*
X225793620Y-163644500D01*
X225793616Y-163644500D01*
X225606384Y-163644500D01*
X225606379Y-163644500D01*
X225422756Y-163681025D01*
X225422748Y-163681027D01*
X225249771Y-163752676D01*
X225249762Y-163752681D01*
X225094092Y-163856697D01*
X225094088Y-163856700D01*
X224961700Y-163989088D01*
X224961697Y-163989092D01*
X224857681Y-164144762D01*
X224857676Y-164144771D01*
X224786027Y-164317748D01*
X224786025Y-164317756D01*
X224749500Y-164501379D01*
X195957349Y-164501379D01*
X195933557Y-164443942D01*
X195856058Y-164366443D01*
X195754800Y-164324500D01*
X195645200Y-164324500D01*
X195645199Y-164324500D01*
X195543940Y-164366444D01*
X195466444Y-164443940D01*
X195466443Y-164443941D01*
X195466443Y-164443942D01*
X195424500Y-164545200D01*
X192375500Y-164545200D01*
X192375500Y-163645200D01*
X197958900Y-163645200D01*
X197958900Y-163754800D01*
X198000843Y-163856058D01*
X198078342Y-163933557D01*
X198179600Y-163975500D01*
X198179601Y-163975500D01*
X198289199Y-163975500D01*
X198289200Y-163975500D01*
X198390458Y-163933557D01*
X198467957Y-163856058D01*
X198509900Y-163754800D01*
X198509900Y-163645200D01*
X198467957Y-163543942D01*
X198390458Y-163466443D01*
X198289200Y-163424500D01*
X198179600Y-163424500D01*
X198179599Y-163424500D01*
X198078340Y-163466444D01*
X198000844Y-163543940D01*
X198000843Y-163543941D01*
X198000843Y-163543942D01*
X197958900Y-163645200D01*
X192375500Y-163645200D01*
X192375500Y-162000200D01*
X210914500Y-162000200D01*
X210914500Y-162109800D01*
X210956443Y-162211058D01*
X211033942Y-162288557D01*
X211135200Y-162330500D01*
X211135201Y-162330500D01*
X211244799Y-162330500D01*
X211244800Y-162330500D01*
X211346058Y-162288557D01*
X211367796Y-162266819D01*
X211429119Y-162233334D01*
X211455477Y-162230500D01*
X224664023Y-162230500D01*
X224731062Y-162250185D01*
X224776817Y-162302989D01*
X224785639Y-162330303D01*
X224786024Y-162332242D01*
X224786028Y-162332253D01*
X224857676Y-162505228D01*
X224857681Y-162505237D01*
X224961697Y-162660907D01*
X224961700Y-162660911D01*
X225094088Y-162793299D01*
X225094092Y-162793302D01*
X225249762Y-162897318D01*
X225249768Y-162897321D01*
X225249769Y-162897322D01*
X225422749Y-162968973D01*
X225606379Y-163005499D01*
X225606383Y-163005500D01*
X225606384Y-163005500D01*
X225793617Y-163005500D01*
X225793618Y-163005499D01*
X225977251Y-162968973D01*
X226150231Y-162897322D01*
X226305908Y-162793302D01*
X226438302Y-162660908D01*
X226542322Y-162505231D01*
X226613973Y-162332251D01*
X226650500Y-162148616D01*
X226650500Y-161961384D01*
X226613973Y-161777749D01*
X226542322Y-161604769D01*
X226542321Y-161604768D01*
X226542318Y-161604762D01*
X226438302Y-161449092D01*
X226438299Y-161449088D01*
X226305911Y-161316700D01*
X226305907Y-161316697D01*
X226150237Y-161212681D01*
X226150228Y-161212676D01*
X225977251Y-161141027D01*
X225977243Y-161141025D01*
X225793620Y-161104500D01*
X225793616Y-161104500D01*
X225606384Y-161104500D01*
X225606379Y-161104500D01*
X225422756Y-161141025D01*
X225422748Y-161141027D01*
X225249771Y-161212676D01*
X225249762Y-161212681D01*
X225094092Y-161316697D01*
X225094088Y-161316700D01*
X224961700Y-161449088D01*
X224961697Y-161449092D01*
X224857681Y-161604762D01*
X224857676Y-161604771D01*
X224786028Y-161777746D01*
X224786024Y-161777757D01*
X224785639Y-161779697D01*
X224785157Y-161780617D01*
X224784259Y-161783579D01*
X224783697Y-161783408D01*
X224753251Y-161841607D01*
X224692534Y-161876178D01*
X224664023Y-161879500D01*
X211455477Y-161879500D01*
X211388438Y-161859815D01*
X211367796Y-161843181D01*
X211346059Y-161821444D01*
X211346058Y-161821443D01*
X211244800Y-161779500D01*
X211135200Y-161779500D01*
X211135199Y-161779500D01*
X211033940Y-161821444D01*
X210956444Y-161898940D01*
X210918293Y-161991044D01*
X210914500Y-162000200D01*
X192375500Y-162000200D01*
X192375500Y-161220200D01*
X208734500Y-161220200D01*
X208734500Y-161329800D01*
X208776443Y-161431058D01*
X208853942Y-161508557D01*
X208955200Y-161550500D01*
X208955201Y-161550500D01*
X209064799Y-161550500D01*
X209064800Y-161550500D01*
X209166058Y-161508557D01*
X209243557Y-161431058D01*
X209285500Y-161329800D01*
X209285500Y-161220200D01*
X209243557Y-161118942D01*
X209166058Y-161041443D01*
X209064800Y-160999500D01*
X208955200Y-160999500D01*
X208955199Y-160999500D01*
X208853940Y-161041444D01*
X208776444Y-161118940D01*
X208737615Y-161212681D01*
X208734500Y-161220200D01*
X192375500Y-161220200D01*
X192375500Y-160820200D01*
X211934500Y-160820200D01*
X211934500Y-160929800D01*
X211976443Y-161031058D01*
X212053942Y-161108557D01*
X212155200Y-161150500D01*
X212155201Y-161150500D01*
X212264799Y-161150500D01*
X212264800Y-161150500D01*
X212366058Y-161108557D01*
X212443557Y-161031058D01*
X212485500Y-160929800D01*
X212485500Y-160820200D01*
X212443557Y-160718942D01*
X212366058Y-160641443D01*
X212264800Y-160599500D01*
X212155200Y-160599500D01*
X212155199Y-160599500D01*
X212053940Y-160641444D01*
X211976444Y-160718940D01*
X211976443Y-160718941D01*
X211976443Y-160718942D01*
X211934500Y-160820200D01*
X192375500Y-160820200D01*
X192375500Y-158120200D01*
X197287500Y-158120200D01*
X197287500Y-158229800D01*
X197329443Y-158331058D01*
X197406942Y-158408557D01*
X197508200Y-158450500D01*
X197508201Y-158450500D01*
X197617799Y-158450500D01*
X197617800Y-158450500D01*
X197719058Y-158408557D01*
X197740796Y-158386819D01*
X197802119Y-158353334D01*
X197828477Y-158350500D01*
X202934523Y-158350500D01*
X203001562Y-158370185D01*
X203022204Y-158386819D01*
X203043942Y-158408557D01*
X203145200Y-158450500D01*
X203175943Y-158450500D01*
X203242982Y-158470185D01*
X203263624Y-158486819D01*
X204391218Y-159614413D01*
X204440587Y-159663782D01*
X204505091Y-159690500D01*
X209325522Y-159690500D01*
X209392561Y-159710185D01*
X209438316Y-159762989D01*
X209448260Y-159832147D01*
X209419235Y-159895703D01*
X209413203Y-159902181D01*
X209396443Y-159918940D01*
X209396442Y-159918941D01*
X209396442Y-159918942D01*
X209354499Y-160020200D01*
X209354499Y-160129800D01*
X209396442Y-160231058D01*
X209473941Y-160308557D01*
X209575199Y-160350500D01*
X209575200Y-160350500D01*
X209684798Y-160350500D01*
X209684799Y-160350500D01*
X209786057Y-160308557D01*
X209863556Y-160231058D01*
X209905499Y-160129800D01*
X209905499Y-160020200D01*
X209863556Y-159918942D01*
X209846795Y-159902181D01*
X209813310Y-159840858D01*
X209818294Y-159771166D01*
X209860166Y-159715233D01*
X209925630Y-159690816D01*
X209934476Y-159690500D01*
X224664023Y-159690500D01*
X224731062Y-159710185D01*
X224776817Y-159762989D01*
X224785639Y-159790303D01*
X224786024Y-159792242D01*
X224786028Y-159792253D01*
X224857676Y-159965228D01*
X224857681Y-159965237D01*
X224961697Y-160120907D01*
X224961700Y-160120911D01*
X225094088Y-160253299D01*
X225094092Y-160253302D01*
X225249762Y-160357318D01*
X225249768Y-160357321D01*
X225249769Y-160357322D01*
X225422749Y-160428973D01*
X225606379Y-160465499D01*
X225606383Y-160465500D01*
X225606384Y-160465500D01*
X225793617Y-160465500D01*
X225793618Y-160465499D01*
X225977251Y-160428973D01*
X226150231Y-160357322D01*
X226305908Y-160253302D01*
X226438302Y-160120908D01*
X226542322Y-159965231D01*
X226613973Y-159792251D01*
X226650500Y-159608616D01*
X226650500Y-159421384D01*
X226613973Y-159237749D01*
X226542322Y-159064769D01*
X226542321Y-159064768D01*
X226542318Y-159064762D01*
X226438302Y-158909092D01*
X226438299Y-158909088D01*
X226305911Y-158776700D01*
X226305907Y-158776697D01*
X226150237Y-158672681D01*
X226150228Y-158672676D01*
X225977251Y-158601027D01*
X225977243Y-158601025D01*
X225793620Y-158564500D01*
X225793616Y-158564500D01*
X225606384Y-158564500D01*
X225606379Y-158564500D01*
X225422756Y-158601025D01*
X225422748Y-158601027D01*
X225249771Y-158672676D01*
X225249762Y-158672681D01*
X225094092Y-158776697D01*
X225094088Y-158776700D01*
X224961700Y-158909088D01*
X224961697Y-158909092D01*
X224857681Y-159064762D01*
X224857676Y-159064771D01*
X224786028Y-159237746D01*
X224786024Y-159237757D01*
X224785639Y-159239697D01*
X224785157Y-159240617D01*
X224784259Y-159243579D01*
X224783697Y-159243408D01*
X224753251Y-159301607D01*
X224692534Y-159336178D01*
X224664023Y-159339500D01*
X212724477Y-159339500D01*
X212657438Y-159319815D01*
X212611683Y-159267011D01*
X212601739Y-159197853D01*
X212627411Y-159141638D01*
X212626772Y-159141212D01*
X212629406Y-159137268D01*
X212630764Y-159134297D01*
X212632989Y-159131907D01*
X212633552Y-159131062D01*
X212633557Y-159131058D01*
X212675500Y-159029800D01*
X212675500Y-158920200D01*
X212675499Y-158920199D01*
X212673117Y-158908220D01*
X212674716Y-158907901D01*
X212668756Y-158852489D01*
X212700028Y-158790009D01*
X212760115Y-158754353D01*
X212790787Y-158750500D01*
X221709907Y-158750500D01*
X221709909Y-158750500D01*
X221774413Y-158723782D01*
X223311376Y-157186819D01*
X223372699Y-157153334D01*
X223399057Y-157150500D01*
X224625501Y-157150500D01*
X224692540Y-157170185D01*
X224738295Y-157222989D01*
X224749501Y-157274500D01*
X224749501Y-157834902D01*
X224755330Y-157864212D01*
X224777542Y-157897457D01*
X224791221Y-157906596D01*
X224810787Y-157919669D01*
X224810790Y-157919669D01*
X224810791Y-157919670D01*
X224820647Y-157921630D01*
X224840101Y-157925500D01*
X226559898Y-157925499D01*
X226589213Y-157919669D01*
X226622457Y-157897457D01*
X226644669Y-157864213D01*
X226650500Y-157834899D01*
X226650499Y-156115102D01*
X226644669Y-156085787D01*
X226644668Y-156085785D01*
X226622457Y-156052542D01*
X226589214Y-156030332D01*
X226589215Y-156030332D01*
X226589213Y-156030331D01*
X226589211Y-156030330D01*
X226589208Y-156030329D01*
X226559901Y-156024500D01*
X224840105Y-156024500D01*
X224840097Y-156024501D01*
X224810787Y-156030330D01*
X224777542Y-156052542D01*
X224755332Y-156085785D01*
X224755329Y-156085791D01*
X224749500Y-156115098D01*
X224749500Y-156675500D01*
X224729815Y-156742539D01*
X224677011Y-156788294D01*
X224625500Y-156799500D01*
X223324351Y-156799500D01*
X223324343Y-156799499D01*
X223309909Y-156799499D01*
X223240091Y-156799499D01*
X223240090Y-156799499D01*
X223175584Y-156826219D01*
X221638624Y-158363181D01*
X221577301Y-158396666D01*
X221550943Y-158399500D01*
X204524057Y-158399500D01*
X204457018Y-158379815D01*
X204436376Y-158363181D01*
X203865619Y-157792424D01*
X203832134Y-157731101D01*
X203831198Y-157726357D01*
X203829300Y-157715635D01*
X203829300Y-157674000D01*
X203807015Y-157620200D01*
X205724500Y-157620200D01*
X205724500Y-157729800D01*
X205766443Y-157831058D01*
X205843942Y-157908557D01*
X205945200Y-157950500D01*
X205945201Y-157950500D01*
X206054799Y-157950500D01*
X206054800Y-157950500D01*
X206156058Y-157908557D01*
X206233557Y-157831058D01*
X206275500Y-157729800D01*
X206275500Y-157620200D01*
X206244434Y-157545200D01*
X212224500Y-157545200D01*
X212224500Y-157654800D01*
X212266443Y-157756058D01*
X212343942Y-157833557D01*
X212445200Y-157875500D01*
X212445201Y-157875500D01*
X212554799Y-157875500D01*
X212554800Y-157875500D01*
X212656058Y-157833557D01*
X212733557Y-157756058D01*
X212775500Y-157654800D01*
X212775500Y-157545200D01*
X212733557Y-157443942D01*
X212656058Y-157366443D01*
X212554800Y-157324500D01*
X212445200Y-157324500D01*
X212445199Y-157324500D01*
X212373596Y-157354159D01*
X212348013Y-157364757D01*
X212343940Y-157366444D01*
X212266444Y-157443940D01*
X212229299Y-157533615D01*
X212224500Y-157545200D01*
X206244434Y-157545200D01*
X206233557Y-157518942D01*
X206156058Y-157441443D01*
X206054800Y-157399500D01*
X205945200Y-157399500D01*
X205945199Y-157399500D01*
X205843940Y-157441444D01*
X205766444Y-157518940D01*
X205766443Y-157518941D01*
X205766443Y-157518942D01*
X205724500Y-157620200D01*
X203807015Y-157620200D01*
X203787357Y-157572742D01*
X203709858Y-157495243D01*
X203608600Y-157453300D01*
X203499000Y-157453300D01*
X203498999Y-157453300D01*
X203397740Y-157495244D01*
X203376004Y-157516981D01*
X203314681Y-157550466D01*
X203288323Y-157553300D01*
X199165477Y-157553300D01*
X199098438Y-157533615D01*
X199077796Y-157516981D01*
X199056059Y-157495244D01*
X199056058Y-157495243D01*
X198954800Y-157453300D01*
X198845200Y-157453300D01*
X198845199Y-157453300D01*
X198743940Y-157495244D01*
X198666444Y-157572740D01*
X198624500Y-157673999D01*
X198624500Y-157783598D01*
X198624501Y-157783604D01*
X198642910Y-157828046D01*
X198650380Y-157897515D01*
X198619106Y-157959995D01*
X198559018Y-157995648D01*
X198528350Y-157999500D01*
X197828477Y-157999500D01*
X197761438Y-157979815D01*
X197740796Y-157963181D01*
X197719059Y-157941444D01*
X197719058Y-157941443D01*
X197617800Y-157899500D01*
X197508200Y-157899500D01*
X197508199Y-157899500D01*
X197406940Y-157941444D01*
X197329444Y-158018940D01*
X197329443Y-158018941D01*
X197329443Y-158018942D01*
X197287500Y-158120200D01*
X192375500Y-158120200D01*
X192375500Y-157994277D01*
X192395185Y-157927238D01*
X192411819Y-157906596D01*
X192420958Y-157897457D01*
X192433557Y-157884858D01*
X192475500Y-157783600D01*
X192475500Y-157674000D01*
X192433557Y-157572742D01*
X192411819Y-157551004D01*
X192378334Y-157489681D01*
X192375500Y-157463323D01*
X192375500Y-157076400D01*
X196524500Y-157076400D01*
X196524500Y-157186000D01*
X196566443Y-157287258D01*
X196643942Y-157364757D01*
X196745200Y-157406700D01*
X196745201Y-157406700D01*
X196854799Y-157406700D01*
X196854800Y-157406700D01*
X196956058Y-157364757D01*
X197033557Y-157287258D01*
X197075500Y-157186000D01*
X197075500Y-157076400D01*
X197033557Y-156975142D01*
X196956058Y-156897643D01*
X196854800Y-156855700D01*
X196745200Y-156855700D01*
X196745199Y-156855700D01*
X196643940Y-156897644D01*
X196566444Y-156975140D01*
X196543282Y-157031058D01*
X196524500Y-157076400D01*
X192375500Y-157076400D01*
X192375500Y-156820200D01*
X204924500Y-156820200D01*
X204924500Y-156929800D01*
X204966443Y-157031058D01*
X205043942Y-157108557D01*
X205145200Y-157150500D01*
X205145201Y-157150500D01*
X205254799Y-157150500D01*
X205254800Y-157150500D01*
X205356058Y-157108557D01*
X205433557Y-157031058D01*
X205475500Y-156929800D01*
X205475500Y-156899056D01*
X205495185Y-156832017D01*
X205511815Y-156811379D01*
X205854876Y-156468317D01*
X205916199Y-156434833D01*
X205985891Y-156439817D01*
X206041824Y-156481689D01*
X206057117Y-156508544D01*
X206066443Y-156531058D01*
X206143942Y-156608557D01*
X206245200Y-156650500D01*
X206245201Y-156650500D01*
X206354799Y-156650500D01*
X206354800Y-156650500D01*
X206456058Y-156608557D01*
X206469415Y-156595200D01*
X214324500Y-156595200D01*
X214324500Y-156704800D01*
X214366443Y-156806058D01*
X214443942Y-156883557D01*
X214545200Y-156925500D01*
X214545201Y-156925500D01*
X214654799Y-156925500D01*
X214654800Y-156925500D01*
X214756058Y-156883557D01*
X214833557Y-156806058D01*
X214875500Y-156704800D01*
X214875500Y-156595200D01*
X214833557Y-156493942D01*
X214756058Y-156416443D01*
X214654800Y-156374500D01*
X214545200Y-156374500D01*
X214545199Y-156374500D01*
X214473596Y-156404159D01*
X214450910Y-156413557D01*
X214443940Y-156416444D01*
X214366444Y-156493940D01*
X214366443Y-156493941D01*
X214366443Y-156493942D01*
X214324500Y-156595200D01*
X206469415Y-156595200D01*
X206533557Y-156531058D01*
X206575500Y-156429800D01*
X206575500Y-156381472D01*
X206580389Y-156364581D01*
X206590096Y-156349346D01*
X206595185Y-156332017D01*
X206611815Y-156311379D01*
X206957073Y-155966120D01*
X207018396Y-155932636D01*
X207088088Y-155937620D01*
X207144021Y-155979492D01*
X207159312Y-156006343D01*
X207166443Y-156023558D01*
X207243942Y-156101057D01*
X207345200Y-156143000D01*
X207345201Y-156143000D01*
X207454799Y-156143000D01*
X207454800Y-156143000D01*
X207497772Y-156125200D01*
X208124500Y-156125200D01*
X208124500Y-156234800D01*
X208166443Y-156336058D01*
X208243942Y-156413557D01*
X208345200Y-156455500D01*
X208345201Y-156455500D01*
X208454799Y-156455500D01*
X208454800Y-156455500D01*
X208556058Y-156413557D01*
X208633557Y-156336058D01*
X208675500Y-156234800D01*
X208675500Y-156125200D01*
X208633557Y-156023942D01*
X208556058Y-155946443D01*
X208454800Y-155904500D01*
X208345200Y-155904500D01*
X208345199Y-155904500D01*
X208294502Y-155925500D01*
X208247909Y-155944800D01*
X208243940Y-155946444D01*
X208166444Y-156023940D01*
X208166443Y-156023941D01*
X208166443Y-156023942D01*
X208163797Y-156030330D01*
X208125181Y-156123557D01*
X208124500Y-156125200D01*
X207497772Y-156125200D01*
X207556058Y-156101057D01*
X207633557Y-156023558D01*
X207675500Y-155922300D01*
X207675500Y-155869842D01*
X207682880Y-155849418D01*
X207691212Y-155838045D01*
X207692048Y-155835200D01*
X211864500Y-155835200D01*
X211864500Y-155944800D01*
X211906443Y-156046058D01*
X211983942Y-156123557D01*
X212085200Y-156165500D01*
X212085201Y-156165500D01*
X212194799Y-156165500D01*
X212194800Y-156165500D01*
X212296058Y-156123557D01*
X212373557Y-156046058D01*
X212415500Y-155944800D01*
X212415500Y-155835200D01*
X212373557Y-155733942D01*
X212296058Y-155656443D01*
X212194800Y-155614500D01*
X212085200Y-155614500D01*
X212085199Y-155614500D01*
X212013596Y-155644159D01*
X211984872Y-155656058D01*
X211983940Y-155656444D01*
X211906444Y-155733940D01*
X211868925Y-155824518D01*
X211864500Y-155835200D01*
X207692048Y-155835200D01*
X207695185Y-155824518D01*
X207711819Y-155803876D01*
X207920495Y-155595200D01*
X214324500Y-155595200D01*
X214324500Y-155704800D01*
X214366443Y-155806058D01*
X214443942Y-155883557D01*
X214545200Y-155925500D01*
X214545201Y-155925500D01*
X214654799Y-155925500D01*
X214654800Y-155925500D01*
X214756058Y-155883557D01*
X214833557Y-155806058D01*
X214875500Y-155704800D01*
X214875500Y-155595200D01*
X214833557Y-155493942D01*
X214756058Y-155416443D01*
X214654800Y-155374500D01*
X214545200Y-155374500D01*
X214545199Y-155374500D01*
X214443940Y-155416444D01*
X214366444Y-155493940D01*
X214325826Y-155592000D01*
X214324500Y-155595200D01*
X207920495Y-155595200D01*
X208128876Y-155386819D01*
X208190199Y-155353334D01*
X208216557Y-155350500D01*
X209134907Y-155350500D01*
X209134909Y-155350500D01*
X209199413Y-155323782D01*
X209577995Y-154945200D01*
X219824500Y-154945200D01*
X219824500Y-155054800D01*
X219866443Y-155156058D01*
X219943942Y-155233557D01*
X220045200Y-155275500D01*
X220045201Y-155275500D01*
X220154799Y-155275500D01*
X220154800Y-155275500D01*
X220256058Y-155233557D01*
X220333557Y-155156058D01*
X220375500Y-155054800D01*
X220375500Y-154945200D01*
X220333557Y-154843942D01*
X220256058Y-154766443D01*
X220154800Y-154724500D01*
X220045200Y-154724500D01*
X220045199Y-154724500D01*
X219982434Y-154750499D01*
X219958290Y-154760500D01*
X219943940Y-154766444D01*
X219866444Y-154843940D01*
X219866443Y-154843941D01*
X219866443Y-154843942D01*
X219824500Y-154945200D01*
X209577995Y-154945200D01*
X210092994Y-154430200D01*
X210914500Y-154430200D01*
X210914500Y-154539800D01*
X210956443Y-154641058D01*
X211033942Y-154718557D01*
X211135200Y-154760500D01*
X211135201Y-154760500D01*
X211244799Y-154760500D01*
X211244800Y-154760500D01*
X211346058Y-154718557D01*
X211423557Y-154641058D01*
X211465500Y-154539800D01*
X211465500Y-154430200D01*
X211423557Y-154328942D01*
X211346058Y-154251443D01*
X211244800Y-154209500D01*
X211135200Y-154209500D01*
X211135199Y-154209500D01*
X211033940Y-154251444D01*
X210956444Y-154328940D01*
X210914666Y-154429800D01*
X210914500Y-154430200D01*
X210092994Y-154430200D01*
X210636375Y-153886818D01*
X210697698Y-153853334D01*
X210724056Y-153850500D01*
X212809213Y-153850500D01*
X212876252Y-153870185D01*
X212922007Y-153922989D01*
X212931951Y-153992147D01*
X212925148Y-154016941D01*
X212924500Y-154020199D01*
X212924500Y-154020200D01*
X212924500Y-154129800D01*
X212966443Y-154231058D01*
X213043942Y-154308557D01*
X213145200Y-154350500D01*
X213145201Y-154350500D01*
X213254799Y-154350500D01*
X213254800Y-154350500D01*
X213356058Y-154308557D01*
X213377796Y-154286819D01*
X213439119Y-154253334D01*
X213465477Y-154250500D01*
X219954907Y-154250500D01*
X219954909Y-154250500D01*
X220019413Y-154223782D01*
X220961816Y-153281379D01*
X224749500Y-153281379D01*
X224749500Y-153468620D01*
X224786025Y-153652243D01*
X224786027Y-153652251D01*
X224857676Y-153825228D01*
X224857681Y-153825237D01*
X224961697Y-153980907D01*
X224961700Y-153980911D01*
X225094088Y-154113299D01*
X225094092Y-154113302D01*
X225249762Y-154217318D01*
X225249771Y-154217323D01*
X225282930Y-154231058D01*
X225422749Y-154288973D01*
X225579734Y-154320199D01*
X225606379Y-154325499D01*
X225606383Y-154325500D01*
X225606384Y-154325500D01*
X225793617Y-154325500D01*
X225793618Y-154325499D01*
X225977251Y-154288973D01*
X226150231Y-154217322D01*
X226305908Y-154113302D01*
X226438302Y-153980908D01*
X226542322Y-153825231D01*
X226613973Y-153652251D01*
X226650500Y-153468616D01*
X226650500Y-153281384D01*
X226613973Y-153097749D01*
X226552980Y-152950499D01*
X226542323Y-152924771D01*
X226542318Y-152924762D01*
X226438302Y-152769092D01*
X226438299Y-152769088D01*
X226305911Y-152636700D01*
X226305907Y-152636697D01*
X226150237Y-152532681D01*
X226150228Y-152532676D01*
X225977251Y-152461027D01*
X225977243Y-152461025D01*
X225793620Y-152424500D01*
X225793616Y-152424500D01*
X225606384Y-152424500D01*
X225606379Y-152424500D01*
X225422756Y-152461025D01*
X225422748Y-152461027D01*
X225249771Y-152532676D01*
X225249762Y-152532681D01*
X225094092Y-152636697D01*
X225094088Y-152636700D01*
X224961700Y-152769088D01*
X224961697Y-152769092D01*
X224857681Y-152924762D01*
X224857676Y-152924771D01*
X224786027Y-153097748D01*
X224786025Y-153097756D01*
X224749500Y-153281379D01*
X220961816Y-153281379D01*
X223501815Y-150741379D01*
X224749500Y-150741379D01*
X224749500Y-150928620D01*
X224786025Y-151112243D01*
X224786027Y-151112251D01*
X224857676Y-151285228D01*
X224857681Y-151285237D01*
X224961697Y-151440907D01*
X224961700Y-151440911D01*
X225094088Y-151573299D01*
X225094092Y-151573302D01*
X225249762Y-151677318D01*
X225249771Y-151677323D01*
X225257439Y-151680499D01*
X225422749Y-151748973D01*
X225606379Y-151785499D01*
X225606383Y-151785500D01*
X225606384Y-151785500D01*
X225793617Y-151785500D01*
X225793618Y-151785499D01*
X225977251Y-151748973D01*
X226150231Y-151677322D01*
X226305908Y-151573302D01*
X226438302Y-151440908D01*
X226542322Y-151285231D01*
X226613973Y-151112251D01*
X226650500Y-150928616D01*
X226650500Y-150741384D01*
X226613973Y-150557749D01*
X226542322Y-150384769D01*
X226542321Y-150384768D01*
X226542318Y-150384762D01*
X226438302Y-150229092D01*
X226438299Y-150229088D01*
X226305911Y-150096700D01*
X226305907Y-150096697D01*
X226150237Y-149992681D01*
X226150228Y-149992676D01*
X225977251Y-149921027D01*
X225977243Y-149921025D01*
X225793620Y-149884500D01*
X225793616Y-149884500D01*
X225606384Y-149884500D01*
X225606379Y-149884500D01*
X225422756Y-149921025D01*
X225422748Y-149921027D01*
X225249771Y-149992676D01*
X225249762Y-149992681D01*
X225094092Y-150096697D01*
X225094088Y-150096700D01*
X224961700Y-150229088D01*
X224961697Y-150229092D01*
X224857681Y-150384762D01*
X224857676Y-150384771D01*
X224786027Y-150557748D01*
X224786025Y-150557756D01*
X224749500Y-150741379D01*
X223501815Y-150741379D01*
X225091552Y-149151641D01*
X225152873Y-149118158D01*
X225222565Y-149123142D01*
X225248124Y-149136223D01*
X225249769Y-149137322D01*
X225422749Y-149208973D01*
X225533779Y-149231058D01*
X225606379Y-149245499D01*
X225606383Y-149245500D01*
X225606384Y-149245500D01*
X225793617Y-149245500D01*
X225793618Y-149245499D01*
X225977251Y-149208973D01*
X226150231Y-149137322D01*
X226305908Y-149033302D01*
X226438302Y-148900908D01*
X226542322Y-148745231D01*
X226613973Y-148572251D01*
X226650500Y-148388616D01*
X226650500Y-148201384D01*
X226613973Y-148017749D01*
X226551730Y-147867481D01*
X226542323Y-147844771D01*
X226542318Y-147844762D01*
X226438302Y-147689092D01*
X226438299Y-147689088D01*
X226305911Y-147556700D01*
X226305907Y-147556697D01*
X226150237Y-147452681D01*
X226150228Y-147452676D01*
X225977251Y-147381027D01*
X225977243Y-147381025D01*
X225793620Y-147344500D01*
X225793616Y-147344500D01*
X225606384Y-147344500D01*
X225606379Y-147344500D01*
X225422756Y-147381025D01*
X225422748Y-147381027D01*
X225249771Y-147452676D01*
X225249762Y-147452681D01*
X225094092Y-147556697D01*
X225094088Y-147556700D01*
X224961700Y-147689088D01*
X224961697Y-147689092D01*
X224857681Y-147844762D01*
X224857676Y-147844771D01*
X224786027Y-148017748D01*
X224786025Y-148017756D01*
X224749500Y-148201379D01*
X224749500Y-148388620D01*
X224786025Y-148572243D01*
X224786027Y-148572251D01*
X224847309Y-148720200D01*
X224857678Y-148745231D01*
X224858774Y-148746872D01*
X224859085Y-148747865D01*
X224860548Y-148750601D01*
X224860029Y-148750878D01*
X224879655Y-148813546D01*
X224861174Y-148880927D01*
X224843356Y-148903447D01*
X219883624Y-153863181D01*
X219822301Y-153896666D01*
X219795943Y-153899500D01*
X218103057Y-153899500D01*
X218036018Y-153879815D01*
X217990263Y-153827011D01*
X217980319Y-153757853D01*
X218009344Y-153694297D01*
X218015376Y-153687819D01*
X219179413Y-152523782D01*
X225091552Y-146611640D01*
X225152873Y-146578157D01*
X225222565Y-146583141D01*
X225248118Y-146596219D01*
X225249769Y-146597322D01*
X225422749Y-146668973D01*
X225606379Y-146705499D01*
X225606383Y-146705500D01*
X225606384Y-146705500D01*
X225793617Y-146705500D01*
X225793618Y-146705499D01*
X225977251Y-146668973D01*
X226150231Y-146597322D01*
X226305908Y-146493302D01*
X226438302Y-146360908D01*
X226542322Y-146205231D01*
X226613973Y-146032251D01*
X226650500Y-145848616D01*
X226650500Y-145661384D01*
X226613973Y-145477749D01*
X226542322Y-145304769D01*
X226542321Y-145304768D01*
X226542318Y-145304762D01*
X226438302Y-145149092D01*
X226438299Y-145149088D01*
X226305911Y-145016700D01*
X226305907Y-145016697D01*
X226150237Y-144912681D01*
X226150228Y-144912676D01*
X225977251Y-144841027D01*
X225977243Y-144841025D01*
X225793620Y-144804500D01*
X225793616Y-144804500D01*
X225606384Y-144804500D01*
X225606379Y-144804500D01*
X225422756Y-144841025D01*
X225422748Y-144841027D01*
X225249771Y-144912676D01*
X225249762Y-144912681D01*
X225094092Y-145016697D01*
X225094088Y-145016700D01*
X224961700Y-145149088D01*
X224961697Y-145149092D01*
X224857681Y-145304762D01*
X224857676Y-145304771D01*
X224786027Y-145477748D01*
X224786025Y-145477756D01*
X224749500Y-145661379D01*
X224749500Y-145848620D01*
X224786025Y-146032243D01*
X224786027Y-146032251D01*
X224843167Y-146170200D01*
X224857678Y-146205231D01*
X224858781Y-146206881D01*
X224859093Y-146207878D01*
X224860547Y-146210598D01*
X224860030Y-146210873D01*
X224879655Y-146273560D01*
X224861167Y-146340939D01*
X224843356Y-146363448D01*
X217743624Y-153463181D01*
X217682301Y-153496666D01*
X217655943Y-153499500D01*
X215963057Y-153499500D01*
X215896018Y-153479815D01*
X215850263Y-153427011D01*
X215840319Y-153357853D01*
X215869344Y-153294297D01*
X215875376Y-153287819D01*
X217377696Y-151785499D01*
X225091552Y-144071640D01*
X225152873Y-144038157D01*
X225222565Y-144043141D01*
X225248118Y-144056219D01*
X225249769Y-144057322D01*
X225422749Y-144128973D01*
X225606379Y-144165499D01*
X225606383Y-144165500D01*
X225606384Y-144165500D01*
X225793617Y-144165500D01*
X225793618Y-144165499D01*
X225977251Y-144128973D01*
X226150231Y-144057322D01*
X226305908Y-143953302D01*
X226438302Y-143820908D01*
X226542322Y-143665231D01*
X226613973Y-143492251D01*
X226650500Y-143308616D01*
X226650500Y-143121384D01*
X226613973Y-142937749D01*
X226542322Y-142764769D01*
X226542321Y-142764768D01*
X226542318Y-142764762D01*
X226438302Y-142609092D01*
X226438299Y-142609088D01*
X226305911Y-142476700D01*
X226305907Y-142476697D01*
X226150237Y-142372681D01*
X226150228Y-142372676D01*
X225977251Y-142301027D01*
X225977243Y-142301025D01*
X225793620Y-142264500D01*
X225793616Y-142264500D01*
X225606384Y-142264500D01*
X225606379Y-142264500D01*
X225422756Y-142301025D01*
X225422748Y-142301027D01*
X225249771Y-142372676D01*
X225249762Y-142372681D01*
X225094092Y-142476697D01*
X225094088Y-142476700D01*
X224961700Y-142609088D01*
X224961697Y-142609092D01*
X224857681Y-142764762D01*
X224857676Y-142764771D01*
X224786027Y-142937748D01*
X224786025Y-142937756D01*
X224749500Y-143121379D01*
X224749500Y-143308620D01*
X224786025Y-143492243D01*
X224786027Y-143492251D01*
X224820509Y-143575499D01*
X224857678Y-143665231D01*
X224858781Y-143666881D01*
X224859093Y-143667878D01*
X224860547Y-143670598D01*
X224860030Y-143670873D01*
X224879655Y-143733560D01*
X224861167Y-143800939D01*
X224843356Y-143823448D01*
X215603624Y-153063181D01*
X215542301Y-153096666D01*
X215515943Y-153099500D01*
X214790787Y-153099500D01*
X214723748Y-153079815D01*
X214677993Y-153027011D01*
X214668049Y-152957853D01*
X214674851Y-152933058D01*
X214675500Y-152929798D01*
X214675500Y-152820201D01*
X214675500Y-152820200D01*
X214633557Y-152718942D01*
X214611819Y-152697204D01*
X214578334Y-152635881D01*
X214575500Y-152609523D01*
X214575500Y-152099055D01*
X214595185Y-152032016D01*
X214611814Y-152011379D01*
X219102993Y-147520200D01*
X219824500Y-147520200D01*
X219824500Y-147629800D01*
X219866443Y-147731058D01*
X219943942Y-147808557D01*
X220045200Y-147850500D01*
X220045201Y-147850500D01*
X220154799Y-147850500D01*
X220154800Y-147850500D01*
X220256058Y-147808557D01*
X220333557Y-147731058D01*
X220375500Y-147629800D01*
X220375500Y-147520200D01*
X220333557Y-147418942D01*
X220256058Y-147341443D01*
X220154800Y-147299500D01*
X220045200Y-147299500D01*
X220045199Y-147299500D01*
X219943940Y-147341444D01*
X219866444Y-147418940D01*
X219833075Y-147499499D01*
X219824500Y-147520200D01*
X219102993Y-147520200D01*
X225091552Y-141531640D01*
X225152873Y-141498157D01*
X225222565Y-141503141D01*
X225248118Y-141516219D01*
X225249769Y-141517322D01*
X225422749Y-141588973D01*
X225606379Y-141625499D01*
X225606383Y-141625500D01*
X225606384Y-141625500D01*
X225793617Y-141625500D01*
X225793618Y-141625499D01*
X225977251Y-141588973D01*
X226150231Y-141517322D01*
X226305908Y-141413302D01*
X226438302Y-141280908D01*
X226542322Y-141125231D01*
X226613973Y-140952251D01*
X226650500Y-140768616D01*
X226650500Y-140581384D01*
X226613973Y-140397749D01*
X226554761Y-140254800D01*
X226542323Y-140224771D01*
X226542318Y-140224762D01*
X226438302Y-140069092D01*
X226438299Y-140069088D01*
X226305911Y-139936700D01*
X226305907Y-139936697D01*
X226150237Y-139832681D01*
X226150228Y-139832676D01*
X225977251Y-139761027D01*
X225977243Y-139761025D01*
X225793620Y-139724500D01*
X225793616Y-139724500D01*
X225606384Y-139724500D01*
X225606379Y-139724500D01*
X225422756Y-139761025D01*
X225422748Y-139761027D01*
X225249771Y-139832676D01*
X225249762Y-139832681D01*
X225094092Y-139936697D01*
X225094088Y-139936700D01*
X224961700Y-140069088D01*
X224961697Y-140069092D01*
X224857681Y-140224762D01*
X224857676Y-140224771D01*
X224786027Y-140397748D01*
X224786025Y-140397756D01*
X224749500Y-140581379D01*
X224749500Y-140768620D01*
X224786025Y-140952243D01*
X224786027Y-140952251D01*
X224857678Y-141125231D01*
X224858781Y-141126881D01*
X224859093Y-141127878D01*
X224860547Y-141130598D01*
X224860030Y-141130873D01*
X224879655Y-141193560D01*
X224861167Y-141260939D01*
X224843356Y-141283448D01*
X214251218Y-151875586D01*
X214224500Y-151940091D01*
X214224500Y-152575500D01*
X214204815Y-152642539D01*
X214152011Y-152688294D01*
X214100500Y-152699500D01*
X210564752Y-152699500D01*
X210500247Y-152726218D01*
X208838285Y-154388181D01*
X208776962Y-154421666D01*
X208750604Y-154424500D01*
X207440091Y-154424500D01*
X207375586Y-154451218D01*
X205263624Y-156563181D01*
X205202301Y-156596666D01*
X205175943Y-156599500D01*
X205145199Y-156599500D01*
X205043940Y-156641444D01*
X204966444Y-156718940D01*
X204933075Y-156799499D01*
X204924500Y-156820200D01*
X192375500Y-156820200D01*
X192375500Y-156345200D01*
X195926900Y-156345200D01*
X195926900Y-156454800D01*
X195968843Y-156556058D01*
X196046342Y-156633557D01*
X196147600Y-156675500D01*
X196147601Y-156675500D01*
X196257199Y-156675500D01*
X196257200Y-156675500D01*
X196358458Y-156633557D01*
X196435957Y-156556058D01*
X196477900Y-156454800D01*
X196477900Y-156420200D01*
X200912000Y-156420200D01*
X200912000Y-156529800D01*
X200953943Y-156631058D01*
X201031442Y-156708557D01*
X201132700Y-156750500D01*
X201132701Y-156750500D01*
X201242299Y-156750500D01*
X201242300Y-156750500D01*
X201343558Y-156708557D01*
X201421057Y-156631058D01*
X201463000Y-156529800D01*
X201463000Y-156420200D01*
X201421057Y-156318942D01*
X201343558Y-156241443D01*
X201242300Y-156199500D01*
X201132700Y-156199500D01*
X201132699Y-156199500D01*
X201061096Y-156229159D01*
X201047480Y-156234800D01*
X201031440Y-156241444D01*
X200953944Y-156318940D01*
X200913556Y-156416444D01*
X200912000Y-156420200D01*
X196477900Y-156420200D01*
X196477900Y-156345200D01*
X196435957Y-156243942D01*
X196358458Y-156166443D01*
X196257200Y-156124500D01*
X196147600Y-156124500D01*
X196147599Y-156124500D01*
X196046340Y-156166444D01*
X195968844Y-156243940D01*
X195930687Y-156336058D01*
X195926900Y-156345200D01*
X192375500Y-156345200D01*
X192375500Y-154857088D01*
X192395185Y-154790049D01*
X192447989Y-154744294D01*
X192517147Y-154734350D01*
X192546950Y-154742526D01*
X192566200Y-154750500D01*
X192566201Y-154750500D01*
X192675799Y-154750500D01*
X192675800Y-154750500D01*
X192753047Y-154718502D01*
X192822515Y-154711033D01*
X192884994Y-154742307D01*
X192920648Y-154802395D01*
X192924500Y-154833063D01*
X192924500Y-155234523D01*
X192904815Y-155301562D01*
X192888181Y-155322204D01*
X192866444Y-155343940D01*
X192836412Y-155416443D01*
X192824500Y-155445200D01*
X192824500Y-155554800D01*
X192866443Y-155656058D01*
X192943942Y-155733557D01*
X193045200Y-155775500D01*
X193045201Y-155775500D01*
X193154799Y-155775500D01*
X193154800Y-155775500D01*
X193256058Y-155733557D01*
X193333557Y-155656058D01*
X193375500Y-155554800D01*
X193375500Y-155445200D01*
X193333557Y-155343942D01*
X193308100Y-155318485D01*
X193304716Y-155314473D01*
X193298425Y-155300198D01*
X200924500Y-155300198D01*
X200924500Y-155409798D01*
X200966443Y-155511056D01*
X201043942Y-155588555D01*
X201145200Y-155630498D01*
X201145201Y-155630498D01*
X201254799Y-155630498D01*
X201254800Y-155630498D01*
X201356058Y-155588555D01*
X201433557Y-155511056D01*
X201475500Y-155409798D01*
X201475500Y-155300198D01*
X201433557Y-155198940D01*
X201356058Y-155121441D01*
X201254800Y-155079498D01*
X201145200Y-155079498D01*
X201145199Y-155079498D01*
X201043940Y-155121442D01*
X200966444Y-155198938D01*
X200930429Y-155285885D01*
X200924500Y-155300198D01*
X193298425Y-155300198D01*
X193292658Y-155287113D01*
X193278334Y-155260881D01*
X193277442Y-155252589D01*
X193276538Y-155250537D01*
X193276944Y-155247955D01*
X193275500Y-155234523D01*
X193275500Y-154800200D01*
X202424500Y-154800200D01*
X202424500Y-154909800D01*
X202466443Y-155011058D01*
X202543942Y-155088557D01*
X202645200Y-155130500D01*
X202645201Y-155130500D01*
X202754799Y-155130500D01*
X202754800Y-155130500D01*
X202856058Y-155088557D01*
X202933557Y-155011058D01*
X202975500Y-154909800D01*
X202975500Y-154800200D01*
X202934078Y-154700200D01*
X203944500Y-154700200D01*
X203944500Y-154809800D01*
X203986443Y-154911058D01*
X204063942Y-154988557D01*
X204165200Y-155030500D01*
X204165201Y-155030500D01*
X204274799Y-155030500D01*
X204274800Y-155030500D01*
X204376058Y-154988557D01*
X204453557Y-154911058D01*
X204495500Y-154809800D01*
X204495500Y-154700200D01*
X204483073Y-154670200D01*
X205974500Y-154670200D01*
X205974500Y-154779800D01*
X206016443Y-154881058D01*
X206093942Y-154958557D01*
X206195200Y-155000500D01*
X206195201Y-155000500D01*
X206304799Y-155000500D01*
X206304800Y-155000500D01*
X206406058Y-154958557D01*
X206483557Y-154881058D01*
X206525500Y-154779800D01*
X206525500Y-154670200D01*
X206483557Y-154568942D01*
X206406058Y-154491443D01*
X206304800Y-154449500D01*
X206195200Y-154449500D01*
X206195199Y-154449500D01*
X206093940Y-154491444D01*
X206016444Y-154568940D01*
X205982661Y-154650499D01*
X205974500Y-154670200D01*
X204483073Y-154670200D01*
X204453557Y-154598942D01*
X204376058Y-154521443D01*
X204274800Y-154479500D01*
X204165200Y-154479500D01*
X204165199Y-154479500D01*
X204063940Y-154521444D01*
X203986444Y-154598940D01*
X203944501Y-154700198D01*
X203944500Y-154700200D01*
X202934078Y-154700200D01*
X202933557Y-154698942D01*
X202856058Y-154621443D01*
X202754800Y-154579500D01*
X202645200Y-154579500D01*
X202645199Y-154579500D01*
X202543940Y-154621444D01*
X202466444Y-154698940D01*
X202466443Y-154698941D01*
X202466443Y-154698942D01*
X202458319Y-154718555D01*
X202428705Y-154790049D01*
X202424500Y-154800200D01*
X193275500Y-154800200D01*
X193275500Y-154320200D01*
X194124500Y-154320200D01*
X194124500Y-154429800D01*
X194166443Y-154531058D01*
X194243942Y-154608557D01*
X194345200Y-154650500D01*
X194345201Y-154650500D01*
X194454799Y-154650500D01*
X194454800Y-154650500D01*
X194556058Y-154608557D01*
X194633557Y-154531058D01*
X194675500Y-154429800D01*
X194675500Y-154320200D01*
X194633557Y-154218942D01*
X194556058Y-154141443D01*
X194454800Y-154099500D01*
X194345200Y-154099500D01*
X194345199Y-154099500D01*
X194243940Y-154141444D01*
X194166444Y-154218940D01*
X194129323Y-154308557D01*
X194124500Y-154320200D01*
X193275500Y-154320200D01*
X193275500Y-152320200D01*
X199524500Y-152320200D01*
X199524500Y-152429800D01*
X199566443Y-152531058D01*
X199643942Y-152608557D01*
X199745200Y-152650500D01*
X199745201Y-152650500D01*
X199854799Y-152650500D01*
X199854800Y-152650500D01*
X199956058Y-152608557D01*
X200033557Y-152531058D01*
X200075500Y-152429800D01*
X200075500Y-152320200D01*
X200033557Y-152218942D01*
X199956058Y-152141443D01*
X199854800Y-152099500D01*
X199745200Y-152099500D01*
X199745199Y-152099500D01*
X199643940Y-152141444D01*
X199566444Y-152218940D01*
X199566443Y-152218941D01*
X199566443Y-152218942D01*
X199524500Y-152320200D01*
X193275500Y-152320200D01*
X193275500Y-150599003D01*
X196594500Y-150599003D01*
X196594500Y-151151002D01*
X196596910Y-151173426D01*
X196608117Y-151224938D01*
X196631474Y-151271600D01*
X196643286Y-151285231D01*
X196677229Y-151324403D01*
X196727237Y-151356541D01*
X196794276Y-151376226D01*
X196824000Y-151380500D01*
X199676770Y-151380500D01*
X199743809Y-151400185D01*
X199789564Y-151452989D01*
X199797936Y-151478140D01*
X199808117Y-151524938D01*
X199831474Y-151571600D01*
X199854151Y-151597770D01*
X199877229Y-151624403D01*
X199927237Y-151656541D01*
X199994276Y-151676226D01*
X200024000Y-151680500D01*
X200024004Y-151680500D01*
X205676000Y-151680500D01*
X205698427Y-151678089D01*
X205749938Y-151666883D01*
X205796599Y-151643526D01*
X205849403Y-151597771D01*
X205881541Y-151547763D01*
X205901226Y-151480724D01*
X205905500Y-151451000D01*
X205905500Y-151199000D01*
X205903089Y-151176573D01*
X205891883Y-151125062D01*
X205868526Y-151078401D01*
X205868525Y-151078399D01*
X205822770Y-151025596D01*
X205797767Y-151009528D01*
X205772763Y-150993459D01*
X205705729Y-150973775D01*
X205705725Y-150973774D01*
X205705724Y-150973774D01*
X205676000Y-150969500D01*
X205675996Y-150969500D01*
X200629500Y-150969500D01*
X200562461Y-150949815D01*
X200516706Y-150897011D01*
X200505500Y-150845500D01*
X200505500Y-150220200D01*
X204924500Y-150220200D01*
X204924500Y-150329800D01*
X204966443Y-150431058D01*
X205043942Y-150508557D01*
X205145200Y-150550500D01*
X205145201Y-150550500D01*
X205254799Y-150550500D01*
X205254800Y-150550500D01*
X205356058Y-150508557D01*
X205433557Y-150431058D01*
X205475500Y-150329800D01*
X205475500Y-150220200D01*
X205433557Y-150118942D01*
X205411819Y-150097204D01*
X205397115Y-150070276D01*
X205380523Y-150044458D01*
X205379631Y-150038257D01*
X205378334Y-150035881D01*
X205375500Y-150009523D01*
X205375500Y-149920200D01*
X205824500Y-149920200D01*
X205824500Y-150029800D01*
X205866443Y-150131058D01*
X205943942Y-150208557D01*
X206045200Y-150250500D01*
X206045201Y-150250500D01*
X206154799Y-150250500D01*
X206154800Y-150250500D01*
X206256058Y-150208557D01*
X206333557Y-150131058D01*
X206375500Y-150029800D01*
X206375500Y-149920200D01*
X206333557Y-149818942D01*
X206256058Y-149741443D01*
X206154800Y-149699500D01*
X206045200Y-149699500D01*
X206045199Y-149699500D01*
X205943940Y-149741444D01*
X205866444Y-149818940D01*
X205839288Y-149884500D01*
X205824500Y-149920200D01*
X205375500Y-149920200D01*
X205375500Y-148720200D01*
X205824500Y-148720200D01*
X205824500Y-148829800D01*
X205866443Y-148931058D01*
X205943942Y-149008557D01*
X206045200Y-149050500D01*
X206045201Y-149050500D01*
X206154799Y-149050500D01*
X206154800Y-149050500D01*
X206256058Y-149008557D01*
X206333557Y-148931058D01*
X206375500Y-148829800D01*
X206375500Y-148720200D01*
X206333557Y-148618942D01*
X206256058Y-148541443D01*
X206154800Y-148499500D01*
X206045200Y-148499500D01*
X206045199Y-148499500D01*
X205943940Y-148541444D01*
X205866444Y-148618940D01*
X205825115Y-148718716D01*
X205824500Y-148720200D01*
X205375500Y-148720200D01*
X205375500Y-148299057D01*
X205395185Y-148232018D01*
X205411819Y-148211376D01*
X205736376Y-147886819D01*
X205797699Y-147853334D01*
X205824057Y-147850500D01*
X210250635Y-147850500D01*
X210275485Y-147857796D01*
X210301157Y-147861259D01*
X210308466Y-147867481D01*
X210317674Y-147870185D01*
X210334632Y-147889756D01*
X210354360Y-147906550D01*
X210357144Y-147915736D01*
X210363429Y-147922989D01*
X210367115Y-147948625D01*
X210374630Y-147973415D01*
X210372359Y-147985097D01*
X210373373Y-147992147D01*
X210369913Y-148008392D01*
X210367102Y-148018282D01*
X210366443Y-148018942D01*
X210324500Y-148120200D01*
X210324500Y-148168216D01*
X210319778Y-148184835D01*
X210309987Y-148200367D01*
X210304815Y-148217982D01*
X210288181Y-148238624D01*
X206363624Y-152163181D01*
X206302301Y-152196666D01*
X206275943Y-152199500D01*
X205465477Y-152199500D01*
X205398438Y-152179815D01*
X205377796Y-152163181D01*
X205356059Y-152141444D01*
X205356058Y-152141443D01*
X205254800Y-152099500D01*
X205145200Y-152099500D01*
X205145199Y-152099500D01*
X205043940Y-152141444D01*
X204966444Y-152218940D01*
X204966443Y-152218941D01*
X204966443Y-152218942D01*
X204924500Y-152320200D01*
X204924500Y-152429800D01*
X204966443Y-152531058D01*
X205043942Y-152608557D01*
X205145200Y-152650500D01*
X205145201Y-152650500D01*
X205254799Y-152650500D01*
X205254800Y-152650500D01*
X205356058Y-152608557D01*
X205377796Y-152586819D01*
X205404723Y-152572115D01*
X205430542Y-152555523D01*
X205436742Y-152554631D01*
X205439119Y-152553334D01*
X205465477Y-152550500D01*
X205609213Y-152550500D01*
X205676252Y-152570185D01*
X205722007Y-152622989D01*
X205731951Y-152692147D01*
X205725148Y-152716941D01*
X205724500Y-152720199D01*
X205724500Y-152720200D01*
X205724500Y-152829800D01*
X205766443Y-152931058D01*
X205843942Y-153008557D01*
X205945200Y-153050500D01*
X205945201Y-153050500D01*
X206054799Y-153050500D01*
X206054800Y-153050500D01*
X206156058Y-153008557D01*
X206177796Y-152986819D01*
X206239119Y-152953334D01*
X206265477Y-152950500D01*
X206834907Y-152950500D01*
X206834909Y-152950500D01*
X206899413Y-152923782D01*
X207702994Y-152120200D01*
X211924500Y-152120200D01*
X211924500Y-152229800D01*
X211966443Y-152331058D01*
X212043942Y-152408557D01*
X212145200Y-152450500D01*
X212145201Y-152450500D01*
X212254799Y-152450500D01*
X212254800Y-152450500D01*
X212356058Y-152408557D01*
X212433557Y-152331058D01*
X212475500Y-152229800D01*
X212475500Y-152120200D01*
X212433557Y-152018942D01*
X212356058Y-151941443D01*
X212254800Y-151899500D01*
X212145200Y-151899500D01*
X212145199Y-151899500D01*
X212043940Y-151941444D01*
X211966444Y-152018940D01*
X211966443Y-152018941D01*
X211966443Y-152018942D01*
X211954533Y-152047694D01*
X211933259Y-152099055D01*
X211924500Y-152120200D01*
X207702994Y-152120200D01*
X209318107Y-150505085D01*
X209379429Y-150471602D01*
X209449121Y-150476586D01*
X209505054Y-150518458D01*
X209529471Y-150583922D01*
X209524014Y-150617649D01*
X209526883Y-150618220D01*
X209524500Y-150630199D01*
X209524500Y-150630200D01*
X209524500Y-150739800D01*
X209566443Y-150841058D01*
X209643942Y-150918557D01*
X209745200Y-150960500D01*
X209745201Y-150960500D01*
X209854799Y-150960500D01*
X209854800Y-150960500D01*
X209956058Y-150918557D01*
X210033557Y-150841058D01*
X210075500Y-150739800D01*
X210075500Y-150630200D01*
X210033557Y-150528942D01*
X209956058Y-150451443D01*
X209854800Y-150409500D01*
X209745200Y-150409500D01*
X209745199Y-150409500D01*
X209733220Y-150411883D01*
X209732409Y-150407809D01*
X209685655Y-150412800D01*
X209623201Y-150381476D01*
X209587595Y-150321359D01*
X209590143Y-150251536D01*
X209609517Y-150220200D01*
X210724500Y-150220200D01*
X210724500Y-150329800D01*
X210766443Y-150431058D01*
X210843942Y-150508557D01*
X210945200Y-150550500D01*
X210945201Y-150550500D01*
X211054799Y-150550500D01*
X211054800Y-150550500D01*
X211156058Y-150508557D01*
X211233557Y-150431058D01*
X211275500Y-150329800D01*
X211275500Y-150220200D01*
X211233557Y-150118942D01*
X211156058Y-150041443D01*
X211054800Y-149999500D01*
X210945200Y-149999500D01*
X210945199Y-149999500D01*
X210843940Y-150041444D01*
X210766444Y-150118940D01*
X210729323Y-150208557D01*
X210724500Y-150220200D01*
X209609517Y-150220200D01*
X209620083Y-150203110D01*
X210915286Y-148907906D01*
X210976607Y-148874423D01*
X211046299Y-148879407D01*
X211102232Y-148921279D01*
X211126649Y-148986743D01*
X211124584Y-149019770D01*
X211124500Y-149020192D01*
X211124500Y-149020199D01*
X211124500Y-149020200D01*
X211124500Y-149129800D01*
X211166443Y-149231058D01*
X211243942Y-149308557D01*
X211345200Y-149350500D01*
X211345201Y-149350500D01*
X211454799Y-149350500D01*
X211454800Y-149350500D01*
X211556058Y-149308557D01*
X211633557Y-149231058D01*
X211675500Y-149129800D01*
X211675500Y-149020200D01*
X211633557Y-148918942D01*
X211556058Y-148841443D01*
X211454800Y-148799500D01*
X211345200Y-148799500D01*
X211345197Y-148799500D01*
X211344775Y-148799584D01*
X211343837Y-148799500D01*
X211332987Y-148799500D01*
X211332987Y-148798528D01*
X211275184Y-148793352D01*
X211220009Y-148750486D01*
X211196768Y-148684595D01*
X211205003Y-148633073D01*
X211214452Y-148608742D01*
X211248782Y-148574413D01*
X211275500Y-148509909D01*
X211275500Y-148451558D01*
X211283912Y-148429899D01*
X211291377Y-148420200D01*
X213924500Y-148420200D01*
X213924500Y-148529800D01*
X213966443Y-148631058D01*
X214043942Y-148708557D01*
X214145200Y-148750500D01*
X214145201Y-148750500D01*
X214254799Y-148750500D01*
X214254800Y-148750500D01*
X214356058Y-148708557D01*
X214433557Y-148631058D01*
X214475500Y-148529800D01*
X214475500Y-148420200D01*
X214433557Y-148318942D01*
X214356058Y-148241443D01*
X214254800Y-148199500D01*
X214145200Y-148199500D01*
X214145199Y-148199500D01*
X214043940Y-148241444D01*
X213966444Y-148318940D01*
X213929323Y-148408557D01*
X213924500Y-148420200D01*
X211291377Y-148420200D01*
X211291623Y-148419881D01*
X211295185Y-148407752D01*
X211311819Y-148387110D01*
X211333557Y-148365372D01*
X211375500Y-148264114D01*
X211375500Y-148154514D01*
X211369526Y-148140091D01*
X211362013Y-148121953D01*
X211354544Y-148052484D01*
X211385819Y-147990005D01*
X211445907Y-147954352D01*
X211476574Y-147950500D01*
X211554799Y-147950500D01*
X211554800Y-147950500D01*
X211656058Y-147908557D01*
X211733557Y-147831058D01*
X211775500Y-147729800D01*
X211775500Y-147620200D01*
X211733557Y-147518942D01*
X211656058Y-147441443D01*
X211554800Y-147399500D01*
X211445200Y-147399500D01*
X211445199Y-147399500D01*
X211343940Y-147441444D01*
X211322204Y-147463181D01*
X211260881Y-147496666D01*
X211234523Y-147499500D01*
X205749351Y-147499500D01*
X205749343Y-147499499D01*
X205734909Y-147499499D01*
X205665091Y-147499499D01*
X205665090Y-147499499D01*
X205600584Y-147526219D01*
X205100587Y-148026218D01*
X205051218Y-148075586D01*
X205024500Y-148140091D01*
X205024500Y-150009523D01*
X205021279Y-150020492D01*
X205022471Y-150031862D01*
X205011237Y-150065320D01*
X205002271Y-150083113D01*
X204966443Y-150118942D01*
X204924500Y-150220200D01*
X200505500Y-150220200D01*
X200505500Y-149320200D01*
X204024500Y-149320200D01*
X204024500Y-149429800D01*
X204066443Y-149531058D01*
X204143942Y-149608557D01*
X204245200Y-149650500D01*
X204245201Y-149650500D01*
X204354799Y-149650500D01*
X204354800Y-149650500D01*
X204456058Y-149608557D01*
X204533557Y-149531058D01*
X204575500Y-149429800D01*
X204575500Y-149320200D01*
X204533557Y-149218942D01*
X204456058Y-149141443D01*
X204354800Y-149099500D01*
X204245200Y-149099500D01*
X204245199Y-149099500D01*
X204200156Y-149118158D01*
X204153889Y-149137323D01*
X204143940Y-149141444D01*
X204066444Y-149218940D01*
X204066443Y-149218941D01*
X204066443Y-149218942D01*
X204061424Y-149231058D01*
X204029323Y-149308557D01*
X204024500Y-149320200D01*
X200505500Y-149320200D01*
X200505500Y-147104500D01*
X200525185Y-147037461D01*
X200577989Y-146991706D01*
X200629500Y-146980500D01*
X212070500Y-146980500D01*
X212137539Y-147000185D01*
X212183294Y-147052989D01*
X212194500Y-147104500D01*
X212194500Y-147951002D01*
X212196910Y-147973426D01*
X212208117Y-148024938D01*
X212231474Y-148071600D01*
X212254151Y-148097770D01*
X212277229Y-148124403D01*
X212327237Y-148156541D01*
X212394276Y-148176226D01*
X212424000Y-148180500D01*
X212424004Y-148180500D01*
X212976000Y-148180500D01*
X212998427Y-148178089D01*
X213049938Y-148166883D01*
X213096599Y-148143526D01*
X213149403Y-148097771D01*
X213181541Y-148047763D01*
X213201226Y-147980724D01*
X213205500Y-147951000D01*
X213205500Y-146599000D01*
X213203089Y-146576573D01*
X213191883Y-146525062D01*
X213168526Y-146478401D01*
X213168525Y-146478399D01*
X213122770Y-146425596D01*
X213093015Y-146406474D01*
X213072763Y-146393459D01*
X213005729Y-146373775D01*
X213005725Y-146373774D01*
X213005724Y-146373774D01*
X212976000Y-146369500D01*
X212975996Y-146369500D01*
X209419500Y-146369500D01*
X209352461Y-146349815D01*
X209306706Y-146297011D01*
X209295500Y-146245500D01*
X209295500Y-146140201D01*
X209295500Y-146140200D01*
X209253557Y-146038942D01*
X209176058Y-145961443D01*
X209074800Y-145919500D01*
X208965200Y-145919500D01*
X208965199Y-145919500D01*
X208863940Y-145961444D01*
X208786444Y-146038940D01*
X208744500Y-146140199D01*
X208744500Y-146245500D01*
X208724815Y-146312539D01*
X208672011Y-146358294D01*
X208620500Y-146369500D01*
X204574500Y-146369500D01*
X204507461Y-146349815D01*
X204461706Y-146297011D01*
X204450500Y-146245500D01*
X204450500Y-146170201D01*
X204450500Y-146170200D01*
X204408557Y-146068942D01*
X204331058Y-145991443D01*
X204229800Y-145949500D01*
X204120200Y-145949500D01*
X204120199Y-145949500D01*
X204018940Y-145991444D01*
X203941444Y-146068940D01*
X203899500Y-146170199D01*
X203899500Y-146245500D01*
X203879815Y-146312539D01*
X203827011Y-146358294D01*
X203775500Y-146369500D01*
X200023997Y-146369500D01*
X200001573Y-146371910D01*
X199950061Y-146383117D01*
X199903399Y-146406474D01*
X199850596Y-146452229D01*
X199818460Y-146502235D01*
X199818459Y-146502236D01*
X199798775Y-146569270D01*
X199798774Y-146569275D01*
X199798774Y-146569276D01*
X199794501Y-146598997D01*
X199794500Y-146599003D01*
X199794500Y-150245500D01*
X199774815Y-150312539D01*
X199722011Y-150358294D01*
X199670500Y-150369500D01*
X196823997Y-150369500D01*
X196801573Y-150371910D01*
X196750061Y-150383117D01*
X196703399Y-150406474D01*
X196650596Y-150452229D01*
X196618460Y-150502235D01*
X196618459Y-150502236D01*
X196598775Y-150569270D01*
X196594500Y-150599003D01*
X193275500Y-150599003D01*
X193275500Y-149624057D01*
X193295185Y-149557018D01*
X193311819Y-149536376D01*
X193677995Y-149170200D01*
X196024500Y-149170200D01*
X196024500Y-149279800D01*
X196066443Y-149381058D01*
X196143942Y-149458557D01*
X196245200Y-149500500D01*
X196245201Y-149500500D01*
X196354799Y-149500500D01*
X196354800Y-149500500D01*
X196456058Y-149458557D01*
X196533557Y-149381058D01*
X196575500Y-149279800D01*
X196575500Y-149220200D01*
X198374500Y-149220200D01*
X198374500Y-149329800D01*
X198416443Y-149431058D01*
X198493942Y-149508557D01*
X198595200Y-149550500D01*
X198595201Y-149550500D01*
X198704799Y-149550500D01*
X198704800Y-149550500D01*
X198806058Y-149508557D01*
X198883557Y-149431058D01*
X198925500Y-149329800D01*
X198925500Y-149220200D01*
X198883557Y-149118942D01*
X198806058Y-149041443D01*
X198704800Y-148999500D01*
X198595200Y-148999500D01*
X198595199Y-148999500D01*
X198493940Y-149041444D01*
X198416444Y-149118940D01*
X198416443Y-149118941D01*
X198416443Y-149118942D01*
X198408830Y-149137322D01*
X198395211Y-149170201D01*
X198374500Y-149220200D01*
X196575500Y-149220200D01*
X196575500Y-149170200D01*
X196533557Y-149068942D01*
X196456058Y-148991443D01*
X196354800Y-148949500D01*
X196245200Y-148949500D01*
X196245199Y-148949500D01*
X196143940Y-148991444D01*
X196066444Y-149068940D01*
X196032187Y-149151643D01*
X196024500Y-149170200D01*
X193677995Y-149170200D01*
X194877995Y-147970200D01*
X196349500Y-147970200D01*
X196349500Y-148079800D01*
X196391443Y-148181058D01*
X196468942Y-148258557D01*
X196570200Y-148300500D01*
X196570201Y-148300500D01*
X196679799Y-148300500D01*
X196679800Y-148300500D01*
X196781058Y-148258557D01*
X196858557Y-148181058D01*
X196900500Y-148079800D01*
X196900500Y-147970200D01*
X196858557Y-147868942D01*
X196781058Y-147791443D01*
X196679800Y-147749500D01*
X196570200Y-147749500D01*
X196570199Y-147749500D01*
X196498596Y-147779159D01*
X196471398Y-147790426D01*
X196468940Y-147791444D01*
X196391444Y-147868940D01*
X196391443Y-147868941D01*
X196391443Y-147868942D01*
X196381768Y-147892300D01*
X196356065Y-147954352D01*
X196349500Y-147970200D01*
X194877995Y-147970200D01*
X196502995Y-146345200D01*
X198724500Y-146345200D01*
X198724500Y-146454800D01*
X198766443Y-146556058D01*
X198843942Y-146633557D01*
X198945200Y-146675500D01*
X198945201Y-146675500D01*
X199054799Y-146675500D01*
X199054800Y-146675500D01*
X199156058Y-146633557D01*
X199233557Y-146556058D01*
X199275500Y-146454800D01*
X199275500Y-146345200D01*
X199233557Y-146243942D01*
X199156058Y-146166443D01*
X199054800Y-146124500D01*
X198945200Y-146124500D01*
X198945199Y-146124500D01*
X198843940Y-146166444D01*
X198766444Y-146243940D01*
X198766443Y-146243941D01*
X198766443Y-146243942D01*
X198724500Y-146345200D01*
X196502995Y-146345200D01*
X197452995Y-145395200D01*
X198724500Y-145395200D01*
X198724500Y-145504800D01*
X198766443Y-145606058D01*
X198843942Y-145683557D01*
X198945200Y-145725500D01*
X198945201Y-145725500D01*
X199054799Y-145725500D01*
X199054800Y-145725500D01*
X199156058Y-145683557D01*
X199233557Y-145606058D01*
X199275500Y-145504800D01*
X199275500Y-145395200D01*
X199233557Y-145293942D01*
X199156058Y-145216443D01*
X199054800Y-145174500D01*
X198945200Y-145174500D01*
X198945199Y-145174500D01*
X198843940Y-145216444D01*
X198766444Y-145293940D01*
X198766443Y-145293941D01*
X198766443Y-145293942D01*
X198724500Y-145395200D01*
X197452995Y-145395200D01*
X198452995Y-144395200D01*
X201374500Y-144395200D01*
X201374500Y-144504800D01*
X201416443Y-144606058D01*
X201493942Y-144683557D01*
X201595200Y-144725500D01*
X201595201Y-144725500D01*
X201704799Y-144725500D01*
X201704800Y-144725500D01*
X201806058Y-144683557D01*
X201883557Y-144606058D01*
X201925500Y-144504800D01*
X201925500Y-144395200D01*
X201883557Y-144293942D01*
X201806058Y-144216443D01*
X201704800Y-144174500D01*
X201595200Y-144174500D01*
X201595199Y-144174500D01*
X201493940Y-144216444D01*
X201416444Y-144293940D01*
X201386412Y-144366443D01*
X201374500Y-144395200D01*
X198452995Y-144395200D01*
X199340495Y-143507700D01*
X199837000Y-143507700D01*
X199837000Y-143617300D01*
X199878943Y-143718558D01*
X199956442Y-143796057D01*
X200057700Y-143838000D01*
X200057701Y-143838000D01*
X200167299Y-143838000D01*
X200167300Y-143838000D01*
X200268558Y-143796057D01*
X200346057Y-143718558D01*
X200388000Y-143617300D01*
X200388000Y-143507700D01*
X200346057Y-143406442D01*
X200268558Y-143328943D01*
X200167300Y-143287000D01*
X200057700Y-143287000D01*
X200057699Y-143287000D01*
X199956440Y-143328944D01*
X199878944Y-143406440D01*
X199843403Y-143492243D01*
X199837000Y-143507700D01*
X199340495Y-143507700D01*
X199602995Y-143245200D01*
X212824500Y-143245200D01*
X212824500Y-143354800D01*
X212866443Y-143456058D01*
X212943942Y-143533557D01*
X213045200Y-143575500D01*
X213045201Y-143575500D01*
X213154799Y-143575500D01*
X213154800Y-143575500D01*
X213256058Y-143533557D01*
X213333557Y-143456058D01*
X213375500Y-143354800D01*
X213375500Y-143245200D01*
X213333557Y-143143942D01*
X213256058Y-143066443D01*
X213154800Y-143024500D01*
X213045200Y-143024500D01*
X213045199Y-143024500D01*
X212943940Y-143066444D01*
X212866444Y-143143940D01*
X212866443Y-143143941D01*
X212866443Y-143143942D01*
X212824500Y-143245200D01*
X199602995Y-143245200D01*
X200252995Y-142595200D01*
X203074500Y-142595200D01*
X203074500Y-142704800D01*
X203116443Y-142806058D01*
X203193942Y-142883557D01*
X203295200Y-142925500D01*
X203295201Y-142925500D01*
X203404799Y-142925500D01*
X203404800Y-142925500D01*
X203506058Y-142883557D01*
X203583557Y-142806058D01*
X203625500Y-142704800D01*
X203625500Y-142595200D01*
X203583557Y-142493942D01*
X203506058Y-142416443D01*
X203404800Y-142374500D01*
X203295200Y-142374500D01*
X203295199Y-142374500D01*
X203193940Y-142416444D01*
X203116444Y-142493940D01*
X203116443Y-142493941D01*
X203116443Y-142493942D01*
X203074500Y-142595200D01*
X200252995Y-142595200D01*
X201961376Y-140886819D01*
X202022699Y-140853334D01*
X202049057Y-140850500D01*
X207029907Y-140850500D01*
X207029909Y-140850500D01*
X207094413Y-140823782D01*
X207854817Y-140063376D01*
X207916138Y-140029893D01*
X207974586Y-140031283D01*
X208120943Y-140070500D01*
X208120946Y-140070500D01*
X208279055Y-140070500D01*
X208279057Y-140070500D01*
X208431784Y-140029577D01*
X208568716Y-139950520D01*
X208680520Y-139838716D01*
X208759577Y-139701784D01*
X208800500Y-139549057D01*
X208800500Y-139390943D01*
X208759577Y-139238216D01*
X208754533Y-139229480D01*
X208693238Y-139123311D01*
X208676765Y-139055411D01*
X208699618Y-138989384D01*
X208754539Y-138946194D01*
X208776434Y-138939695D01*
X208797540Y-138935496D01*
X208797544Y-138935494D01*
X208880239Y-138880239D01*
X208935494Y-138797544D01*
X208935496Y-138797540D01*
X208949999Y-138724628D01*
X208950000Y-138724626D01*
X208950000Y-138325000D01*
X208502970Y-138325000D01*
X208525000Y-138242787D01*
X208525000Y-138157213D01*
X208502970Y-138075000D01*
X208950000Y-138075000D01*
X208950000Y-137675373D01*
X208949999Y-137675371D01*
X208935496Y-137602459D01*
X208935494Y-137602455D01*
X208880239Y-137519760D01*
X208797544Y-137464505D01*
X208797540Y-137464503D01*
X208724627Y-137450000D01*
X208325000Y-137450000D01*
X208325000Y-137897029D01*
X208242787Y-137875000D01*
X208157213Y-137875000D01*
X208075000Y-137897029D01*
X208075000Y-137450000D01*
X207675373Y-137450000D01*
X207602459Y-137464503D01*
X207602455Y-137464505D01*
X207519760Y-137519760D01*
X207464505Y-137602455D01*
X207464503Y-137602458D01*
X207460304Y-137623569D01*
X207427916Y-137685479D01*
X207367199Y-137720051D01*
X207297430Y-137716309D01*
X207276688Y-137706762D01*
X207161784Y-137640423D01*
X207009057Y-137599500D01*
X206850943Y-137599500D01*
X206698216Y-137640423D01*
X206698209Y-137640426D01*
X206561290Y-137719475D01*
X206561282Y-137719481D01*
X206449481Y-137831282D01*
X206449477Y-137831287D01*
X206402387Y-137912851D01*
X206351820Y-137961067D01*
X206283213Y-137974290D01*
X206218348Y-137948322D01*
X206187613Y-137912851D01*
X206140522Y-137831287D01*
X206140518Y-137831282D01*
X206028717Y-137719481D01*
X206028709Y-137719475D01*
X205891790Y-137640426D01*
X205891786Y-137640424D01*
X205891784Y-137640423D01*
X205739057Y-137599500D01*
X205580943Y-137599500D01*
X205428216Y-137640423D01*
X205428209Y-137640426D01*
X205291290Y-137719475D01*
X205291282Y-137719481D01*
X205179481Y-137831282D01*
X205179477Y-137831287D01*
X205132387Y-137912851D01*
X205081820Y-137961067D01*
X205013213Y-137974290D01*
X204948348Y-137948322D01*
X204917613Y-137912851D01*
X204870522Y-137831287D01*
X204870518Y-137831282D01*
X204758717Y-137719481D01*
X204758709Y-137719475D01*
X204621790Y-137640426D01*
X204621786Y-137640424D01*
X204621784Y-137640423D01*
X204469057Y-137599500D01*
X204310943Y-137599500D01*
X204158216Y-137640423D01*
X204158209Y-137640426D01*
X204021290Y-137719475D01*
X204021282Y-137719481D01*
X203909481Y-137831282D01*
X203909477Y-137831287D01*
X203862387Y-137912851D01*
X203811820Y-137961067D01*
X203743213Y-137974290D01*
X203678348Y-137948322D01*
X203647613Y-137912851D01*
X203600522Y-137831287D01*
X203600518Y-137831282D01*
X203488717Y-137719481D01*
X203488709Y-137719475D01*
X203351790Y-137640426D01*
X203351786Y-137640424D01*
X203351784Y-137640423D01*
X203199057Y-137599500D01*
X203040943Y-137599500D01*
X202888216Y-137640423D01*
X202888209Y-137640426D01*
X202751290Y-137719475D01*
X202751282Y-137719481D01*
X202639481Y-137831282D01*
X202639475Y-137831290D01*
X202560426Y-137968209D01*
X202560423Y-137968216D01*
X202519500Y-138120943D01*
X202519500Y-138279057D01*
X202531811Y-138325000D01*
X202560423Y-138431783D01*
X202560426Y-138431790D01*
X202639475Y-138568709D01*
X202639479Y-138568714D01*
X202639480Y-138568716D01*
X202751284Y-138680520D01*
X202751285Y-138680521D01*
X202751287Y-138680522D01*
X202832851Y-138727613D01*
X202881067Y-138778180D01*
X202894290Y-138846787D01*
X202868322Y-138911652D01*
X202832851Y-138942387D01*
X202751287Y-138989477D01*
X202751282Y-138989481D01*
X202639481Y-139101282D01*
X202639475Y-139101290D01*
X202563723Y-139232499D01*
X202513157Y-139280715D01*
X202456336Y-139294500D01*
X202295091Y-139294500D01*
X202230586Y-139321218D01*
X202181217Y-139370588D01*
X192083146Y-149468658D01*
X192051218Y-149500586D01*
X192024500Y-149565091D01*
X192024500Y-157463323D01*
X192021279Y-157474292D01*
X192022471Y-157485662D01*
X192011237Y-157519120D01*
X192002271Y-157536913D01*
X191966443Y-157572742D01*
X191924500Y-157674000D01*
X182800500Y-157674000D01*
X182800500Y-151720200D01*
X190924500Y-151720200D01*
X190924500Y-151829800D01*
X190966443Y-151931058D01*
X191043942Y-152008557D01*
X191145200Y-152050500D01*
X191145201Y-152050500D01*
X191254799Y-152050500D01*
X191254800Y-152050500D01*
X191356058Y-152008557D01*
X191433557Y-151931058D01*
X191475500Y-151829800D01*
X191475500Y-151720200D01*
X191433557Y-151618942D01*
X191356058Y-151541443D01*
X191254800Y-151499500D01*
X191145200Y-151499500D01*
X191145199Y-151499500D01*
X191043940Y-151541444D01*
X190966444Y-151618940D01*
X190942263Y-151677318D01*
X190924500Y-151720200D01*
X182800500Y-151720200D01*
X182800500Y-148270943D01*
X184249500Y-148270943D01*
X184249500Y-148429057D01*
X184276494Y-148529798D01*
X184290423Y-148581783D01*
X184290426Y-148581790D01*
X184369475Y-148718709D01*
X184369479Y-148718714D01*
X184369480Y-148718716D01*
X184481284Y-148830520D01*
X184481286Y-148830521D01*
X184481290Y-148830524D01*
X184568592Y-148880927D01*
X184618216Y-148909577D01*
X184770943Y-148950500D01*
X184770945Y-148950500D01*
X185729055Y-148950500D01*
X185729057Y-148950500D01*
X185881784Y-148909577D01*
X186018716Y-148830520D01*
X186130520Y-148718716D01*
X186209577Y-148581784D01*
X186250500Y-148429057D01*
X186250500Y-148270943D01*
X188279500Y-148270943D01*
X188279500Y-148429057D01*
X188306494Y-148529798D01*
X188320423Y-148581783D01*
X188320426Y-148581790D01*
X188399475Y-148718709D01*
X188399479Y-148718714D01*
X188399480Y-148718716D01*
X188511284Y-148830520D01*
X188511286Y-148830521D01*
X188511290Y-148830524D01*
X188598592Y-148880927D01*
X188648216Y-148909577D01*
X188800943Y-148950500D01*
X188800945Y-148950500D01*
X190059055Y-148950500D01*
X190059057Y-148950500D01*
X190211784Y-148909577D01*
X190348716Y-148830520D01*
X190460520Y-148718716D01*
X190539577Y-148581784D01*
X190580500Y-148429057D01*
X190580500Y-148270943D01*
X190539577Y-148118216D01*
X190517397Y-148079798D01*
X190460524Y-147981290D01*
X190460518Y-147981282D01*
X190348717Y-147869481D01*
X190348709Y-147869475D01*
X190211790Y-147790426D01*
X190211786Y-147790424D01*
X190211784Y-147790423D01*
X190182961Y-147782700D01*
X190924500Y-147782700D01*
X190924500Y-147892300D01*
X190966443Y-147993558D01*
X191043942Y-148071057D01*
X191145200Y-148113000D01*
X191145201Y-148113000D01*
X191254799Y-148113000D01*
X191254800Y-148113000D01*
X191356058Y-148071057D01*
X191433557Y-147993558D01*
X191475500Y-147892300D01*
X191475500Y-147782700D01*
X191433557Y-147681442D01*
X191356058Y-147603943D01*
X191254800Y-147562000D01*
X191145200Y-147562000D01*
X191145199Y-147562000D01*
X191043940Y-147603944D01*
X190966444Y-147681440D01*
X190966443Y-147681441D01*
X190966443Y-147681442D01*
X190924500Y-147782700D01*
X190182961Y-147782700D01*
X190059057Y-147749500D01*
X188800943Y-147749500D01*
X188648216Y-147790423D01*
X188648209Y-147790426D01*
X188511290Y-147869475D01*
X188511282Y-147869481D01*
X188399481Y-147981282D01*
X188399475Y-147981290D01*
X188320426Y-148118209D01*
X188320423Y-148118216D01*
X188279500Y-148270943D01*
X186250500Y-148270943D01*
X186209577Y-148118216D01*
X186187397Y-148079798D01*
X186130524Y-147981290D01*
X186130518Y-147981282D01*
X186018717Y-147869481D01*
X186018709Y-147869475D01*
X185881790Y-147790426D01*
X185881786Y-147790424D01*
X185881784Y-147790423D01*
X185729057Y-147749500D01*
X184770943Y-147749500D01*
X184618216Y-147790423D01*
X184618209Y-147790426D01*
X184481290Y-147869475D01*
X184481282Y-147869481D01*
X184369481Y-147981282D01*
X184369475Y-147981290D01*
X184290426Y-148118209D01*
X184290423Y-148118216D01*
X184249500Y-148270943D01*
X182800500Y-148270943D01*
X182800500Y-146863982D01*
X188504500Y-146863982D01*
X188504500Y-146976018D01*
X188533497Y-147084237D01*
X188589515Y-147181263D01*
X188668737Y-147260485D01*
X188765763Y-147316503D01*
X188873982Y-147345500D01*
X188873984Y-147345500D01*
X188986016Y-147345500D01*
X188986018Y-147345500D01*
X189094237Y-147316503D01*
X189191263Y-147260485D01*
X189270485Y-147181263D01*
X189326503Y-147084237D01*
X189355500Y-146976018D01*
X189355500Y-146863982D01*
X189326503Y-146755763D01*
X189270485Y-146658737D01*
X189191263Y-146579515D01*
X189094237Y-146523497D01*
X188986018Y-146494500D01*
X188873982Y-146494500D01*
X188765763Y-146523497D01*
X188765760Y-146523498D01*
X188668740Y-146579513D01*
X188668734Y-146579517D01*
X188589517Y-146658734D01*
X188589513Y-146658740D01*
X188533498Y-146755760D01*
X188533497Y-146755763D01*
X188504500Y-146863982D01*
X182800500Y-146863982D01*
X182800500Y-145725200D01*
X193424500Y-145725200D01*
X193424500Y-145834800D01*
X193466443Y-145936058D01*
X193543942Y-146013557D01*
X193645200Y-146055500D01*
X193645201Y-146055500D01*
X193754799Y-146055500D01*
X193754800Y-146055500D01*
X193856058Y-146013557D01*
X193933557Y-145936058D01*
X193975500Y-145834800D01*
X193975500Y-145725200D01*
X193933557Y-145623942D01*
X193856058Y-145546443D01*
X193754800Y-145504500D01*
X193645200Y-145504500D01*
X193645199Y-145504500D01*
X193543940Y-145546444D01*
X193466444Y-145623940D01*
X193466443Y-145623941D01*
X193466443Y-145623942D01*
X193424500Y-145725200D01*
X182800500Y-145725200D01*
X182800500Y-144545200D01*
X195724500Y-144545200D01*
X195724500Y-144654800D01*
X195766443Y-144756058D01*
X195843942Y-144833557D01*
X195945200Y-144875500D01*
X195945201Y-144875500D01*
X196054799Y-144875500D01*
X196054800Y-144875500D01*
X196156058Y-144833557D01*
X196233557Y-144756058D01*
X196275500Y-144654800D01*
X196275500Y-144545200D01*
X196233557Y-144443942D01*
X196156058Y-144366443D01*
X196054800Y-144324500D01*
X195945200Y-144324500D01*
X195945199Y-144324500D01*
X195843940Y-144366444D01*
X195766444Y-144443940D01*
X195766443Y-144443941D01*
X195766443Y-144443942D01*
X195724500Y-144545200D01*
X182800500Y-144545200D01*
X182800500Y-143695200D01*
X195874500Y-143695200D01*
X195874500Y-143804800D01*
X195916443Y-143906058D01*
X195993942Y-143983557D01*
X196095200Y-144025500D01*
X196095201Y-144025500D01*
X196204799Y-144025500D01*
X196204800Y-144025500D01*
X196306058Y-143983557D01*
X196383557Y-143906058D01*
X196425500Y-143804800D01*
X196425500Y-143695200D01*
X196383557Y-143593942D01*
X196306058Y-143516443D01*
X196204800Y-143474500D01*
X196095200Y-143474500D01*
X196095199Y-143474500D01*
X195993940Y-143516444D01*
X195916444Y-143593940D01*
X195916443Y-143593941D01*
X195916443Y-143593942D01*
X195906768Y-143617300D01*
X195884577Y-143670873D01*
X195874500Y-143695200D01*
X182800500Y-143695200D01*
X182800500Y-142725200D01*
X193424500Y-142725200D01*
X193424500Y-142834800D01*
X193466443Y-142936058D01*
X193543942Y-143013557D01*
X193645200Y-143055500D01*
X193645201Y-143055500D01*
X193754799Y-143055500D01*
X193754800Y-143055500D01*
X193856058Y-143013557D01*
X193933557Y-142936058D01*
X193975500Y-142834800D01*
X193975500Y-142725200D01*
X193933557Y-142623942D01*
X193856058Y-142546443D01*
X193754800Y-142504500D01*
X193645200Y-142504500D01*
X193645199Y-142504500D01*
X193543940Y-142546444D01*
X193466444Y-142623940D01*
X193466443Y-142623941D01*
X193466443Y-142623942D01*
X193424500Y-142725200D01*
X182800500Y-142725200D01*
X182800500Y-141083982D01*
X188504500Y-141083982D01*
X188504500Y-141196018D01*
X188533497Y-141304237D01*
X188589515Y-141401263D01*
X188668737Y-141480485D01*
X188765763Y-141536503D01*
X188873982Y-141565500D01*
X188873984Y-141565500D01*
X188986016Y-141565500D01*
X188986018Y-141565500D01*
X189094237Y-141536503D01*
X189191263Y-141480485D01*
X189270485Y-141401263D01*
X189326503Y-141304237D01*
X189355500Y-141196018D01*
X189355500Y-141083982D01*
X189326503Y-140975763D01*
X189323291Y-140970200D01*
X196924500Y-140970200D01*
X196924500Y-141079800D01*
X196966443Y-141181058D01*
X197043942Y-141258557D01*
X197145200Y-141300500D01*
X197145201Y-141300500D01*
X197254799Y-141300500D01*
X197254800Y-141300500D01*
X197356058Y-141258557D01*
X197433557Y-141181058D01*
X197475500Y-141079800D01*
X197475500Y-140970200D01*
X197433557Y-140868942D01*
X197356058Y-140791443D01*
X197254800Y-140749500D01*
X197145200Y-140749500D01*
X197145199Y-140749500D01*
X197043940Y-140791444D01*
X196966444Y-140868940D01*
X196966443Y-140868941D01*
X196966443Y-140868942D01*
X196924500Y-140970200D01*
X189323291Y-140970200D01*
X189270485Y-140878737D01*
X189191263Y-140799515D01*
X189126579Y-140762169D01*
X189094239Y-140743498D01*
X189094238Y-140743497D01*
X189094237Y-140743497D01*
X188986018Y-140714500D01*
X188873982Y-140714500D01*
X188765763Y-140743497D01*
X188765760Y-140743498D01*
X188668740Y-140799513D01*
X188668734Y-140799517D01*
X188589517Y-140878734D01*
X188589513Y-140878740D01*
X188533498Y-140975760D01*
X188533498Y-140975761D01*
X188533497Y-140975763D01*
X188504500Y-141083982D01*
X182800500Y-141083982D01*
X182800500Y-139630943D01*
X184249500Y-139630943D01*
X184249500Y-139789057D01*
X184262807Y-139838717D01*
X184290423Y-139941783D01*
X184290426Y-139941790D01*
X184369475Y-140078709D01*
X184369479Y-140078714D01*
X184369480Y-140078716D01*
X184481284Y-140190520D01*
X184481286Y-140190521D01*
X184481290Y-140190524D01*
X184565178Y-140238956D01*
X184618216Y-140269577D01*
X184770943Y-140310500D01*
X184770945Y-140310500D01*
X185729055Y-140310500D01*
X185729057Y-140310500D01*
X185881784Y-140269577D01*
X186018716Y-140190520D01*
X186130520Y-140078716D01*
X186209577Y-139941784D01*
X186250500Y-139789057D01*
X186250500Y-139630943D01*
X188279500Y-139630943D01*
X188279500Y-139789057D01*
X188292807Y-139838717D01*
X188320423Y-139941783D01*
X188320426Y-139941790D01*
X188399475Y-140078709D01*
X188399479Y-140078714D01*
X188399480Y-140078716D01*
X188511284Y-140190520D01*
X188511286Y-140190521D01*
X188511290Y-140190524D01*
X188595178Y-140238956D01*
X188648216Y-140269577D01*
X188800943Y-140310500D01*
X188800945Y-140310500D01*
X190059055Y-140310500D01*
X190059057Y-140310500D01*
X190211784Y-140269577D01*
X190348716Y-140190520D01*
X190394036Y-140145200D01*
X194724500Y-140145200D01*
X194724500Y-140254800D01*
X194766443Y-140356058D01*
X194843942Y-140433557D01*
X194945200Y-140475500D01*
X194945201Y-140475500D01*
X195054799Y-140475500D01*
X195054800Y-140475500D01*
X195156058Y-140433557D01*
X195233557Y-140356058D01*
X195275500Y-140254800D01*
X195275500Y-140145200D01*
X195233557Y-140043942D01*
X195156058Y-139966443D01*
X195054800Y-139924500D01*
X194945200Y-139924500D01*
X194945199Y-139924500D01*
X194843940Y-139966444D01*
X194766444Y-140043940D01*
X194766443Y-140043941D01*
X194766443Y-140043942D01*
X194724500Y-140145200D01*
X190394036Y-140145200D01*
X190460520Y-140078716D01*
X190465264Y-140070500D01*
X190488892Y-140029573D01*
X190539577Y-139941784D01*
X190580500Y-139789057D01*
X190580500Y-139630943D01*
X190539577Y-139478216D01*
X190489192Y-139390945D01*
X190460524Y-139341290D01*
X190460518Y-139341282D01*
X190348717Y-139229481D01*
X190348709Y-139229475D01*
X190211790Y-139150426D01*
X190211786Y-139150424D01*
X190211784Y-139150423D01*
X190059057Y-139109500D01*
X188800943Y-139109500D01*
X188648216Y-139150423D01*
X188648209Y-139150426D01*
X188511290Y-139229475D01*
X188511282Y-139229481D01*
X188399481Y-139341282D01*
X188399475Y-139341290D01*
X188320426Y-139478209D01*
X188320423Y-139478216D01*
X188279500Y-139630943D01*
X186250500Y-139630943D01*
X186209577Y-139478216D01*
X186159192Y-139390945D01*
X186130524Y-139341290D01*
X186130518Y-139341282D01*
X186018717Y-139229481D01*
X186018709Y-139229475D01*
X185881790Y-139150426D01*
X185881786Y-139150424D01*
X185881784Y-139150423D01*
X185729057Y-139109500D01*
X184770943Y-139109500D01*
X184618216Y-139150423D01*
X184618209Y-139150426D01*
X184481290Y-139229475D01*
X184481282Y-139229481D01*
X184369481Y-139341282D01*
X184369475Y-139341290D01*
X184290426Y-139478209D01*
X184290423Y-139478216D01*
X184249500Y-139630943D01*
X182800500Y-139630943D01*
X182800500Y-137275098D01*
X224749500Y-137275098D01*
X224749500Y-138994894D01*
X224749501Y-138994902D01*
X224755330Y-139024212D01*
X224777542Y-139057457D01*
X224794219Y-139068599D01*
X224810787Y-139079669D01*
X224810790Y-139079669D01*
X224810791Y-139079670D01*
X224820647Y-139081630D01*
X224840101Y-139085500D01*
X226559898Y-139085499D01*
X226589213Y-139079669D01*
X226622457Y-139057457D01*
X226644669Y-139024213D01*
X226650500Y-138994899D01*
X226650499Y-137275102D01*
X226644669Y-137245787D01*
X226644668Y-137245785D01*
X226622457Y-137212542D01*
X226589214Y-137190332D01*
X226589215Y-137190332D01*
X226589213Y-137190331D01*
X226589211Y-137190330D01*
X226589208Y-137190329D01*
X226559901Y-137184500D01*
X224840105Y-137184500D01*
X224840097Y-137184501D01*
X224810787Y-137190330D01*
X224777542Y-137212542D01*
X224755332Y-137245785D01*
X224755329Y-137245791D01*
X224749500Y-137275098D01*
X182800500Y-137275098D01*
X182800500Y-136883127D01*
X182801561Y-136866942D01*
X182811982Y-136787786D01*
X182811983Y-136787784D01*
X182820359Y-136756522D01*
X182847776Y-136690331D01*
X182863960Y-136662300D01*
X182907574Y-136605462D01*
X182930462Y-136582574D01*
X182987300Y-136538960D01*
X183015331Y-136522776D01*
X183081522Y-136495359D01*
X183112783Y-136486982D01*
X183168781Y-136479610D01*
X183191942Y-136476561D01*
X183208127Y-136475500D01*
X186152725Y-136475500D01*
X186152727Y-136475500D01*
X186254587Y-136448207D01*
X186309309Y-136416612D01*
X186371309Y-136400000D01*
X190028691Y-136400000D01*
X190090690Y-136416612D01*
G37*
%TD.AperFunction*%
%TD*%
M02*
