%TF.GenerationSoftware,KiCad,Pcbnew,9.0.1+1*%
%TF.CreationDate,2025-09-06T09:54:06+00:00*%
%TF.ProjectId,ZSWatch-Heartrate-DevKit,5a535761-7463-4682-9d48-656172747261,1.3.0*%
%TF.SameCoordinates,Original*%
%TF.FileFunction,Copper,L3,Inr*%
%TF.FilePolarity,Positive*%
%FSLAX46Y46*%
G04 Gerber Fmt 4.6, Leading zero omitted, Abs format (unit mm)*
G04 Created by KiCad (PCBNEW 9.0.1+1) date 2025-09-06 09:54:06*
%MOMM*%
%LPD*%
G01*
G04 APERTURE LIST*
%TA.AperFunction,ComponentPad*%
%ADD10O,2.100000X1.000000*%
%TD*%
%TA.AperFunction,ComponentPad*%
%ADD11O,1.800000X1.000000*%
%TD*%
%TA.AperFunction,ComponentPad*%
%ADD12R,1.700000X1.700000*%
%TD*%
%TA.AperFunction,ComponentPad*%
%ADD13C,1.700000*%
%TD*%
%TA.AperFunction,ComponentPad*%
%ADD14R,1.000000X1.000000*%
%TD*%
%TA.AperFunction,ComponentPad*%
%ADD15C,1.000000*%
%TD*%
%TA.AperFunction,ViaPad*%
%ADD16C,0.350000*%
%TD*%
%TA.AperFunction,Conductor*%
%ADD17C,0.150000*%
%TD*%
G04 APERTURE END LIST*
D10*
%TO.N,GND*%
%TO.C,X401*%
X189430000Y-139710000D03*
D11*
X185250000Y-139710000D03*
D10*
X189430000Y-148350000D03*
D11*
X185250000Y-148350000D03*
%TD*%
D12*
%TO.N,GND*%
%TO.C,J402*%
X225700000Y-138135000D03*
D13*
%TO.N,Net-(IC404-SCLK_{SENSOR})*%
X225700000Y-140675000D03*
%TO.N,Net-(IC404-MISO_{SENSOR})*%
X225700000Y-143215000D03*
%TO.N,Net-(IC404-MOSI_{SENSOR})*%
X225700000Y-145755000D03*
%TO.N,Net-(IC404-CS_{PPG})*%
X225700000Y-148295000D03*
%TO.N,Net-(IC404-CS_{ACC})*%
X225700000Y-150835000D03*
%TO.N,/Project Architecture/Main/STATUS*%
X225700000Y-153375000D03*
%TD*%
D12*
%TO.N,/Project Architecture/Main/SDA*%
%TO.C,J401*%
X225700000Y-156975000D03*
D13*
%TO.N,/Project Architecture/Main/SCL*%
X225700000Y-159515000D03*
%TO.N,/Project Architecture/Main/~{RESET_{HR}}*%
X225700000Y-162055000D03*
%TO.N,GND*%
X225700000Y-164595000D03*
%TD*%
D14*
%TO.N,+1V8*%
%TO.C,X403*%
X208200000Y-138200000D03*
D15*
%TO.N,/Project Architecture/Main/SWDIO*%
X208200000Y-139470000D03*
%TO.N,GND*%
X206930000Y-138200000D03*
%TO.N,/Project Architecture/Main/SWDCLK*%
X206930000Y-139470000D03*
%TO.N,GND*%
X205660000Y-138200000D03*
%TO.N,unconnected-(X403-SWO{slash}TDO-Pad6)*%
X205660000Y-139470000D03*
%TO.N,unconnected-(X403-KEY-Pad7)*%
X204390000Y-138200000D03*
%TO.N,unconnected-(X403-NC{slash}TDI-Pad8)*%
X204390000Y-139470000D03*
%TO.N,unconnected-(X403-GNDDetect-Pad9)*%
X203120000Y-138200000D03*
%TO.N,/Project Architecture/Main/~{RESET}*%
X203120000Y-139470000D03*
%TD*%
D16*
%TO.N,GND*%
X206250000Y-154725000D03*
X190250000Y-158600000D03*
X196625000Y-148025000D03*
X198650000Y-149275000D03*
X202700000Y-154855000D03*
X198234400Y-163700000D03*
X193700000Y-145780000D03*
X220100000Y-155000000D03*
X195000000Y-140200000D03*
X199800000Y-152375000D03*
X220100000Y-147575000D03*
X196300000Y-149225000D03*
X209020000Y-146195000D03*
X206000000Y-157675000D03*
X204220000Y-154755000D03*
X214600000Y-155650000D03*
X196000000Y-144600000D03*
X203350000Y-142650000D03*
X190300000Y-162224600D03*
X200112500Y-143562500D03*
X204175000Y-146225000D03*
X193700000Y-142780000D03*
X214200000Y-148475000D03*
X196150000Y-143750000D03*
X212210000Y-160875000D03*
X195700000Y-164600000D03*
X199000000Y-145450000D03*
X201650000Y-144450000D03*
X212500000Y-157600000D03*
X212200000Y-152175000D03*
X196800000Y-157131200D03*
X212400000Y-158975000D03*
X191200000Y-151775000D03*
X214600000Y-156650000D03*
%TO.N,+1V8*%
X207050000Y-157475000D03*
X212775000Y-155000000D03*
X199800000Y-153335000D03*
X204125000Y-141950000D03*
X198800000Y-147675000D03*
X218000000Y-162975000D03*
X213090000Y-157210000D03*
X197700000Y-164600000D03*
X209980000Y-146195000D03*
%TO.N,PD_GND*%
X206100000Y-148775000D03*
X211000000Y-150275000D03*
X206100000Y-149975000D03*
%TO.N,/Project Architecture/Main/V_{LED}*%
X197100000Y-150875000D03*
X205500000Y-151375000D03*
X204300000Y-151375000D03*
X212700000Y-147675000D03*
%TO.N,/Project Architecture/Main/V_{BAT}*%
X197200000Y-141025000D03*
X191200000Y-147837500D03*
%TO.N,/Project Architecture/Main/INT_{ACC}*%
X201200000Y-155354998D03*
X212140000Y-155890000D03*
%TO.N,/Project Architecture/Main/SCL*%
X203200000Y-158175000D03*
X197563000Y-158175000D03*
%TO.N,/Project Architecture/Main/SDA*%
X203553800Y-157728800D03*
X198900000Y-157728800D03*
%TO.N,/Project Architecture/Main/~{RESET_{HR}}*%
X211190000Y-162055000D03*
%TO.N,/Project Architecture/Main/STATUS*%
X209010000Y-161275000D03*
%TO.N,/Project Architecture/Main/CHARGE*%
X199000000Y-146400000D03*
X194400000Y-154375000D03*
%TO.N,/Project Architecture/Main/SWDIO*%
X193100000Y-155500000D03*
%TO.N,/Project Architecture/Main/SWDCLK*%
X192621000Y-154475000D03*
%TO.N,/Project Architecture/Main/~{RESET}*%
X192200000Y-157728800D03*
X192200000Y-165475000D03*
%TO.N,Net-(D402-K)*%
X209800000Y-150685000D03*
%TO.N,Net-(D403-K)*%
X204300000Y-149375000D03*
%TO.N,Net-(IC404-SCLK_{SENSOR})*%
X205200000Y-156875000D03*
X208400000Y-156180000D03*
X214400000Y-152875000D03*
%TO.N,Net-(IC404-MOSI_{SENSOR})*%
X207400000Y-155867500D03*
X213600000Y-153675000D03*
%TO.N,Net-(IC404-CS_{PPG})*%
X213200000Y-154075000D03*
%TO.N,Net-(IC404-CS_{ACC})*%
X201187500Y-156475000D03*
X209629999Y-160075000D03*
%TO.N,Net-(IC404-INT_{PPG})*%
X211190000Y-154485000D03*
X211400000Y-149075000D03*
%TO.N,Net-(IC404-MISO_{SENSOR})*%
X214000000Y-153275000D03*
X206300000Y-156375000D03*
%TO.N,Net-(IC405-LED3-DRV)*%
X211500000Y-147675000D03*
X205200000Y-150275000D03*
%TO.N,Net-(IC405-LED1-DRV)*%
X205200000Y-152375000D03*
X210600000Y-148175000D03*
%TO.N,Net-(IC405-LED2-DRV)*%
X206000000Y-152775000D03*
X211100000Y-148209314D03*
%TO.N,Net-(M401-P2.03)*%
X213100000Y-143300000D03*
X196202400Y-156400000D03*
%TD*%
D17*
%TO.N,Net-(IC404-INT_{PPG})*%
X211400000Y-154275000D02*
X211400000Y-149075000D01*
X211190000Y-154485000D02*
X211400000Y-154275000D01*
%TD*%
%TA.AperFunction,Conductor*%
%TO.N,PD_GND*%
G36*
X210300000Y-150675000D02*
G01*
X210400000Y-150675000D01*
X210400000Y-153912500D01*
X210381694Y-153956694D01*
X210337500Y-153975000D01*
X200462500Y-153975000D01*
X200418306Y-153956694D01*
X200400000Y-153912500D01*
X200400000Y-152735170D01*
X205697500Y-152735170D01*
X205697500Y-152814829D01*
X205718115Y-152891761D01*
X205718115Y-152891763D01*
X205757939Y-152960738D01*
X205757944Y-152960744D01*
X205814255Y-153017055D01*
X205814261Y-153017060D01*
X205883239Y-153056885D01*
X205927654Y-153068786D01*
X205960170Y-153077499D01*
X205960173Y-153077499D01*
X205960175Y-153077500D01*
X205960176Y-153077500D01*
X206039824Y-153077500D01*
X206039825Y-153077500D01*
X206116761Y-153056885D01*
X206185739Y-153017060D01*
X206242060Y-152960739D01*
X206281885Y-152891761D01*
X206302500Y-152814825D01*
X206302500Y-152735175D01*
X206281885Y-152658239D01*
X206281884Y-152658237D01*
X206281884Y-152658236D01*
X206242060Y-152589261D01*
X206242055Y-152589255D01*
X206185744Y-152532944D01*
X206185738Y-152532939D01*
X206116762Y-152493115D01*
X206039829Y-152472500D01*
X206039825Y-152472500D01*
X205960175Y-152472500D01*
X205960170Y-152472500D01*
X205883238Y-152493115D01*
X205883236Y-152493115D01*
X205814261Y-152532939D01*
X205814255Y-152532944D01*
X205757944Y-152589255D01*
X205757939Y-152589261D01*
X205718115Y-152658236D01*
X205718115Y-152658238D01*
X205697500Y-152735170D01*
X200400000Y-152735170D01*
X200400000Y-152335170D01*
X204897500Y-152335170D01*
X204897500Y-152414829D01*
X204918115Y-152491761D01*
X204918115Y-152491763D01*
X204957939Y-152560738D01*
X204957944Y-152560744D01*
X205014255Y-152617055D01*
X205014261Y-152617060D01*
X205083239Y-152656885D01*
X205127654Y-152668786D01*
X205160170Y-152677499D01*
X205160173Y-152677499D01*
X205160175Y-152677500D01*
X205160176Y-152677500D01*
X205239824Y-152677500D01*
X205239825Y-152677500D01*
X205239829Y-152677499D01*
X205265170Y-152670709D01*
X205265170Y-152670708D01*
X205316761Y-152656885D01*
X205385739Y-152617060D01*
X205442060Y-152560739D01*
X205481885Y-152491761D01*
X205502500Y-152414825D01*
X205502500Y-152335175D01*
X205481885Y-152258239D01*
X205481884Y-152258237D01*
X205481884Y-152258236D01*
X205442060Y-152189261D01*
X205442055Y-152189255D01*
X205385744Y-152132944D01*
X205385738Y-152132939D01*
X205316762Y-152093115D01*
X205239829Y-152072500D01*
X205239825Y-152072500D01*
X205160175Y-152072500D01*
X205160170Y-152072500D01*
X205083238Y-152093115D01*
X205083236Y-152093115D01*
X205014261Y-152132939D01*
X205014255Y-152132944D01*
X204957944Y-152189255D01*
X204957939Y-152189261D01*
X204918115Y-152258236D01*
X204918115Y-152258238D01*
X204897500Y-152335170D01*
X200400000Y-152335170D01*
X200400000Y-151335170D01*
X203997500Y-151335170D01*
X203997500Y-151414829D01*
X204018115Y-151491761D01*
X204018115Y-151491763D01*
X204057939Y-151560738D01*
X204057944Y-151560744D01*
X204114255Y-151617055D01*
X204114261Y-151617060D01*
X204183239Y-151656885D01*
X204227654Y-151668786D01*
X204260170Y-151677499D01*
X204260173Y-151677499D01*
X204260175Y-151677500D01*
X204260176Y-151677500D01*
X204339824Y-151677500D01*
X204339825Y-151677500D01*
X204416761Y-151656885D01*
X204485739Y-151617060D01*
X204542060Y-151560739D01*
X204581885Y-151491761D01*
X204602500Y-151414825D01*
X204602500Y-151335175D01*
X204602499Y-151335170D01*
X205197500Y-151335170D01*
X205197500Y-151414829D01*
X205218115Y-151491761D01*
X205218115Y-151491763D01*
X205257939Y-151560738D01*
X205257944Y-151560744D01*
X205314255Y-151617055D01*
X205314261Y-151617060D01*
X205383239Y-151656885D01*
X205427654Y-151668786D01*
X205460170Y-151677499D01*
X205460173Y-151677499D01*
X205460175Y-151677500D01*
X205460176Y-151677500D01*
X205539824Y-151677500D01*
X205539825Y-151677500D01*
X205616761Y-151656885D01*
X205685739Y-151617060D01*
X205742060Y-151560739D01*
X205781885Y-151491761D01*
X205802500Y-151414825D01*
X205802500Y-151335175D01*
X205781885Y-151258239D01*
X205781884Y-151258237D01*
X205781884Y-151258236D01*
X205742060Y-151189261D01*
X205742055Y-151189255D01*
X205685744Y-151132944D01*
X205685738Y-151132939D01*
X205616762Y-151093115D01*
X205539829Y-151072500D01*
X205539825Y-151072500D01*
X205460175Y-151072500D01*
X205460170Y-151072500D01*
X205383238Y-151093115D01*
X205383236Y-151093115D01*
X205314261Y-151132939D01*
X205314255Y-151132944D01*
X205257944Y-151189255D01*
X205257939Y-151189261D01*
X205218115Y-151258236D01*
X205218115Y-151258238D01*
X205197500Y-151335170D01*
X204602499Y-151335170D01*
X204581885Y-151258239D01*
X204581884Y-151258237D01*
X204581884Y-151258236D01*
X204542060Y-151189261D01*
X204542055Y-151189255D01*
X204485744Y-151132944D01*
X204485738Y-151132939D01*
X204416762Y-151093115D01*
X204339829Y-151072500D01*
X204339825Y-151072500D01*
X204260175Y-151072500D01*
X204260170Y-151072500D01*
X204183238Y-151093115D01*
X204183236Y-151093115D01*
X204114261Y-151132939D01*
X204114255Y-151132944D01*
X204057944Y-151189255D01*
X204057939Y-151189261D01*
X204018115Y-151258236D01*
X204018115Y-151258238D01*
X203997500Y-151335170D01*
X200400000Y-151335170D01*
X200400000Y-150645170D01*
X209497500Y-150645170D01*
X209497500Y-150724829D01*
X209518115Y-150801761D01*
X209518115Y-150801763D01*
X209557939Y-150870738D01*
X209557944Y-150870744D01*
X209614255Y-150927055D01*
X209614261Y-150927060D01*
X209683239Y-150966885D01*
X209727654Y-150978786D01*
X209760170Y-150987499D01*
X209760173Y-150987499D01*
X209760175Y-150987500D01*
X209760176Y-150987500D01*
X209839824Y-150987500D01*
X209839825Y-150987500D01*
X209916761Y-150966885D01*
X209985739Y-150927060D01*
X210042060Y-150870739D01*
X210081885Y-150801761D01*
X210102500Y-150724825D01*
X210102500Y-150645175D01*
X210081885Y-150568239D01*
X210081884Y-150568237D01*
X210081884Y-150568236D01*
X210042060Y-150499261D01*
X210042055Y-150499255D01*
X209985744Y-150442944D01*
X209985738Y-150442939D01*
X209916762Y-150403115D01*
X209839829Y-150382500D01*
X209839825Y-150382500D01*
X209760175Y-150382500D01*
X209760170Y-150382500D01*
X209683238Y-150403115D01*
X209683236Y-150403115D01*
X209614261Y-150442939D01*
X209614255Y-150442944D01*
X209557944Y-150499255D01*
X209557939Y-150499261D01*
X209518115Y-150568236D01*
X209518115Y-150568238D01*
X209497500Y-150645170D01*
X200400000Y-150645170D01*
X200400000Y-150235170D01*
X204897500Y-150235170D01*
X204897500Y-150314829D01*
X204918115Y-150391761D01*
X204918115Y-150391763D01*
X204957939Y-150460738D01*
X204957944Y-150460744D01*
X205014255Y-150517055D01*
X205014261Y-150517060D01*
X205083239Y-150556885D01*
X205125601Y-150568236D01*
X205160170Y-150577499D01*
X205160173Y-150577499D01*
X205160175Y-150577500D01*
X205160176Y-150577500D01*
X205239824Y-150577500D01*
X205239825Y-150577500D01*
X205316761Y-150556885D01*
X205385739Y-150517060D01*
X205442060Y-150460739D01*
X205481885Y-150391761D01*
X205502500Y-150314825D01*
X205502500Y-150235175D01*
X205481885Y-150158239D01*
X205481884Y-150158237D01*
X205481884Y-150158236D01*
X205442060Y-150089261D01*
X205442055Y-150089255D01*
X205385744Y-150032944D01*
X205385738Y-150032939D01*
X205316762Y-149993115D01*
X205239829Y-149972500D01*
X205239825Y-149972500D01*
X205160175Y-149972500D01*
X205160170Y-149972500D01*
X205083238Y-149993115D01*
X205083236Y-149993115D01*
X205014261Y-150032939D01*
X205014255Y-150032944D01*
X204957944Y-150089255D01*
X204957939Y-150089261D01*
X204918115Y-150158236D01*
X204918115Y-150158238D01*
X204897500Y-150235170D01*
X200400000Y-150235170D01*
X200400000Y-149335170D01*
X203997500Y-149335170D01*
X203997500Y-149414829D01*
X204018115Y-149491761D01*
X204018115Y-149491763D01*
X204057939Y-149560738D01*
X204057944Y-149560744D01*
X204114255Y-149617055D01*
X204114261Y-149617060D01*
X204183239Y-149656885D01*
X204227654Y-149668786D01*
X204260170Y-149677499D01*
X204260173Y-149677499D01*
X204260175Y-149677500D01*
X204260176Y-149677500D01*
X204339824Y-149677500D01*
X204339825Y-149677500D01*
X204416761Y-149656885D01*
X204485739Y-149617060D01*
X204542060Y-149560739D01*
X204581885Y-149491761D01*
X204602500Y-149414825D01*
X204602500Y-149335175D01*
X204581885Y-149258239D01*
X204581884Y-149258237D01*
X204581884Y-149258236D01*
X204542060Y-149189261D01*
X204542055Y-149189255D01*
X204485744Y-149132944D01*
X204485738Y-149132939D01*
X204416762Y-149093115D01*
X204339829Y-149072500D01*
X204339825Y-149072500D01*
X204260175Y-149072500D01*
X204260170Y-149072500D01*
X204183238Y-149093115D01*
X204183236Y-149093115D01*
X204114261Y-149132939D01*
X204114255Y-149132944D01*
X204057944Y-149189255D01*
X204057939Y-149189261D01*
X204018115Y-149258236D01*
X204018115Y-149258238D01*
X203997500Y-149335170D01*
X200400000Y-149335170D01*
X200400000Y-148537500D01*
X200418306Y-148493306D01*
X200462500Y-148475000D01*
X210300000Y-148475000D01*
X210300000Y-150675000D01*
G37*
%TD.AperFunction*%
%TD*%
%TA.AperFunction,Conductor*%
%TO.N,PD_GND*%
G36*
X211002514Y-148476128D02*
G01*
X211012098Y-148475942D01*
X211028772Y-148478009D01*
X211045200Y-148484814D01*
X211083659Y-148484814D01*
X211091257Y-148485756D01*
X211116574Y-148496728D01*
X211143039Y-148504499D01*
X211148170Y-148510421D01*
X211155365Y-148513539D01*
X211170731Y-148536458D01*
X211188794Y-148557303D01*
X211189909Y-148565060D01*
X211194275Y-148571572D01*
X211200000Y-148608814D01*
X211200000Y-148834023D01*
X211180315Y-148901062D01*
X211169048Y-148915043D01*
X211166444Y-148918940D01*
X211166443Y-148918941D01*
X211166443Y-148918942D01*
X211124500Y-149020200D01*
X211124500Y-149129800D01*
X211166443Y-149231058D01*
X211166444Y-149231059D01*
X211173228Y-149241212D01*
X211171400Y-149242433D01*
X211197166Y-149289619D01*
X211200000Y-149315977D01*
X211200000Y-150551000D01*
X211180315Y-150618039D01*
X211127511Y-150663794D01*
X211076000Y-150675000D01*
X210300000Y-150675000D01*
X210300000Y-148475000D01*
X210996841Y-148475000D01*
X211002514Y-148476128D01*
G37*
%TD.AperFunction*%
%TD*%
%TA.AperFunction,Conductor*%
%TO.N,GND*%
G36*
X190090690Y-136416612D02*
G01*
X190145413Y-136448207D01*
X190247273Y-136475500D01*
X190247275Y-136475500D01*
X220152725Y-136475500D01*
X220152727Y-136475500D01*
X220254587Y-136448207D01*
X220309309Y-136416612D01*
X220371309Y-136400000D01*
X224028691Y-136400000D01*
X224090690Y-136416612D01*
X224145413Y-136448207D01*
X224247273Y-136475500D01*
X224280009Y-136475500D01*
X227173071Y-136475500D01*
X227191873Y-136475500D01*
X227208058Y-136476561D01*
X227243134Y-136481178D01*
X227287214Y-136486982D01*
X227318479Y-136495359D01*
X227384665Y-136522774D01*
X227412699Y-136538960D01*
X227469537Y-136582574D01*
X227492425Y-136605462D01*
X227536039Y-136662300D01*
X227552225Y-136690335D01*
X227579639Y-136756519D01*
X227588017Y-136787784D01*
X227598439Y-136866940D01*
X227599500Y-136883127D01*
X227599500Y-165891872D01*
X227598439Y-165908059D01*
X227588017Y-165987215D01*
X227579639Y-166018480D01*
X227552225Y-166084664D01*
X227536039Y-166112699D01*
X227492425Y-166169537D01*
X227469537Y-166192425D01*
X227412699Y-166236039D01*
X227384664Y-166252225D01*
X227318480Y-166279639D01*
X227287215Y-166288017D01*
X227224008Y-166296339D01*
X227208057Y-166298439D01*
X227191873Y-166299500D01*
X224247273Y-166299500D01*
X224145413Y-166326793D01*
X224145410Y-166326794D01*
X224086783Y-166360642D01*
X224054087Y-166379520D01*
X224054086Y-166379520D01*
X224047390Y-166383387D01*
X223985390Y-166400000D01*
X220442755Y-166400000D01*
X220375716Y-166380315D01*
X220355074Y-166363681D01*
X220345914Y-166354521D01*
X220345913Y-166354520D01*
X220254587Y-166301793D01*
X220152727Y-166274500D01*
X220119991Y-166274500D01*
X190326929Y-166274500D01*
X190300000Y-166274500D01*
X190247273Y-166274500D01*
X190145413Y-166301793D01*
X190145410Y-166301794D01*
X190054085Y-166354521D01*
X190044926Y-166363681D01*
X189983603Y-166397166D01*
X189957245Y-166400000D01*
X186414610Y-166400000D01*
X186352610Y-166383387D01*
X186345914Y-166379521D01*
X186345913Y-166379520D01*
X186254587Y-166326793D01*
X186152727Y-166299500D01*
X186152726Y-166299500D01*
X183208127Y-166299500D01*
X183191942Y-166298439D01*
X183172563Y-166295887D01*
X183112784Y-166288017D01*
X183081519Y-166279639D01*
X183015335Y-166252225D01*
X182987300Y-166236039D01*
X182930462Y-166192425D01*
X182907574Y-166169537D01*
X182863960Y-166112699D01*
X182847774Y-166084664D01*
X182820360Y-166018480D01*
X182811982Y-165987213D01*
X182801561Y-165908057D01*
X182800500Y-165891872D01*
X182800500Y-165420200D01*
X191924500Y-165420200D01*
X191924500Y-165529800D01*
X191966443Y-165631058D01*
X192043942Y-165708557D01*
X192145200Y-165750500D01*
X192145201Y-165750500D01*
X192254799Y-165750500D01*
X192254800Y-165750500D01*
X192356058Y-165708557D01*
X192433557Y-165631058D01*
X192475500Y-165529800D01*
X192475500Y-165420200D01*
X192433557Y-165318942D01*
X192356058Y-165241443D01*
X192254800Y-165199500D01*
X192145200Y-165199500D01*
X192145199Y-165199500D01*
X192043940Y-165241444D01*
X191966444Y-165318940D01*
X191966443Y-165318941D01*
X191966443Y-165318942D01*
X191924500Y-165420200D01*
X182800500Y-165420200D01*
X182800500Y-164545200D01*
X197424500Y-164545200D01*
X197424500Y-164654800D01*
X197466443Y-164756058D01*
X197543942Y-164833557D01*
X197645200Y-164875500D01*
X197645201Y-164875500D01*
X197754799Y-164875500D01*
X197754800Y-164875500D01*
X197856058Y-164833557D01*
X197933557Y-164756058D01*
X197975500Y-164654800D01*
X197975500Y-164545200D01*
X197975499Y-164545199D01*
X197975499Y-164545196D01*
X197969757Y-164531334D01*
X197969756Y-164531332D01*
X197952119Y-164488753D01*
X224350000Y-164488753D01*
X224350000Y-164701246D01*
X224383242Y-164911127D01*
X224383242Y-164911130D01*
X224448904Y-165113217D01*
X224545375Y-165302550D01*
X224584728Y-165356716D01*
X225217037Y-164724408D01*
X225234075Y-164787993D01*
X225299901Y-164902007D01*
X225392993Y-164995099D01*
X225507007Y-165060925D01*
X225570590Y-165077962D01*
X224938282Y-165710269D01*
X224938282Y-165710270D01*
X224992449Y-165749624D01*
X225181782Y-165846095D01*
X225383870Y-165911757D01*
X225593754Y-165945000D01*
X225806246Y-165945000D01*
X226016127Y-165911757D01*
X226016130Y-165911757D01*
X226218217Y-165846095D01*
X226407554Y-165749622D01*
X226461716Y-165710270D01*
X226461717Y-165710270D01*
X225829408Y-165077962D01*
X225892993Y-165060925D01*
X226007007Y-164995099D01*
X226100099Y-164902007D01*
X226165925Y-164787993D01*
X226182962Y-164724409D01*
X226815270Y-165356717D01*
X226815270Y-165356716D01*
X226854622Y-165302554D01*
X226951095Y-165113217D01*
X227016757Y-164911130D01*
X227016757Y-164911127D01*
X227050000Y-164701246D01*
X227050000Y-164488753D01*
X227016757Y-164278872D01*
X227016757Y-164278869D01*
X226951095Y-164076782D01*
X226854624Y-163887449D01*
X226815270Y-163833282D01*
X226815269Y-163833282D01*
X226182962Y-164465590D01*
X226165925Y-164402007D01*
X226100099Y-164287993D01*
X226007007Y-164194901D01*
X225892993Y-164129075D01*
X225829409Y-164112037D01*
X226461716Y-163479728D01*
X226407550Y-163440375D01*
X226218217Y-163343904D01*
X226016128Y-163278242D01*
X225814730Y-163246343D01*
X225751595Y-163216414D01*
X225714664Y-163157102D01*
X225715662Y-163087239D01*
X225754272Y-163029007D01*
X225809933Y-163002254D01*
X225977251Y-162968973D01*
X226150231Y-162897322D01*
X226305908Y-162793302D01*
X226438302Y-162660908D01*
X226542322Y-162505231D01*
X226613973Y-162332251D01*
X226650500Y-162148616D01*
X226650500Y-161961384D01*
X226613973Y-161777749D01*
X226542322Y-161604769D01*
X226542321Y-161604768D01*
X226542318Y-161604762D01*
X226438302Y-161449092D01*
X226438299Y-161449088D01*
X226305911Y-161316700D01*
X226305907Y-161316697D01*
X226150237Y-161212681D01*
X226150228Y-161212676D01*
X225977251Y-161141027D01*
X225977243Y-161141025D01*
X225793620Y-161104500D01*
X225793616Y-161104500D01*
X225606384Y-161104500D01*
X225606379Y-161104500D01*
X225422756Y-161141025D01*
X225422748Y-161141027D01*
X225249771Y-161212676D01*
X225249762Y-161212681D01*
X225094092Y-161316697D01*
X225094088Y-161316700D01*
X224961700Y-161449088D01*
X224961697Y-161449092D01*
X224857681Y-161604762D01*
X224857676Y-161604771D01*
X224786027Y-161777748D01*
X224786025Y-161777756D01*
X224749500Y-161961379D01*
X224749500Y-162148620D01*
X224786025Y-162332243D01*
X224786027Y-162332251D01*
X224857676Y-162505228D01*
X224857681Y-162505237D01*
X224961697Y-162660907D01*
X224961700Y-162660911D01*
X225094088Y-162793299D01*
X225094092Y-162793302D01*
X225249762Y-162897318D01*
X225249768Y-162897321D01*
X225249769Y-162897322D01*
X225422749Y-162968973D01*
X225590064Y-163002253D01*
X225651973Y-163034637D01*
X225686547Y-163095353D01*
X225682808Y-163165122D01*
X225641942Y-163221794D01*
X225585269Y-163246343D01*
X225383872Y-163278242D01*
X225383869Y-163278242D01*
X225181782Y-163343904D01*
X224992439Y-163440380D01*
X224938282Y-163479727D01*
X224938282Y-163479728D01*
X225570591Y-164112037D01*
X225507007Y-164129075D01*
X225392993Y-164194901D01*
X225299901Y-164287993D01*
X225234075Y-164402007D01*
X225217037Y-164465591D01*
X224584728Y-163833282D01*
X224584727Y-163833282D01*
X224545380Y-163887439D01*
X224448904Y-164076782D01*
X224383242Y-164278869D01*
X224383242Y-164278872D01*
X224350000Y-164488753D01*
X197952119Y-164488753D01*
X197933558Y-164443944D01*
X197933557Y-164443943D01*
X197933557Y-164443942D01*
X197856058Y-164366443D01*
X197754800Y-164324500D01*
X197645200Y-164324500D01*
X197645199Y-164324500D01*
X197543940Y-164366444D01*
X197466444Y-164443940D01*
X197424502Y-164545196D01*
X197424500Y-164545200D01*
X182800500Y-164545200D01*
X182800500Y-162920200D01*
X217724500Y-162920200D01*
X217724500Y-163029800D01*
X217766443Y-163131058D01*
X217843942Y-163208557D01*
X217945200Y-163250500D01*
X217945201Y-163250500D01*
X218054799Y-163250500D01*
X218054800Y-163250500D01*
X218156058Y-163208557D01*
X218233557Y-163131058D01*
X218275500Y-163029800D01*
X218275500Y-162920200D01*
X218233557Y-162818942D01*
X218156058Y-162741443D01*
X218054800Y-162699500D01*
X217945200Y-162699500D01*
X217945199Y-162699500D01*
X217843940Y-162741444D01*
X217766444Y-162818940D01*
X217733977Y-162897322D01*
X217724500Y-162920200D01*
X182800500Y-162920200D01*
X182800500Y-162000200D01*
X210914500Y-162000200D01*
X210914500Y-162109800D01*
X210956443Y-162211058D01*
X211033942Y-162288557D01*
X211135200Y-162330500D01*
X211135201Y-162330500D01*
X211244799Y-162330500D01*
X211244800Y-162330500D01*
X211346058Y-162288557D01*
X211423557Y-162211058D01*
X211465500Y-162109800D01*
X211465500Y-162000200D01*
X211465499Y-162000198D01*
X211465498Y-162000192D01*
X211423558Y-161898944D01*
X211423557Y-161898943D01*
X211423557Y-161898942D01*
X211346058Y-161821443D01*
X211244800Y-161779500D01*
X211135200Y-161779500D01*
X211135199Y-161779500D01*
X211033940Y-161821444D01*
X210956444Y-161898940D01*
X210956443Y-161898941D01*
X210956443Y-161898942D01*
X210914500Y-162000200D01*
X182800500Y-162000200D01*
X182800500Y-161220200D01*
X208734500Y-161220200D01*
X208734500Y-161329800D01*
X208776443Y-161431058D01*
X208853942Y-161508557D01*
X208955200Y-161550500D01*
X208955201Y-161550500D01*
X209064799Y-161550500D01*
X209064800Y-161550500D01*
X209166058Y-161508557D01*
X209243557Y-161431058D01*
X209285500Y-161329800D01*
X209285500Y-161220200D01*
X209243557Y-161118942D01*
X209166058Y-161041443D01*
X209064800Y-160999500D01*
X208955200Y-160999500D01*
X208955199Y-160999500D01*
X208853940Y-161041444D01*
X208776444Y-161118940D01*
X208737615Y-161212681D01*
X208734500Y-161220200D01*
X182800500Y-161220200D01*
X182800500Y-160020200D01*
X209354499Y-160020200D01*
X209354499Y-160129800D01*
X209396442Y-160231058D01*
X209473941Y-160308557D01*
X209575199Y-160350500D01*
X209575200Y-160350500D01*
X209684798Y-160350500D01*
X209684799Y-160350500D01*
X209786057Y-160308557D01*
X209863556Y-160231058D01*
X209905499Y-160129800D01*
X209905499Y-160020200D01*
X209863556Y-159918942D01*
X209786057Y-159841443D01*
X209684799Y-159799500D01*
X209575199Y-159799500D01*
X209575198Y-159799500D01*
X209473939Y-159841444D01*
X209396443Y-159918940D01*
X209396442Y-159918941D01*
X209396442Y-159918942D01*
X209354499Y-160020200D01*
X182800500Y-160020200D01*
X182800500Y-159421379D01*
X224749500Y-159421379D01*
X224749500Y-159608620D01*
X224786025Y-159792243D01*
X224786027Y-159792251D01*
X224857676Y-159965228D01*
X224857681Y-159965237D01*
X224961697Y-160120907D01*
X224961700Y-160120911D01*
X225094088Y-160253299D01*
X225094092Y-160253302D01*
X225249762Y-160357318D01*
X225249768Y-160357321D01*
X225249769Y-160357322D01*
X225422749Y-160428973D01*
X225606379Y-160465499D01*
X225606383Y-160465500D01*
X225606384Y-160465500D01*
X225793617Y-160465500D01*
X225793618Y-160465499D01*
X225977251Y-160428973D01*
X226150231Y-160357322D01*
X226305908Y-160253302D01*
X226438302Y-160120908D01*
X226542322Y-159965231D01*
X226613973Y-159792251D01*
X226650500Y-159608616D01*
X226650500Y-159421384D01*
X226613973Y-159237749D01*
X226542322Y-159064769D01*
X226542321Y-159064768D01*
X226542318Y-159064762D01*
X226438302Y-158909092D01*
X226438299Y-158909088D01*
X226305911Y-158776700D01*
X226305907Y-158776697D01*
X226150237Y-158672681D01*
X226150228Y-158672676D01*
X225977251Y-158601027D01*
X225977243Y-158601025D01*
X225793620Y-158564500D01*
X225793616Y-158564500D01*
X225606384Y-158564500D01*
X225606379Y-158564500D01*
X225422756Y-158601025D01*
X225422748Y-158601027D01*
X225249771Y-158672676D01*
X225249762Y-158672681D01*
X225094092Y-158776697D01*
X225094088Y-158776700D01*
X224961700Y-158909088D01*
X224961697Y-158909092D01*
X224857681Y-159064762D01*
X224857676Y-159064771D01*
X224786027Y-159237748D01*
X224786025Y-159237756D01*
X224749500Y-159421379D01*
X182800500Y-159421379D01*
X182800500Y-158120200D01*
X197287500Y-158120200D01*
X197287500Y-158229800D01*
X197329443Y-158331058D01*
X197406942Y-158408557D01*
X197508200Y-158450500D01*
X197508201Y-158450500D01*
X197617799Y-158450500D01*
X197617800Y-158450500D01*
X197719058Y-158408557D01*
X197796557Y-158331058D01*
X197838500Y-158229800D01*
X197838500Y-158120200D01*
X202924500Y-158120200D01*
X202924500Y-158229800D01*
X202966443Y-158331058D01*
X203043942Y-158408557D01*
X203145200Y-158450500D01*
X203145201Y-158450500D01*
X203254799Y-158450500D01*
X203254800Y-158450500D01*
X203356058Y-158408557D01*
X203433557Y-158331058D01*
X203475500Y-158229800D01*
X203475500Y-158128300D01*
X203495185Y-158061261D01*
X203547989Y-158015506D01*
X203599500Y-158004300D01*
X203608599Y-158004300D01*
X203608600Y-158004300D01*
X203709858Y-157962357D01*
X203787357Y-157884858D01*
X203829300Y-157783600D01*
X203829300Y-157674000D01*
X203787357Y-157572742D01*
X203709858Y-157495243D01*
X203608600Y-157453300D01*
X203499000Y-157453300D01*
X203498999Y-157453300D01*
X203397740Y-157495244D01*
X203320244Y-157572740D01*
X203278300Y-157673999D01*
X203278300Y-157775500D01*
X203258615Y-157842539D01*
X203205811Y-157888294D01*
X203154300Y-157899500D01*
X203145199Y-157899500D01*
X203043940Y-157941444D01*
X202966444Y-158018940D01*
X202966443Y-158018941D01*
X202966443Y-158018942D01*
X202924500Y-158120200D01*
X197838500Y-158120200D01*
X197796557Y-158018942D01*
X197719058Y-157941443D01*
X197617800Y-157899500D01*
X197508200Y-157899500D01*
X197508199Y-157899500D01*
X197406940Y-157941444D01*
X197329444Y-158018940D01*
X197329443Y-158018941D01*
X197329443Y-158018942D01*
X197287500Y-158120200D01*
X182800500Y-158120200D01*
X182800500Y-157674000D01*
X191924500Y-157674000D01*
X191924500Y-157783600D01*
X191966443Y-157884858D01*
X192043942Y-157962357D01*
X192145200Y-158004300D01*
X192145201Y-158004300D01*
X192254799Y-158004300D01*
X192254800Y-158004300D01*
X192356058Y-157962357D01*
X192433557Y-157884858D01*
X192475500Y-157783600D01*
X192475500Y-157674000D01*
X198624500Y-157674000D01*
X198624500Y-157783600D01*
X198666443Y-157884858D01*
X198743942Y-157962357D01*
X198845200Y-158004300D01*
X198845201Y-158004300D01*
X198954799Y-158004300D01*
X198954800Y-158004300D01*
X199056058Y-157962357D01*
X199133557Y-157884858D01*
X199175500Y-157783600D01*
X199175500Y-157674000D01*
X199133557Y-157572742D01*
X199056058Y-157495243D01*
X198954800Y-157453300D01*
X198845200Y-157453300D01*
X198845199Y-157453300D01*
X198743940Y-157495244D01*
X198666444Y-157572740D01*
X198666443Y-157572741D01*
X198666443Y-157572742D01*
X198624500Y-157674000D01*
X192475500Y-157674000D01*
X192433557Y-157572742D01*
X192356058Y-157495243D01*
X192254800Y-157453300D01*
X192145200Y-157453300D01*
X192145199Y-157453300D01*
X192043940Y-157495244D01*
X191966444Y-157572740D01*
X191966443Y-157572741D01*
X191966443Y-157572742D01*
X191924500Y-157674000D01*
X182800500Y-157674000D01*
X182800500Y-157420200D01*
X206774500Y-157420200D01*
X206774500Y-157529800D01*
X206816443Y-157631058D01*
X206893942Y-157708557D01*
X206995200Y-157750500D01*
X206995201Y-157750500D01*
X207104799Y-157750500D01*
X207104800Y-157750500D01*
X207206058Y-157708557D01*
X207283557Y-157631058D01*
X207325500Y-157529800D01*
X207325500Y-157420200D01*
X207283557Y-157318942D01*
X207206058Y-157241443D01*
X207104800Y-157199500D01*
X206995200Y-157199500D01*
X206995199Y-157199500D01*
X206893940Y-157241444D01*
X206816444Y-157318940D01*
X206816443Y-157318941D01*
X206816443Y-157318942D01*
X206774500Y-157420200D01*
X182800500Y-157420200D01*
X182800500Y-157155200D01*
X212814500Y-157155200D01*
X212814500Y-157264800D01*
X212856443Y-157366058D01*
X212933942Y-157443557D01*
X213035200Y-157485500D01*
X213035201Y-157485500D01*
X213144799Y-157485500D01*
X213144800Y-157485500D01*
X213246058Y-157443557D01*
X213323557Y-157366058D01*
X213365500Y-157264800D01*
X213365500Y-157155200D01*
X213323557Y-157053942D01*
X213246058Y-156976443D01*
X213144800Y-156934500D01*
X213035200Y-156934500D01*
X213035199Y-156934500D01*
X212933940Y-156976444D01*
X212856444Y-157053940D01*
X212816447Y-157150500D01*
X212814500Y-157155200D01*
X182800500Y-157155200D01*
X182800500Y-156820200D01*
X204924500Y-156820200D01*
X204924500Y-156929800D01*
X204966443Y-157031058D01*
X205043942Y-157108557D01*
X205145200Y-157150500D01*
X205145201Y-157150500D01*
X205254799Y-157150500D01*
X205254800Y-157150500D01*
X205356058Y-157108557D01*
X205433557Y-157031058D01*
X205475500Y-156929800D01*
X205475500Y-156820200D01*
X205433557Y-156718942D01*
X205356058Y-156641443D01*
X205254800Y-156599500D01*
X205145200Y-156599500D01*
X205145199Y-156599500D01*
X205043940Y-156641444D01*
X204966444Y-156718940D01*
X204966443Y-156718941D01*
X204966443Y-156718942D01*
X204924500Y-156820200D01*
X182800500Y-156820200D01*
X182800500Y-156345200D01*
X195926900Y-156345200D01*
X195926900Y-156454800D01*
X195968843Y-156556058D01*
X196046342Y-156633557D01*
X196147600Y-156675500D01*
X196147601Y-156675500D01*
X196257199Y-156675500D01*
X196257200Y-156675500D01*
X196358458Y-156633557D01*
X196435957Y-156556058D01*
X196477900Y-156454800D01*
X196477900Y-156420200D01*
X200912000Y-156420200D01*
X200912000Y-156529800D01*
X200953943Y-156631058D01*
X201031442Y-156708557D01*
X201132700Y-156750500D01*
X201132701Y-156750500D01*
X201242299Y-156750500D01*
X201242300Y-156750500D01*
X201343558Y-156708557D01*
X201421057Y-156631058D01*
X201463000Y-156529800D01*
X201463000Y-156420200D01*
X201421578Y-156320200D01*
X206024500Y-156320200D01*
X206024500Y-156429800D01*
X206066443Y-156531058D01*
X206143942Y-156608557D01*
X206245200Y-156650500D01*
X206245201Y-156650500D01*
X206354799Y-156650500D01*
X206354800Y-156650500D01*
X206456058Y-156608557D01*
X206533557Y-156531058D01*
X206575500Y-156429800D01*
X206575500Y-156320200D01*
X206533557Y-156218942D01*
X206456058Y-156141443D01*
X206354800Y-156099500D01*
X206245200Y-156099500D01*
X206245199Y-156099500D01*
X206143940Y-156141444D01*
X206066444Y-156218940D01*
X206066443Y-156218941D01*
X206066443Y-156218942D01*
X206024500Y-156320200D01*
X201421578Y-156320200D01*
X201421057Y-156318942D01*
X201343558Y-156241443D01*
X201242300Y-156199500D01*
X201132700Y-156199500D01*
X201132699Y-156199500D01*
X201085768Y-156218940D01*
X201047480Y-156234800D01*
X201031440Y-156241444D01*
X200953944Y-156318940D01*
X200953943Y-156318941D01*
X200953943Y-156318942D01*
X200946853Y-156336058D01*
X200914752Y-156413557D01*
X200912000Y-156420200D01*
X196477900Y-156420200D01*
X196477900Y-156345200D01*
X196435957Y-156243942D01*
X196358458Y-156166443D01*
X196257200Y-156124500D01*
X196147600Y-156124500D01*
X196147599Y-156124500D01*
X196046340Y-156166444D01*
X195968844Y-156243940D01*
X195930687Y-156336058D01*
X195926900Y-156345200D01*
X182800500Y-156345200D01*
X182800500Y-155812700D01*
X207124500Y-155812700D01*
X207124500Y-155922300D01*
X207166443Y-156023558D01*
X207243942Y-156101057D01*
X207345200Y-156143000D01*
X207345201Y-156143000D01*
X207454799Y-156143000D01*
X207454800Y-156143000D01*
X207497772Y-156125200D01*
X208124500Y-156125200D01*
X208124500Y-156234800D01*
X208166443Y-156336058D01*
X208243942Y-156413557D01*
X208345200Y-156455500D01*
X208345201Y-156455500D01*
X208454799Y-156455500D01*
X208454800Y-156455500D01*
X208556058Y-156413557D01*
X208633557Y-156336058D01*
X208675500Y-156234800D01*
X208675500Y-156125200D01*
X208633557Y-156023942D01*
X208556058Y-155946443D01*
X208454800Y-155904500D01*
X208345200Y-155904500D01*
X208345199Y-155904500D01*
X208273596Y-155934159D01*
X208247909Y-155944800D01*
X208243940Y-155946444D01*
X208166444Y-156023940D01*
X208166443Y-156023941D01*
X208166443Y-156023942D01*
X208163797Y-156030330D01*
X208125181Y-156123557D01*
X208124500Y-156125200D01*
X207497772Y-156125200D01*
X207556058Y-156101057D01*
X207633557Y-156023558D01*
X207675500Y-155922300D01*
X207675500Y-155835200D01*
X211864500Y-155835200D01*
X211864500Y-155944800D01*
X211906443Y-156046058D01*
X211983942Y-156123557D01*
X212085200Y-156165500D01*
X212085201Y-156165500D01*
X212194799Y-156165500D01*
X212194800Y-156165500D01*
X212296058Y-156123557D01*
X212304517Y-156115098D01*
X224749500Y-156115098D01*
X224749500Y-157834894D01*
X224749501Y-157834902D01*
X224755330Y-157864212D01*
X224777542Y-157897457D01*
X224794219Y-157908599D01*
X224810787Y-157919669D01*
X224810790Y-157919669D01*
X224810791Y-157919670D01*
X224820647Y-157921630D01*
X224840101Y-157925500D01*
X226559898Y-157925499D01*
X226589213Y-157919669D01*
X226622457Y-157897457D01*
X226644669Y-157864213D01*
X226650500Y-157834899D01*
X226650499Y-156115102D01*
X226644669Y-156085787D01*
X226644668Y-156085785D01*
X226622457Y-156052542D01*
X226589214Y-156030332D01*
X226589215Y-156030332D01*
X226589213Y-156030331D01*
X226589211Y-156030330D01*
X226589208Y-156030329D01*
X226559901Y-156024500D01*
X224840105Y-156024500D01*
X224840097Y-156024501D01*
X224810787Y-156030330D01*
X224777542Y-156052542D01*
X224755332Y-156085785D01*
X224755329Y-156085791D01*
X224749500Y-156115098D01*
X212304517Y-156115098D01*
X212373557Y-156046058D01*
X212415500Y-155944800D01*
X212415500Y-155835200D01*
X212373557Y-155733942D01*
X212296058Y-155656443D01*
X212194800Y-155614500D01*
X212085200Y-155614500D01*
X212085199Y-155614500D01*
X212013596Y-155644159D01*
X211984872Y-155656058D01*
X211983940Y-155656444D01*
X211906444Y-155733940D01*
X211873820Y-155812701D01*
X211864500Y-155835200D01*
X207675500Y-155835200D01*
X207675500Y-155812700D01*
X207633557Y-155711442D01*
X207556058Y-155633943D01*
X207454800Y-155592000D01*
X207345200Y-155592000D01*
X207345199Y-155592000D01*
X207290881Y-155614500D01*
X207252262Y-155630497D01*
X207243940Y-155633944D01*
X207166444Y-155711440D01*
X207166443Y-155711441D01*
X207166443Y-155711442D01*
X207124500Y-155812700D01*
X182800500Y-155812700D01*
X182800500Y-155445200D01*
X192824500Y-155445200D01*
X192824500Y-155554800D01*
X192866443Y-155656058D01*
X192943942Y-155733557D01*
X193045200Y-155775500D01*
X193045201Y-155775500D01*
X193154799Y-155775500D01*
X193154800Y-155775500D01*
X193256058Y-155733557D01*
X193333557Y-155656058D01*
X193375500Y-155554800D01*
X193375500Y-155445200D01*
X193333557Y-155343942D01*
X193289813Y-155300198D01*
X200924500Y-155300198D01*
X200924500Y-155409798D01*
X200966443Y-155511056D01*
X201043942Y-155588555D01*
X201145200Y-155630498D01*
X201145201Y-155630498D01*
X201254799Y-155630498D01*
X201254800Y-155630498D01*
X201356058Y-155588555D01*
X201433557Y-155511056D01*
X201475500Y-155409798D01*
X201475500Y-155300198D01*
X201433557Y-155198940D01*
X201356058Y-155121441D01*
X201254800Y-155079498D01*
X201145200Y-155079498D01*
X201145199Y-155079498D01*
X201043940Y-155121442D01*
X200966444Y-155198938D01*
X200938482Y-155266444D01*
X200924500Y-155300198D01*
X193289813Y-155300198D01*
X193256058Y-155266443D01*
X193154800Y-155224500D01*
X193045200Y-155224500D01*
X193045199Y-155224500D01*
X192943940Y-155266444D01*
X192866444Y-155343940D01*
X192866443Y-155343941D01*
X192866443Y-155343942D01*
X192824500Y-155445200D01*
X182800500Y-155445200D01*
X182800500Y-154945200D01*
X212499500Y-154945200D01*
X212499500Y-155054800D01*
X212541443Y-155156058D01*
X212618942Y-155233557D01*
X212720200Y-155275500D01*
X212720201Y-155275500D01*
X212829799Y-155275500D01*
X212829800Y-155275500D01*
X212931058Y-155233557D01*
X213008557Y-155156058D01*
X213050500Y-155054800D01*
X213050500Y-154945200D01*
X213008557Y-154843942D01*
X212931058Y-154766443D01*
X212829800Y-154724500D01*
X212720200Y-154724500D01*
X212720199Y-154724500D01*
X212657434Y-154750499D01*
X212633290Y-154760500D01*
X212618940Y-154766444D01*
X212541444Y-154843940D01*
X212541443Y-154843941D01*
X212541443Y-154843942D01*
X212499500Y-154945200D01*
X182800500Y-154945200D01*
X182800500Y-154420200D01*
X192345500Y-154420200D01*
X192345500Y-154529800D01*
X192387443Y-154631058D01*
X192464942Y-154708557D01*
X192566200Y-154750500D01*
X192566201Y-154750500D01*
X192675799Y-154750500D01*
X192675800Y-154750500D01*
X192777058Y-154708557D01*
X192854557Y-154631058D01*
X192896500Y-154529800D01*
X192896500Y-154420200D01*
X192855078Y-154320200D01*
X194124500Y-154320200D01*
X194124500Y-154429800D01*
X194166443Y-154531058D01*
X194243942Y-154608557D01*
X194345200Y-154650500D01*
X194345201Y-154650500D01*
X194454799Y-154650500D01*
X194454800Y-154650500D01*
X194556058Y-154608557D01*
X194633557Y-154531058D01*
X194675500Y-154429800D01*
X194675500Y-154320200D01*
X194633557Y-154218942D01*
X194556058Y-154141443D01*
X194454800Y-154099500D01*
X194345200Y-154099500D01*
X194345199Y-154099500D01*
X194243940Y-154141444D01*
X194166444Y-154218940D01*
X194128763Y-154309909D01*
X194124500Y-154320200D01*
X192855078Y-154320200D01*
X192854557Y-154318942D01*
X192777058Y-154241443D01*
X192675800Y-154199500D01*
X192566200Y-154199500D01*
X192566199Y-154199500D01*
X192464940Y-154241444D01*
X192387444Y-154318940D01*
X192387443Y-154318941D01*
X192387443Y-154318942D01*
X192345500Y-154420200D01*
X182800500Y-154420200D01*
X182800500Y-153280200D01*
X199524500Y-153280200D01*
X199524500Y-153389800D01*
X199566443Y-153491058D01*
X199643942Y-153568557D01*
X199745200Y-153610500D01*
X199745201Y-153610500D01*
X199854799Y-153610500D01*
X199854800Y-153610500D01*
X199956058Y-153568557D01*
X200033557Y-153491058D01*
X200033559Y-153491052D01*
X200040342Y-153480903D01*
X200044106Y-153483418D01*
X200072567Y-153447950D01*
X200138815Y-153425747D01*
X200206550Y-153442884D01*
X200254268Y-153493922D01*
X200267500Y-153549658D01*
X200267500Y-153912504D01*
X200277584Y-153963198D01*
X200277586Y-153963206D01*
X200295894Y-154007405D01*
X200295895Y-154007407D01*
X200309465Y-154032259D01*
X200309470Y-154032264D01*
X200367596Y-154079106D01*
X200367600Y-154079108D01*
X200411794Y-154097414D01*
X200462495Y-154107499D01*
X200462499Y-154107500D01*
X200462500Y-154107500D01*
X210337501Y-154107500D01*
X210337502Y-154107499D01*
X210388206Y-154097414D01*
X210432400Y-154079108D01*
X210457261Y-154065533D01*
X210504059Y-154007461D01*
X210504106Y-154007403D01*
X210504108Y-154007399D01*
X210522414Y-153963206D01*
X210532500Y-153912500D01*
X210532500Y-150904500D01*
X210552185Y-150837461D01*
X210604989Y-150791706D01*
X210656500Y-150780500D01*
X211076000Y-150780500D01*
X211076784Y-150780415D01*
X211087245Y-150779292D01*
X211156004Y-150791697D01*
X211207142Y-150839307D01*
X211224500Y-150902581D01*
X211224500Y-154089972D01*
X211204815Y-154157011D01*
X211152011Y-154202766D01*
X211146383Y-154204584D01*
X211146484Y-154204826D01*
X211135200Y-154209500D01*
X211058082Y-154241444D01*
X211033940Y-154251444D01*
X210956444Y-154328940D01*
X210914666Y-154429800D01*
X210914500Y-154430200D01*
X210914500Y-154539800D01*
X210956443Y-154641058D01*
X211033942Y-154718557D01*
X211135200Y-154760500D01*
X211135201Y-154760500D01*
X211244799Y-154760500D01*
X211244800Y-154760500D01*
X211346058Y-154718557D01*
X211423557Y-154641058D01*
X211465500Y-154539800D01*
X211465500Y-154509057D01*
X211485185Y-154442018D01*
X211501819Y-154421376D01*
X211502996Y-154420199D01*
X211548782Y-154374413D01*
X211575500Y-154309909D01*
X211575500Y-154240091D01*
X211575500Y-154020200D01*
X212924500Y-154020200D01*
X212924500Y-154129800D01*
X212966443Y-154231058D01*
X213043942Y-154308557D01*
X213145200Y-154350500D01*
X213145201Y-154350500D01*
X213254799Y-154350500D01*
X213254800Y-154350500D01*
X213356058Y-154308557D01*
X213433557Y-154231058D01*
X213475500Y-154129800D01*
X213475500Y-154074500D01*
X213495185Y-154007461D01*
X213547989Y-153961706D01*
X213599500Y-153950500D01*
X213654799Y-153950500D01*
X213654800Y-153950500D01*
X213756058Y-153908557D01*
X213833557Y-153831058D01*
X213875500Y-153729800D01*
X213875500Y-153674500D01*
X213895185Y-153607461D01*
X213947989Y-153561706D01*
X213999500Y-153550500D01*
X214054799Y-153550500D01*
X214054800Y-153550500D01*
X214156058Y-153508557D01*
X214233557Y-153431058D01*
X214275500Y-153329800D01*
X214275500Y-153281379D01*
X224749500Y-153281379D01*
X224749500Y-153468620D01*
X224786025Y-153652243D01*
X224786027Y-153652251D01*
X224857676Y-153825228D01*
X224857681Y-153825237D01*
X224961697Y-153980907D01*
X224961700Y-153980911D01*
X225094088Y-154113299D01*
X225094092Y-154113302D01*
X225249762Y-154217318D01*
X225249768Y-154217321D01*
X225249769Y-154217322D01*
X225422749Y-154288973D01*
X225579734Y-154320199D01*
X225606379Y-154325499D01*
X225606383Y-154325500D01*
X225606384Y-154325500D01*
X225793617Y-154325500D01*
X225793618Y-154325499D01*
X225977251Y-154288973D01*
X226150231Y-154217322D01*
X226305908Y-154113302D01*
X226438302Y-153980908D01*
X226542322Y-153825231D01*
X226613973Y-153652251D01*
X226650500Y-153468616D01*
X226650500Y-153281384D01*
X226613973Y-153097749D01*
X226542322Y-152924769D01*
X226542321Y-152924768D01*
X226542318Y-152924762D01*
X226438302Y-152769092D01*
X226438299Y-152769088D01*
X226305911Y-152636700D01*
X226305907Y-152636697D01*
X226150237Y-152532681D01*
X226150228Y-152532676D01*
X225977251Y-152461027D01*
X225977243Y-152461025D01*
X225793620Y-152424500D01*
X225793616Y-152424500D01*
X225606384Y-152424500D01*
X225606379Y-152424500D01*
X225422756Y-152461025D01*
X225422748Y-152461027D01*
X225249771Y-152532676D01*
X225249762Y-152532681D01*
X225094092Y-152636697D01*
X225094088Y-152636700D01*
X224961700Y-152769088D01*
X224961697Y-152769092D01*
X224857681Y-152924762D01*
X224857676Y-152924771D01*
X224786027Y-153097748D01*
X224786025Y-153097756D01*
X224749500Y-153281379D01*
X214275500Y-153281379D01*
X214275500Y-153274500D01*
X214295185Y-153207461D01*
X214347989Y-153161706D01*
X214399500Y-153150500D01*
X214454799Y-153150500D01*
X214454800Y-153150500D01*
X214556058Y-153108557D01*
X214633557Y-153031058D01*
X214675500Y-152929800D01*
X214675500Y-152820200D01*
X214633557Y-152718942D01*
X214556058Y-152641443D01*
X214454800Y-152599500D01*
X214345200Y-152599500D01*
X214345199Y-152599500D01*
X214273596Y-152629159D01*
X214255393Y-152636700D01*
X214243940Y-152641444D01*
X214166444Y-152718940D01*
X214124500Y-152820199D01*
X214124500Y-152875500D01*
X214104815Y-152942539D01*
X214052011Y-152988294D01*
X214000500Y-152999500D01*
X213945199Y-152999500D01*
X213843940Y-153041444D01*
X213766444Y-153118940D01*
X213724500Y-153220199D01*
X213724500Y-153275500D01*
X213704815Y-153342539D01*
X213652011Y-153388294D01*
X213600500Y-153399500D01*
X213545199Y-153399500D01*
X213443940Y-153441444D01*
X213366444Y-153518940D01*
X213324500Y-153620199D01*
X213324500Y-153675500D01*
X213304815Y-153742539D01*
X213252011Y-153788294D01*
X213200500Y-153799500D01*
X213145199Y-153799500D01*
X213043940Y-153841444D01*
X212966444Y-153918940D01*
X212929777Y-154007461D01*
X212924500Y-154020200D01*
X211575500Y-154020200D01*
X211575500Y-150741379D01*
X224749500Y-150741379D01*
X224749500Y-150928620D01*
X224786025Y-151112243D01*
X224786027Y-151112251D01*
X224857676Y-151285228D01*
X224857681Y-151285237D01*
X224961697Y-151440907D01*
X224961700Y-151440911D01*
X225094088Y-151573299D01*
X225094092Y-151573302D01*
X225249762Y-151677318D01*
X225249768Y-151677321D01*
X225249769Y-151677322D01*
X225422749Y-151748973D01*
X225606379Y-151785499D01*
X225606383Y-151785500D01*
X225606384Y-151785500D01*
X225793617Y-151785500D01*
X225793618Y-151785499D01*
X225977251Y-151748973D01*
X226150231Y-151677322D01*
X226305908Y-151573302D01*
X226438302Y-151440908D01*
X226542322Y-151285231D01*
X226613973Y-151112251D01*
X226650500Y-150928616D01*
X226650500Y-150741384D01*
X226613973Y-150557749D01*
X226542322Y-150384769D01*
X226542321Y-150384768D01*
X226542318Y-150384762D01*
X226438302Y-150229092D01*
X226438299Y-150229088D01*
X226305911Y-150096700D01*
X226305907Y-150096697D01*
X226150237Y-149992681D01*
X226150228Y-149992676D01*
X225977251Y-149921027D01*
X225977243Y-149921025D01*
X225793620Y-149884500D01*
X225793616Y-149884500D01*
X225606384Y-149884500D01*
X225606379Y-149884500D01*
X225422756Y-149921025D01*
X225422748Y-149921027D01*
X225249771Y-149992676D01*
X225249762Y-149992681D01*
X225094092Y-150096697D01*
X225094088Y-150096700D01*
X224961700Y-150229088D01*
X224961697Y-150229092D01*
X224857681Y-150384762D01*
X224857676Y-150384771D01*
X224786027Y-150557748D01*
X224786025Y-150557756D01*
X224749500Y-150741379D01*
X211575500Y-150741379D01*
X211575500Y-149340477D01*
X211595185Y-149273438D01*
X211611819Y-149252796D01*
X211619116Y-149245499D01*
X211633557Y-149231058D01*
X211675500Y-149129800D01*
X211675500Y-149020200D01*
X211633557Y-148918942D01*
X211556058Y-148841443D01*
X211454800Y-148799500D01*
X211429500Y-148799500D01*
X211362461Y-148779815D01*
X211316706Y-148727011D01*
X211306814Y-148693503D01*
X211305500Y-148684548D01*
X211305500Y-148608814D01*
X211304275Y-148592784D01*
X211298550Y-148555542D01*
X211281903Y-148512822D01*
X211279852Y-148509763D01*
X211277292Y-148492315D01*
X211280281Y-148471086D01*
X211278440Y-148449725D01*
X211285056Y-148437175D01*
X211287035Y-148423128D01*
X211301027Y-148406884D01*
X211311027Y-148387919D01*
X211312164Y-148386764D01*
X211333557Y-148365372D01*
X211375500Y-148264114D01*
X211375500Y-148201379D01*
X224749500Y-148201379D01*
X224749500Y-148388620D01*
X224786025Y-148572243D01*
X224786027Y-148572251D01*
X224857676Y-148745228D01*
X224857681Y-148745237D01*
X224961697Y-148900907D01*
X224961700Y-148900911D01*
X225094088Y-149033299D01*
X225094092Y-149033302D01*
X225249762Y-149137318D01*
X225249768Y-149137321D01*
X225249769Y-149137322D01*
X225422749Y-149208973D01*
X225606379Y-149245499D01*
X225606383Y-149245500D01*
X225606384Y-149245500D01*
X225793617Y-149245500D01*
X225793618Y-149245499D01*
X225977251Y-149208973D01*
X226150231Y-149137322D01*
X226305908Y-149033302D01*
X226438302Y-148900908D01*
X226542322Y-148745231D01*
X226613973Y-148572251D01*
X226650500Y-148388616D01*
X226650500Y-148201384D01*
X226613973Y-148017749D01*
X226542322Y-147844769D01*
X226542321Y-147844768D01*
X226542318Y-147844762D01*
X226438302Y-147689092D01*
X226438299Y-147689088D01*
X226305911Y-147556700D01*
X226305907Y-147556697D01*
X226150237Y-147452681D01*
X226150228Y-147452676D01*
X225977251Y-147381027D01*
X225977243Y-147381025D01*
X225793620Y-147344500D01*
X225793616Y-147344500D01*
X225606384Y-147344500D01*
X225606379Y-147344500D01*
X225422756Y-147381025D01*
X225422748Y-147381027D01*
X225249771Y-147452676D01*
X225249762Y-147452681D01*
X225094092Y-147556697D01*
X225094088Y-147556700D01*
X224961700Y-147689088D01*
X224961697Y-147689092D01*
X224857681Y-147844762D01*
X224857676Y-147844771D01*
X224786027Y-148017748D01*
X224786025Y-148017756D01*
X224749500Y-148201379D01*
X211375500Y-148201379D01*
X211375500Y-148154514D01*
X211357129Y-148110164D01*
X211354749Y-148097622D01*
X211356969Y-148075042D01*
X211354544Y-148052484D01*
X211360323Y-148040938D01*
X211361587Y-148028088D01*
X211375664Y-148010290D01*
X211385819Y-147990005D01*
X211396921Y-147983417D01*
X211404933Y-147973289D01*
X211426396Y-147965928D01*
X211445907Y-147954352D01*
X211468388Y-147951528D01*
X211471025Y-147950624D01*
X211472568Y-147951003D01*
X211476574Y-147950500D01*
X211554799Y-147950500D01*
X211554800Y-147950500D01*
X211656058Y-147908557D01*
X211733557Y-147831058D01*
X211775500Y-147729800D01*
X211775500Y-147620200D01*
X212424500Y-147620200D01*
X212424500Y-147729800D01*
X212466443Y-147831058D01*
X212543942Y-147908557D01*
X212645200Y-147950500D01*
X212645201Y-147950500D01*
X212754799Y-147950500D01*
X212754800Y-147950500D01*
X212856058Y-147908557D01*
X212933557Y-147831058D01*
X212975500Y-147729800D01*
X212975500Y-147620200D01*
X212933557Y-147518942D01*
X212856058Y-147441443D01*
X212754800Y-147399500D01*
X212645200Y-147399500D01*
X212645199Y-147399500D01*
X212543940Y-147441444D01*
X212466444Y-147518940D01*
X212431234Y-147603944D01*
X212424500Y-147620200D01*
X211775500Y-147620200D01*
X211733557Y-147518942D01*
X211656058Y-147441443D01*
X211554800Y-147399500D01*
X211445200Y-147399500D01*
X211445199Y-147399500D01*
X211343940Y-147441444D01*
X211266444Y-147518940D01*
X211224500Y-147620199D01*
X211224500Y-147729802D01*
X211237987Y-147762361D01*
X211245456Y-147831830D01*
X211214181Y-147894309D01*
X211154093Y-147929962D01*
X211123426Y-147933814D01*
X211045199Y-147933814D01*
X210943939Y-147975758D01*
X210936493Y-147980734D01*
X210869815Y-148001609D01*
X210802435Y-147983122D01*
X210779925Y-147965310D01*
X210756059Y-147941444D01*
X210756058Y-147941443D01*
X210654800Y-147899500D01*
X210545200Y-147899500D01*
X210545199Y-147899500D01*
X210443940Y-147941444D01*
X210366444Y-148018940D01*
X210324500Y-148120199D01*
X210324500Y-148218500D01*
X210304815Y-148285539D01*
X210252011Y-148331294D01*
X210200500Y-148342500D01*
X200462495Y-148342500D01*
X200411801Y-148352584D01*
X200411793Y-148352586D01*
X200367594Y-148370894D01*
X200367592Y-148370895D01*
X200342740Y-148384465D01*
X200342735Y-148384470D01*
X200295893Y-148442596D01*
X200295891Y-148442600D01*
X200277586Y-148486793D01*
X200277584Y-148486801D01*
X200267500Y-148537495D01*
X200267500Y-153120341D01*
X200247815Y-153187380D01*
X200195011Y-153233135D01*
X200125853Y-153243079D01*
X200062297Y-153214054D01*
X200043006Y-153187316D01*
X200040342Y-153189097D01*
X200033558Y-153178944D01*
X200033557Y-153178942D01*
X199956058Y-153101443D01*
X199854800Y-153059500D01*
X199745200Y-153059500D01*
X199745199Y-153059500D01*
X199673596Y-153089159D01*
X199652863Y-153097748D01*
X199643940Y-153101444D01*
X199566444Y-153178940D01*
X199526447Y-153275500D01*
X199524500Y-153280200D01*
X182800500Y-153280200D01*
X182800500Y-150820200D01*
X196824500Y-150820200D01*
X196824500Y-150929800D01*
X196866443Y-151031058D01*
X196943942Y-151108557D01*
X197045200Y-151150500D01*
X197045201Y-151150500D01*
X197154799Y-151150500D01*
X197154800Y-151150500D01*
X197256058Y-151108557D01*
X197333557Y-151031058D01*
X197375500Y-150929800D01*
X197375500Y-150820200D01*
X197333557Y-150718942D01*
X197256058Y-150641443D01*
X197154800Y-150599500D01*
X197045200Y-150599500D01*
X197045199Y-150599500D01*
X196943940Y-150641444D01*
X196866444Y-150718940D01*
X196866443Y-150718941D01*
X196866443Y-150718942D01*
X196824500Y-150820200D01*
X182800500Y-150820200D01*
X182800500Y-148100000D01*
X183880138Y-148100000D01*
X184683012Y-148100000D01*
X184665795Y-148109940D01*
X184609940Y-148165795D01*
X184570444Y-148234204D01*
X184550000Y-148310504D01*
X184550000Y-148389496D01*
X184570444Y-148465796D01*
X184609940Y-148534205D01*
X184665795Y-148590060D01*
X184683012Y-148600000D01*
X183880138Y-148600000D01*
X183888430Y-148641690D01*
X183888430Y-148641692D01*
X183963807Y-148823671D01*
X183963814Y-148823684D01*
X184073248Y-148987462D01*
X184073251Y-148987466D01*
X184212533Y-149126748D01*
X184212537Y-149126751D01*
X184376315Y-149236185D01*
X184376328Y-149236192D01*
X184558306Y-149311569D01*
X184558318Y-149311572D01*
X184751504Y-149349999D01*
X184751508Y-149350000D01*
X185000000Y-149350000D01*
X185000000Y-148650000D01*
X185500000Y-148650000D01*
X185500000Y-149350000D01*
X185748492Y-149350000D01*
X185748495Y-149349999D01*
X185941681Y-149311572D01*
X185941693Y-149311569D01*
X186123671Y-149236192D01*
X186123684Y-149236185D01*
X186287462Y-149126751D01*
X186287466Y-149126748D01*
X186426748Y-148987466D01*
X186426751Y-148987462D01*
X186536185Y-148823684D01*
X186536192Y-148823671D01*
X186611569Y-148641692D01*
X186611569Y-148641690D01*
X186619862Y-148600000D01*
X185816988Y-148600000D01*
X185834205Y-148590060D01*
X185890060Y-148534205D01*
X185929556Y-148465796D01*
X185950000Y-148389496D01*
X185950000Y-148310504D01*
X185929556Y-148234204D01*
X185890060Y-148165795D01*
X185834205Y-148109940D01*
X185816988Y-148100000D01*
X186619862Y-148100000D01*
X187910138Y-148100000D01*
X188713012Y-148100000D01*
X188695795Y-148109940D01*
X188639940Y-148165795D01*
X188600444Y-148234204D01*
X188580000Y-148310504D01*
X188580000Y-148389496D01*
X188600444Y-148465796D01*
X188639940Y-148534205D01*
X188695795Y-148590060D01*
X188713012Y-148600000D01*
X187910138Y-148600000D01*
X187918430Y-148641690D01*
X187918430Y-148641692D01*
X187993807Y-148823671D01*
X187993814Y-148823684D01*
X188103248Y-148987462D01*
X188103251Y-148987466D01*
X188242533Y-149126748D01*
X188242537Y-149126751D01*
X188406315Y-149236185D01*
X188406328Y-149236192D01*
X188588306Y-149311569D01*
X188588318Y-149311572D01*
X188781504Y-149349999D01*
X188781508Y-149350000D01*
X189180000Y-149350000D01*
X189180000Y-148650000D01*
X189680000Y-148650000D01*
X189680000Y-149350000D01*
X190078492Y-149350000D01*
X190078495Y-149349999D01*
X190271681Y-149311572D01*
X190271693Y-149311569D01*
X190453671Y-149236192D01*
X190453684Y-149236185D01*
X190617462Y-149126751D01*
X190617466Y-149126748D01*
X190756748Y-148987466D01*
X190756751Y-148987462D01*
X190866185Y-148823684D01*
X190866192Y-148823671D01*
X190941569Y-148641692D01*
X190941569Y-148641690D01*
X190949862Y-148600000D01*
X190146988Y-148600000D01*
X190164205Y-148590060D01*
X190220060Y-148534205D01*
X190259556Y-148465796D01*
X190280000Y-148389496D01*
X190280000Y-148310504D01*
X190259556Y-148234204D01*
X190220060Y-148165795D01*
X190164205Y-148109940D01*
X190146988Y-148100000D01*
X190963072Y-148100000D01*
X190990858Y-148081072D01*
X191060703Y-148079201D01*
X191076422Y-148084511D01*
X191145195Y-148112998D01*
X191145200Y-148113000D01*
X191145201Y-148113000D01*
X191254799Y-148113000D01*
X191254800Y-148113000D01*
X191356058Y-148071057D01*
X191433557Y-147993558D01*
X191475500Y-147892300D01*
X191475500Y-147782700D01*
X191433557Y-147681442D01*
X191372315Y-147620200D01*
X198524500Y-147620200D01*
X198524500Y-147729800D01*
X198566443Y-147831058D01*
X198643942Y-147908557D01*
X198745200Y-147950500D01*
X198745201Y-147950500D01*
X198854799Y-147950500D01*
X198854800Y-147950500D01*
X198956058Y-147908557D01*
X199033557Y-147831058D01*
X199075500Y-147729800D01*
X199075500Y-147620200D01*
X199033557Y-147518942D01*
X198956058Y-147441443D01*
X198854800Y-147399500D01*
X198745200Y-147399500D01*
X198745199Y-147399500D01*
X198643940Y-147441444D01*
X198566444Y-147518940D01*
X198531234Y-147603944D01*
X198524500Y-147620200D01*
X191372315Y-147620200D01*
X191356058Y-147603943D01*
X191254800Y-147562000D01*
X191145200Y-147562000D01*
X191145199Y-147562000D01*
X191043940Y-147603944D01*
X190966444Y-147681440D01*
X190959658Y-147691597D01*
X190958581Y-147690877D01*
X190922867Y-147735188D01*
X190856571Y-147757247D01*
X190788873Y-147739962D01*
X190761473Y-147716429D01*
X190761059Y-147716844D01*
X190617466Y-147573251D01*
X190617462Y-147573248D01*
X190453684Y-147463814D01*
X190453671Y-147463807D01*
X190271693Y-147388430D01*
X190271681Y-147388427D01*
X190078495Y-147350000D01*
X189680000Y-147350000D01*
X189680000Y-148050000D01*
X189180000Y-148050000D01*
X189180000Y-147323110D01*
X189188644Y-147293669D01*
X189195168Y-147263683D01*
X189198922Y-147258667D01*
X189199685Y-147256071D01*
X189216319Y-147235429D01*
X189240791Y-147210957D01*
X189255574Y-147196174D01*
X189270485Y-147181263D01*
X189326503Y-147084237D01*
X189355500Y-146976018D01*
X189355500Y-146863982D01*
X189326503Y-146755763D01*
X189270485Y-146658737D01*
X189191263Y-146579515D01*
X189094237Y-146523497D01*
X188986018Y-146494500D01*
X188873982Y-146494500D01*
X188765763Y-146523497D01*
X188765760Y-146523498D01*
X188668740Y-146579513D01*
X188668734Y-146579517D01*
X188589517Y-146658734D01*
X188589513Y-146658740D01*
X188533498Y-146755760D01*
X188533497Y-146755763D01*
X188504500Y-146863982D01*
X188504500Y-146976018D01*
X188533497Y-147084237D01*
X188589515Y-147181263D01*
X188589517Y-147181265D01*
X188604426Y-147196174D01*
X188637911Y-147257497D01*
X188632927Y-147327189D01*
X188591055Y-147383122D01*
X188564198Y-147398416D01*
X188406325Y-147463809D01*
X188406315Y-147463814D01*
X188242537Y-147573248D01*
X188242533Y-147573251D01*
X188103251Y-147712533D01*
X188103248Y-147712537D01*
X187993814Y-147876315D01*
X187993807Y-147876328D01*
X187918430Y-148058307D01*
X187918430Y-148058309D01*
X187910138Y-148100000D01*
X186619862Y-148100000D01*
X186611569Y-148058309D01*
X186611569Y-148058307D01*
X186536192Y-147876328D01*
X186536185Y-147876315D01*
X186426751Y-147712537D01*
X186426748Y-147712533D01*
X186287466Y-147573251D01*
X186287462Y-147573248D01*
X186123684Y-147463814D01*
X186123671Y-147463807D01*
X185941693Y-147388430D01*
X185941681Y-147388427D01*
X185748495Y-147350000D01*
X185500000Y-147350000D01*
X185500000Y-148050000D01*
X185000000Y-148050000D01*
X185000000Y-147350000D01*
X184751504Y-147350000D01*
X184558318Y-147388427D01*
X184558306Y-147388430D01*
X184376328Y-147463807D01*
X184376315Y-147463814D01*
X184212537Y-147573248D01*
X184212533Y-147573251D01*
X184073251Y-147712533D01*
X184073248Y-147712537D01*
X183963814Y-147876315D01*
X183963807Y-147876328D01*
X183888430Y-148058307D01*
X183888430Y-148058309D01*
X183880138Y-148100000D01*
X182800500Y-148100000D01*
X182800500Y-146345200D01*
X198724500Y-146345200D01*
X198724500Y-146454800D01*
X198766443Y-146556058D01*
X198843942Y-146633557D01*
X198945200Y-146675500D01*
X198945201Y-146675500D01*
X199054799Y-146675500D01*
X199054800Y-146675500D01*
X199156058Y-146633557D01*
X199233557Y-146556058D01*
X199275500Y-146454800D01*
X199275500Y-146345200D01*
X199233557Y-146243942D01*
X199156058Y-146166443D01*
X199092703Y-146140200D01*
X209704500Y-146140200D01*
X209704500Y-146249800D01*
X209746443Y-146351058D01*
X209823942Y-146428557D01*
X209925200Y-146470500D01*
X209925201Y-146470500D01*
X210034799Y-146470500D01*
X210034800Y-146470500D01*
X210136058Y-146428557D01*
X210213557Y-146351058D01*
X210255500Y-146249800D01*
X210255500Y-146140200D01*
X210213557Y-146038942D01*
X210136058Y-145961443D01*
X210034800Y-145919500D01*
X209925200Y-145919500D01*
X209925199Y-145919500D01*
X209823940Y-145961444D01*
X209746444Y-146038940D01*
X209746443Y-146038941D01*
X209746443Y-146038942D01*
X209704500Y-146140200D01*
X199092703Y-146140200D01*
X199054800Y-146124500D01*
X198945200Y-146124500D01*
X198945199Y-146124500D01*
X198843940Y-146166444D01*
X198766444Y-146243940D01*
X198766443Y-146243941D01*
X198766443Y-146243942D01*
X198724500Y-146345200D01*
X182800500Y-146345200D01*
X182800500Y-145661379D01*
X224749500Y-145661379D01*
X224749500Y-145848620D01*
X224786025Y-146032243D01*
X224786027Y-146032251D01*
X224857676Y-146205228D01*
X224857681Y-146205237D01*
X224961697Y-146360907D01*
X224961700Y-146360911D01*
X225094088Y-146493299D01*
X225094092Y-146493302D01*
X225249762Y-146597318D01*
X225249768Y-146597321D01*
X225249769Y-146597322D01*
X225422749Y-146668973D01*
X225606379Y-146705499D01*
X225606383Y-146705500D01*
X225606384Y-146705500D01*
X225793617Y-146705500D01*
X225793618Y-146705499D01*
X225977251Y-146668973D01*
X226150231Y-146597322D01*
X226305908Y-146493302D01*
X226438302Y-146360908D01*
X226542322Y-146205231D01*
X226613973Y-146032251D01*
X226650500Y-145848616D01*
X226650500Y-145661384D01*
X226613973Y-145477749D01*
X226542322Y-145304769D01*
X226542321Y-145304768D01*
X226542318Y-145304762D01*
X226438302Y-145149092D01*
X226438299Y-145149088D01*
X226305911Y-145016700D01*
X226305907Y-145016697D01*
X226150237Y-144912681D01*
X226150228Y-144912676D01*
X225977251Y-144841027D01*
X225977243Y-144841025D01*
X225793620Y-144804500D01*
X225793616Y-144804500D01*
X225606384Y-144804500D01*
X225606379Y-144804500D01*
X225422756Y-144841025D01*
X225422748Y-144841027D01*
X225249771Y-144912676D01*
X225249762Y-144912681D01*
X225094092Y-145016697D01*
X225094088Y-145016700D01*
X224961700Y-145149088D01*
X224961697Y-145149092D01*
X224857681Y-145304762D01*
X224857676Y-145304771D01*
X224786027Y-145477748D01*
X224786025Y-145477756D01*
X224749500Y-145661379D01*
X182800500Y-145661379D01*
X182800500Y-143245200D01*
X212824500Y-143245200D01*
X212824500Y-143354800D01*
X212866443Y-143456058D01*
X212943942Y-143533557D01*
X213045200Y-143575500D01*
X213045201Y-143575500D01*
X213154799Y-143575500D01*
X213154800Y-143575500D01*
X213256058Y-143533557D01*
X213333557Y-143456058D01*
X213375500Y-143354800D01*
X213375500Y-143245200D01*
X213333557Y-143143942D01*
X213310994Y-143121379D01*
X224749500Y-143121379D01*
X224749500Y-143308620D01*
X224786025Y-143492243D01*
X224786027Y-143492251D01*
X224857676Y-143665228D01*
X224857681Y-143665237D01*
X224961697Y-143820907D01*
X224961700Y-143820911D01*
X225094088Y-143953299D01*
X225094092Y-143953302D01*
X225249762Y-144057318D01*
X225249768Y-144057321D01*
X225249769Y-144057322D01*
X225422749Y-144128973D01*
X225606379Y-144165499D01*
X225606383Y-144165500D01*
X225606384Y-144165500D01*
X225793617Y-144165500D01*
X225793618Y-144165499D01*
X225977251Y-144128973D01*
X226150231Y-144057322D01*
X226305908Y-143953302D01*
X226438302Y-143820908D01*
X226542322Y-143665231D01*
X226613973Y-143492251D01*
X226650500Y-143308616D01*
X226650500Y-143121384D01*
X226613973Y-142937749D01*
X226542322Y-142764769D01*
X226542321Y-142764768D01*
X226542318Y-142764762D01*
X226438302Y-142609092D01*
X226438299Y-142609088D01*
X226305911Y-142476700D01*
X226305907Y-142476697D01*
X226150237Y-142372681D01*
X226150228Y-142372676D01*
X225977251Y-142301027D01*
X225977243Y-142301025D01*
X225793620Y-142264500D01*
X225793616Y-142264500D01*
X225606384Y-142264500D01*
X225606379Y-142264500D01*
X225422756Y-142301025D01*
X225422748Y-142301027D01*
X225249771Y-142372676D01*
X225249762Y-142372681D01*
X225094092Y-142476697D01*
X225094088Y-142476700D01*
X224961700Y-142609088D01*
X224961697Y-142609092D01*
X224857681Y-142764762D01*
X224857676Y-142764771D01*
X224786027Y-142937748D01*
X224786025Y-142937756D01*
X224749500Y-143121379D01*
X213310994Y-143121379D01*
X213256058Y-143066443D01*
X213154800Y-143024500D01*
X213045200Y-143024500D01*
X213045199Y-143024500D01*
X212943940Y-143066444D01*
X212866444Y-143143940D01*
X212866443Y-143143941D01*
X212866443Y-143143942D01*
X212824500Y-143245200D01*
X182800500Y-143245200D01*
X182800500Y-141895200D01*
X203849500Y-141895200D01*
X203849500Y-142004800D01*
X203891443Y-142106058D01*
X203968942Y-142183557D01*
X204070200Y-142225500D01*
X204070201Y-142225500D01*
X204179799Y-142225500D01*
X204179800Y-142225500D01*
X204281058Y-142183557D01*
X204358557Y-142106058D01*
X204400500Y-142004800D01*
X204400500Y-141895200D01*
X204358557Y-141793942D01*
X204281058Y-141716443D01*
X204179800Y-141674500D01*
X204070200Y-141674500D01*
X204070199Y-141674500D01*
X203968940Y-141716444D01*
X203891444Y-141793940D01*
X203891443Y-141793941D01*
X203891443Y-141793942D01*
X203849500Y-141895200D01*
X182800500Y-141895200D01*
X182800500Y-139460000D01*
X183880138Y-139460000D01*
X184683012Y-139460000D01*
X184665795Y-139469940D01*
X184609940Y-139525795D01*
X184570444Y-139594204D01*
X184550000Y-139670504D01*
X184550000Y-139749496D01*
X184570444Y-139825796D01*
X184609940Y-139894205D01*
X184665795Y-139950060D01*
X184683012Y-139960000D01*
X183880138Y-139960000D01*
X183888430Y-140001690D01*
X183888430Y-140001692D01*
X183963807Y-140183671D01*
X183963814Y-140183684D01*
X184073248Y-140347462D01*
X184073251Y-140347466D01*
X184212533Y-140486748D01*
X184212537Y-140486751D01*
X184376315Y-140596185D01*
X184376328Y-140596192D01*
X184558306Y-140671569D01*
X184558318Y-140671572D01*
X184751504Y-140709999D01*
X184751508Y-140710000D01*
X185000000Y-140710000D01*
X185000000Y-140010000D01*
X185500000Y-140010000D01*
X185500000Y-140710000D01*
X185748492Y-140710000D01*
X185748495Y-140709999D01*
X185941681Y-140671572D01*
X185941693Y-140671569D01*
X186123671Y-140596192D01*
X186123684Y-140596185D01*
X186287462Y-140486751D01*
X186287466Y-140486748D01*
X186426748Y-140347466D01*
X186426751Y-140347462D01*
X186536185Y-140183684D01*
X186536192Y-140183671D01*
X186611569Y-140001692D01*
X186611569Y-140001690D01*
X186619862Y-139960000D01*
X185816988Y-139960000D01*
X185834205Y-139950060D01*
X185890060Y-139894205D01*
X185929556Y-139825796D01*
X185950000Y-139749496D01*
X185950000Y-139670504D01*
X185929556Y-139594204D01*
X185890060Y-139525795D01*
X185834205Y-139469940D01*
X185816988Y-139460000D01*
X186619862Y-139460000D01*
X187910138Y-139460000D01*
X188713012Y-139460000D01*
X188695795Y-139469940D01*
X188639940Y-139525795D01*
X188600444Y-139594204D01*
X188580000Y-139670504D01*
X188580000Y-139749496D01*
X188600444Y-139825796D01*
X188639940Y-139894205D01*
X188695795Y-139950060D01*
X188713012Y-139960000D01*
X187910138Y-139960000D01*
X187918430Y-140001690D01*
X187918430Y-140001692D01*
X187993807Y-140183671D01*
X187993814Y-140183684D01*
X188103248Y-140347462D01*
X188103251Y-140347466D01*
X188242533Y-140486748D01*
X188242537Y-140486751D01*
X188406315Y-140596185D01*
X188406328Y-140596192D01*
X188564197Y-140661583D01*
X188618601Y-140705424D01*
X188640666Y-140771718D01*
X188623387Y-140839417D01*
X188604428Y-140863823D01*
X188589518Y-140878733D01*
X188589513Y-140878740D01*
X188533498Y-140975760D01*
X188533498Y-140975761D01*
X188533497Y-140975763D01*
X188504500Y-141083982D01*
X188504500Y-141196018D01*
X188533497Y-141304237D01*
X188589515Y-141401263D01*
X188668737Y-141480485D01*
X188765763Y-141536503D01*
X188873982Y-141565500D01*
X188873984Y-141565500D01*
X188986016Y-141565500D01*
X188986018Y-141565500D01*
X189094237Y-141536503D01*
X189191263Y-141480485D01*
X189270485Y-141401263D01*
X189326503Y-141304237D01*
X189355500Y-141196018D01*
X189355500Y-141083982D01*
X189326503Y-140975763D01*
X189323291Y-140970200D01*
X196924500Y-140970200D01*
X196924500Y-141079800D01*
X196966443Y-141181058D01*
X197043942Y-141258557D01*
X197145200Y-141300500D01*
X197145201Y-141300500D01*
X197254799Y-141300500D01*
X197254800Y-141300500D01*
X197356058Y-141258557D01*
X197433557Y-141181058D01*
X197475500Y-141079800D01*
X197475500Y-140970200D01*
X197433557Y-140868942D01*
X197356058Y-140791443D01*
X197254800Y-140749500D01*
X197145200Y-140749500D01*
X197145199Y-140749500D01*
X197043940Y-140791444D01*
X196966444Y-140868940D01*
X196966443Y-140868941D01*
X196966443Y-140868942D01*
X196924500Y-140970200D01*
X189323291Y-140970200D01*
X189270485Y-140878737D01*
X189216319Y-140824571D01*
X189182834Y-140763248D01*
X189180000Y-140736890D01*
X189180000Y-140010000D01*
X189680000Y-140010000D01*
X189680000Y-140710000D01*
X190078492Y-140710000D01*
X190078495Y-140709999D01*
X190271681Y-140671572D01*
X190271693Y-140671569D01*
X190453671Y-140596192D01*
X190453684Y-140596185D01*
X190617462Y-140486751D01*
X190617466Y-140486748D01*
X190756748Y-140347466D01*
X190756751Y-140347462D01*
X190866185Y-140183684D01*
X190866192Y-140183671D01*
X190941569Y-140001692D01*
X190941569Y-140001690D01*
X190949862Y-139960000D01*
X190146988Y-139960000D01*
X190164205Y-139950060D01*
X190220060Y-139894205D01*
X190259556Y-139825796D01*
X190280000Y-139749496D01*
X190280000Y-139670504D01*
X190259556Y-139594204D01*
X190220060Y-139525795D01*
X190164205Y-139469940D01*
X190146988Y-139460000D01*
X190949862Y-139460000D01*
X190941569Y-139418309D01*
X190941569Y-139418307D01*
X190866192Y-139236328D01*
X190866185Y-139236315D01*
X190756751Y-139072537D01*
X190756748Y-139072533D01*
X190617466Y-138933251D01*
X190617462Y-138933248D01*
X190453684Y-138823814D01*
X190453671Y-138823807D01*
X190271693Y-138748430D01*
X190271681Y-138748427D01*
X190078495Y-138710000D01*
X189680000Y-138710000D01*
X189680000Y-139410000D01*
X189180000Y-139410000D01*
X189180000Y-138710000D01*
X188781504Y-138710000D01*
X188588318Y-138748427D01*
X188588306Y-138748430D01*
X188406328Y-138823807D01*
X188406315Y-138823814D01*
X188242537Y-138933248D01*
X188242533Y-138933251D01*
X188103251Y-139072533D01*
X188103248Y-139072537D01*
X187993814Y-139236315D01*
X187993807Y-139236328D01*
X187918430Y-139418307D01*
X187918430Y-139418309D01*
X187910138Y-139460000D01*
X186619862Y-139460000D01*
X186611569Y-139418309D01*
X186611569Y-139418307D01*
X186536192Y-139236328D01*
X186536185Y-139236315D01*
X186426751Y-139072537D01*
X186426748Y-139072533D01*
X186287466Y-138933251D01*
X186287462Y-138933248D01*
X186123684Y-138823814D01*
X186123671Y-138823807D01*
X185941693Y-138748430D01*
X185941681Y-138748427D01*
X185748495Y-138710000D01*
X185500000Y-138710000D01*
X185500000Y-139410000D01*
X185000000Y-139410000D01*
X185000000Y-138710000D01*
X184751504Y-138710000D01*
X184558318Y-138748427D01*
X184558306Y-138748430D01*
X184376328Y-138823807D01*
X184376315Y-138823814D01*
X184212537Y-138933248D01*
X184212533Y-138933251D01*
X184073251Y-139072533D01*
X184073248Y-139072537D01*
X183963814Y-139236315D01*
X183963807Y-139236328D01*
X183888430Y-139418307D01*
X183888430Y-139418309D01*
X183880138Y-139460000D01*
X182800500Y-139460000D01*
X182800500Y-138120943D01*
X202519500Y-138120943D01*
X202519500Y-138279057D01*
X202547888Y-138385000D01*
X202560423Y-138431783D01*
X202560426Y-138431790D01*
X202639475Y-138568709D01*
X202639479Y-138568714D01*
X202639480Y-138568716D01*
X202751284Y-138680520D01*
X202751285Y-138680521D01*
X202751287Y-138680522D01*
X202832851Y-138727613D01*
X202881067Y-138778180D01*
X202894290Y-138846787D01*
X202868322Y-138911652D01*
X202832851Y-138942387D01*
X202751287Y-138989477D01*
X202751282Y-138989481D01*
X202639481Y-139101282D01*
X202639475Y-139101290D01*
X202560426Y-139238209D01*
X202560423Y-139238216D01*
X202519500Y-139390943D01*
X202519500Y-139549057D01*
X202559472Y-139698232D01*
X202560423Y-139701783D01*
X202560426Y-139701790D01*
X202639475Y-139838709D01*
X202639479Y-139838714D01*
X202639480Y-139838716D01*
X202751284Y-139950520D01*
X202751286Y-139950521D01*
X202751290Y-139950524D01*
X202839917Y-140001692D01*
X202888216Y-140029577D01*
X203040943Y-140070500D01*
X203040945Y-140070500D01*
X203199055Y-140070500D01*
X203199057Y-140070500D01*
X203351784Y-140029577D01*
X203488716Y-139950520D01*
X203600520Y-139838716D01*
X203647612Y-139757148D01*
X203698179Y-139708933D01*
X203766786Y-139695709D01*
X203831651Y-139721677D01*
X203862387Y-139757147D01*
X203909480Y-139838716D01*
X204021284Y-139950520D01*
X204021286Y-139950521D01*
X204021290Y-139950524D01*
X204109917Y-140001692D01*
X204158216Y-140029577D01*
X204310943Y-140070500D01*
X204310945Y-140070500D01*
X204469055Y-140070500D01*
X204469057Y-140070500D01*
X204621784Y-140029577D01*
X204758716Y-139950520D01*
X204870520Y-139838716D01*
X204917612Y-139757148D01*
X204968179Y-139708933D01*
X205036786Y-139695709D01*
X205101651Y-139721677D01*
X205132387Y-139757147D01*
X205179480Y-139838716D01*
X205291284Y-139950520D01*
X205291286Y-139950521D01*
X205291290Y-139950524D01*
X205379917Y-140001692D01*
X205428216Y-140029577D01*
X205580943Y-140070500D01*
X205580945Y-140070500D01*
X205739055Y-140070500D01*
X205739057Y-140070500D01*
X205891784Y-140029577D01*
X206028716Y-139950520D01*
X206140520Y-139838716D01*
X206187612Y-139757148D01*
X206238179Y-139708933D01*
X206306786Y-139695709D01*
X206371651Y-139721677D01*
X206402387Y-139757147D01*
X206449480Y-139838716D01*
X206561284Y-139950520D01*
X206561286Y-139950521D01*
X206561290Y-139950524D01*
X206649917Y-140001692D01*
X206698216Y-140029577D01*
X206850943Y-140070500D01*
X206850945Y-140070500D01*
X207009055Y-140070500D01*
X207009057Y-140070500D01*
X207161784Y-140029577D01*
X207298716Y-139950520D01*
X207410520Y-139838716D01*
X207457612Y-139757148D01*
X207508179Y-139708933D01*
X207576786Y-139695709D01*
X207641651Y-139721677D01*
X207672387Y-139757147D01*
X207719480Y-139838716D01*
X207831284Y-139950520D01*
X207831286Y-139950521D01*
X207831290Y-139950524D01*
X207919917Y-140001692D01*
X207968216Y-140029577D01*
X208120943Y-140070500D01*
X208120945Y-140070500D01*
X208279055Y-140070500D01*
X208279057Y-140070500D01*
X208431784Y-140029577D01*
X208568716Y-139950520D01*
X208680520Y-139838716D01*
X208759577Y-139701784D01*
X208800500Y-139549057D01*
X208800500Y-139390943D01*
X208759577Y-139238216D01*
X208758487Y-139236328D01*
X208680524Y-139101290D01*
X208680518Y-139101282D01*
X208591416Y-139012180D01*
X208557931Y-138950857D01*
X208562915Y-138881165D01*
X208604787Y-138825232D01*
X208670251Y-138800815D01*
X208679096Y-138800499D01*
X208709898Y-138800499D01*
X208739213Y-138794669D01*
X208772457Y-138772457D01*
X208794669Y-138739213D01*
X208794670Y-138739208D01*
X208800500Y-138709901D01*
X208800500Y-138333638D01*
X208800499Y-137690105D01*
X208800498Y-137690097D01*
X208794669Y-137660787D01*
X208772457Y-137627542D01*
X208739214Y-137605332D01*
X208739215Y-137605332D01*
X208739213Y-137605331D01*
X208739211Y-137605330D01*
X208739208Y-137605329D01*
X208709901Y-137599500D01*
X207690105Y-137599500D01*
X207690097Y-137599501D01*
X207660787Y-137605330D01*
X207627542Y-137627542D01*
X207605332Y-137660785D01*
X207605329Y-137660791D01*
X207599500Y-137690098D01*
X207599500Y-137832691D01*
X207579815Y-137899730D01*
X207563181Y-137920372D01*
X207255000Y-138228553D01*
X207255000Y-138157213D01*
X207232851Y-138074555D01*
X207190064Y-138000446D01*
X207129554Y-137939936D01*
X207055445Y-137897149D01*
X206972787Y-137875000D01*
X206887213Y-137875000D01*
X206804555Y-137897149D01*
X206730446Y-137939936D01*
X206669936Y-138000446D01*
X206627149Y-138074555D01*
X206605000Y-138157213D01*
X206605000Y-138242787D01*
X206627149Y-138325445D01*
X206669936Y-138399554D01*
X206730446Y-138460064D01*
X206804555Y-138502851D01*
X206887213Y-138525000D01*
X206958553Y-138525000D01*
X206382680Y-139100870D01*
X206321357Y-139134355D01*
X206251665Y-139129371D01*
X206207318Y-139100870D01*
X205631446Y-138525000D01*
X205702787Y-138525000D01*
X205785445Y-138502851D01*
X205859554Y-138460064D01*
X205920064Y-138399554D01*
X205962851Y-138325445D01*
X205985000Y-138242787D01*
X205985000Y-138200000D01*
X206013553Y-138200000D01*
X206295000Y-138481446D01*
X206295001Y-138481446D01*
X206576446Y-138200001D01*
X206576446Y-138199999D01*
X206295001Y-137918553D01*
X206295000Y-137918553D01*
X206013553Y-138200000D01*
X205985000Y-138200000D01*
X205985000Y-138157213D01*
X205962851Y-138074555D01*
X205920064Y-138000446D01*
X205859554Y-137939936D01*
X205785445Y-137897149D01*
X205702787Y-137875000D01*
X205617213Y-137875000D01*
X205534555Y-137897149D01*
X205460446Y-137939936D01*
X205399936Y-138000446D01*
X205357149Y-138074555D01*
X205335000Y-138157213D01*
X205335000Y-138228553D01*
X204797426Y-137690978D01*
X204761835Y-137694484D01*
X204693189Y-137681465D01*
X204687682Y-137678469D01*
X204621784Y-137640423D01*
X204490822Y-137605332D01*
X204469057Y-137599500D01*
X204310943Y-137599500D01*
X204158216Y-137640423D01*
X204158209Y-137640426D01*
X204021290Y-137719475D01*
X204021282Y-137719481D01*
X203909481Y-137831282D01*
X203909477Y-137831287D01*
X203862387Y-137912851D01*
X203811820Y-137961067D01*
X203743213Y-137974290D01*
X203678348Y-137948322D01*
X203647613Y-137912851D01*
X203600522Y-137831287D01*
X203600518Y-137831282D01*
X203488717Y-137719481D01*
X203488709Y-137719475D01*
X203351790Y-137640426D01*
X203351786Y-137640424D01*
X203351784Y-137640423D01*
X203199057Y-137599500D01*
X203040943Y-137599500D01*
X202888216Y-137640423D01*
X202888209Y-137640426D01*
X202751290Y-137719475D01*
X202751282Y-137719481D01*
X202639481Y-137831282D01*
X202639475Y-137831290D01*
X202560426Y-137968209D01*
X202560423Y-137968216D01*
X202519500Y-138120943D01*
X182800500Y-138120943D01*
X182800500Y-137337426D01*
X205150978Y-137337426D01*
X205660000Y-137846446D01*
X205660001Y-137846446D01*
X206169018Y-137337426D01*
X206420979Y-137337426D01*
X206930000Y-137846446D01*
X206930001Y-137846446D01*
X207439020Y-137337426D01*
X207438312Y-137336953D01*
X207403675Y-137313809D01*
X207403673Y-137313808D01*
X207221693Y-137238430D01*
X207221681Y-137238427D01*
X207215286Y-137237155D01*
X224350000Y-137237155D01*
X224350000Y-137885000D01*
X225266988Y-137885000D01*
X225234075Y-137942007D01*
X225200000Y-138069174D01*
X225200000Y-138200826D01*
X225234075Y-138327993D01*
X225266988Y-138385000D01*
X224350000Y-138385000D01*
X224350000Y-139032844D01*
X224356401Y-139092372D01*
X224356403Y-139092379D01*
X224406645Y-139227086D01*
X224406649Y-139227093D01*
X224492809Y-139342187D01*
X224492812Y-139342190D01*
X224607906Y-139428350D01*
X224607913Y-139428354D01*
X224742620Y-139478596D01*
X224742627Y-139478598D01*
X224802155Y-139484999D01*
X224802172Y-139485000D01*
X225551438Y-139485000D01*
X225618477Y-139504685D01*
X225664232Y-139557489D01*
X225674176Y-139626647D01*
X225645151Y-139690203D01*
X225586373Y-139727977D01*
X225575629Y-139730617D01*
X225422756Y-139761025D01*
X225422748Y-139761027D01*
X225249771Y-139832676D01*
X225249762Y-139832681D01*
X225094092Y-139936697D01*
X225094088Y-139936700D01*
X224961700Y-140069088D01*
X224961697Y-140069092D01*
X224857681Y-140224762D01*
X224857676Y-140224771D01*
X224786027Y-140397748D01*
X224786025Y-140397756D01*
X224749500Y-140581379D01*
X224749500Y-140768620D01*
X224786025Y-140952243D01*
X224786027Y-140952251D01*
X224857676Y-141125228D01*
X224857681Y-141125237D01*
X224961697Y-141280907D01*
X224961700Y-141280911D01*
X225094088Y-141413299D01*
X225094092Y-141413302D01*
X225249762Y-141517318D01*
X225249768Y-141517321D01*
X225249769Y-141517322D01*
X225422749Y-141588973D01*
X225606379Y-141625499D01*
X225606383Y-141625500D01*
X225606384Y-141625500D01*
X225793617Y-141625500D01*
X225793618Y-141625499D01*
X225977251Y-141588973D01*
X226150231Y-141517322D01*
X226305908Y-141413302D01*
X226438302Y-141280908D01*
X226542322Y-141125231D01*
X226613973Y-140952251D01*
X226650500Y-140768616D01*
X226650500Y-140581384D01*
X226613973Y-140397749D01*
X226542322Y-140224769D01*
X226542321Y-140224768D01*
X226542318Y-140224762D01*
X226438302Y-140069092D01*
X226438299Y-140069088D01*
X226305911Y-139936700D01*
X226305907Y-139936697D01*
X226150237Y-139832681D01*
X226150228Y-139832676D01*
X225977251Y-139761027D01*
X225977243Y-139761025D01*
X225824371Y-139730617D01*
X225762460Y-139698232D01*
X225727886Y-139637517D01*
X225731625Y-139567747D01*
X225772491Y-139511075D01*
X225837510Y-139485494D01*
X225848562Y-139485000D01*
X226597828Y-139485000D01*
X226597844Y-139484999D01*
X226657372Y-139478598D01*
X226657379Y-139478596D01*
X226792086Y-139428354D01*
X226792093Y-139428350D01*
X226907187Y-139342190D01*
X226907190Y-139342187D01*
X226993350Y-139227093D01*
X226993354Y-139227086D01*
X227043596Y-139092379D01*
X227043598Y-139092372D01*
X227049999Y-139032844D01*
X227050000Y-139032827D01*
X227050000Y-138385000D01*
X226133012Y-138385000D01*
X226165925Y-138327993D01*
X226200000Y-138200826D01*
X226200000Y-138069174D01*
X226165925Y-137942007D01*
X226133012Y-137885000D01*
X227050000Y-137885000D01*
X227050000Y-137237172D01*
X227049999Y-137237155D01*
X227043598Y-137177627D01*
X227043596Y-137177620D01*
X226993354Y-137042913D01*
X226993350Y-137042906D01*
X226907190Y-136927812D01*
X226907187Y-136927809D01*
X226792093Y-136841649D01*
X226792086Y-136841645D01*
X226657379Y-136791403D01*
X226657372Y-136791401D01*
X226597844Y-136785000D01*
X225950000Y-136785000D01*
X225950000Y-137701988D01*
X225892993Y-137669075D01*
X225765826Y-137635000D01*
X225634174Y-137635000D01*
X225507007Y-137669075D01*
X225450000Y-137701988D01*
X225450000Y-136785000D01*
X224802155Y-136785000D01*
X224742627Y-136791401D01*
X224742620Y-136791403D01*
X224607913Y-136841645D01*
X224607906Y-136841649D01*
X224492812Y-136927809D01*
X224492809Y-136927812D01*
X224406649Y-137042906D01*
X224406645Y-137042913D01*
X224356403Y-137177620D01*
X224356401Y-137177627D01*
X224350000Y-137237155D01*
X207215286Y-137237155D01*
X207028495Y-137200000D01*
X206831504Y-137200000D01*
X206638318Y-137238427D01*
X206638310Y-137238429D01*
X206456325Y-137313809D01*
X206456318Y-137313813D01*
X206420979Y-137337426D01*
X206169018Y-137337426D01*
X206169019Y-137337425D01*
X206133675Y-137313809D01*
X206133673Y-137313808D01*
X205951693Y-137238430D01*
X205951681Y-137238427D01*
X205758495Y-137200000D01*
X205561504Y-137200000D01*
X205368318Y-137238427D01*
X205368310Y-137238429D01*
X205186325Y-137313809D01*
X205186318Y-137313813D01*
X205150979Y-137337426D01*
X205150978Y-137337426D01*
X182800500Y-137337426D01*
X182800500Y-136883127D01*
X182801561Y-136866942D01*
X182811982Y-136787786D01*
X182811983Y-136787784D01*
X182820359Y-136756522D01*
X182847776Y-136690331D01*
X182863960Y-136662300D01*
X182907574Y-136605462D01*
X182930462Y-136582574D01*
X182987300Y-136538960D01*
X183015331Y-136522776D01*
X183081522Y-136495359D01*
X183112783Y-136486982D01*
X183168781Y-136479610D01*
X183191942Y-136476561D01*
X183208127Y-136475500D01*
X186152725Y-136475500D01*
X186152727Y-136475500D01*
X186254587Y-136448207D01*
X186309309Y-136416612D01*
X186371309Y-136400000D01*
X190028691Y-136400000D01*
X190090690Y-136416612D01*
G37*
%TD.AperFunction*%
%TD*%
M02*
