%TF.GenerationSoftware,KiCad,Pcbnew,9.0.1+1*%
%TF.CreationDate,2025-09-06T09:54:05+00:00*%
%TF.ProjectId,ZSWatch-Heartrate-DevKit,5a535761-7463-4682-9d48-656172747261,1.3.0*%
%TF.SameCoordinates,Original*%
%TF.FileFunction,Copper,L1,Top*%
%TF.FilePolarity,Positive*%
%FSLAX46Y46*%
G04 Gerber Fmt 4.6, Leading zero omitted, Abs format (unit mm)*
G04 Created by KiCad (PCBNEW 9.0.1+1) date 2025-09-06 09:54:05*
%MOMM*%
%LPD*%
G01*
G04 APERTURE LIST*
G04 Aperture macros list*
%AMRoundRect*
0 Rectangle with rounded corners*
0 $1 Rounding radius*
0 $2 $3 $4 $5 $6 $7 $8 $9 X,Y pos of 4 corners*
0 Add a 4 corners polygon primitive as box body*
4,1,4,$2,$3,$4,$5,$6,$7,$8,$9,$2,$3,0*
0 Add four circle primitives for the rounded corners*
1,1,$1+$1,$2,$3*
1,1,$1+$1,$4,$5*
1,1,$1+$1,$6,$7*
1,1,$1+$1,$8,$9*
0 Add four rect primitives between the rounded corners*
20,1,$1+$1,$2,$3,$4,$5,0*
20,1,$1+$1,$4,$5,$6,$7,0*
20,1,$1+$1,$6,$7,$8,$9,0*
20,1,$1+$1,$8,$9,$2,$3,0*%
%AMOutline4P*
0 Free polygon, 4 corners , with rotation*
0 The origin of the aperture is its center*
0 number of corners: always 4*
0 $1 to $8 corner X, Y*
0 $9 Rotation angle, in degrees counterclockwise*
0 create outline with 4 corners*
4,1,4,$1,$2,$3,$4,$5,$6,$7,$8,$1,$2,$9*%
G04 Aperture macros list end*
%TA.AperFunction,NonConductor*%
%ADD10C,0.200000*%
%TD*%
%ADD11C,0.120000*%
%TA.AperFunction,NonConductor*%
%ADD12C,0.120000*%
%TD*%
%TA.AperFunction,SMDPad,CuDef*%
%ADD13RoundRect,0.225000X-0.225000X-0.250000X0.225000X-0.250000X0.225000X0.250000X-0.225000X0.250000X0*%
%TD*%
%TA.AperFunction,SMDPad,CuDef*%
%ADD14RoundRect,0.140000X-0.140000X-0.170000X0.140000X-0.170000X0.140000X0.170000X-0.140000X0.170000X0*%
%TD*%
%TA.AperFunction,SMDPad,CuDef*%
%ADD15RoundRect,0.140000X0.170000X-0.140000X0.170000X0.140000X-0.170000X0.140000X-0.170000X-0.140000X0*%
%TD*%
%TA.AperFunction,SMDPad,CuDef*%
%ADD16RoundRect,0.250000X0.450000X-0.262500X0.450000X0.262500X-0.450000X0.262500X-0.450000X-0.262500X0*%
%TD*%
%TA.AperFunction,BGAPad,CuDef*%
%ADD17C,0.230000*%
%TD*%
%TA.AperFunction,SMDPad,CuDef*%
%ADD18RoundRect,0.150000X-0.425000X0.150000X-0.425000X-0.150000X0.425000X-0.150000X0.425000X0.150000X0*%
%TD*%
%TA.AperFunction,SMDPad,CuDef*%
%ADD19RoundRect,0.075000X-0.500000X0.075000X-0.500000X-0.075000X0.500000X-0.075000X0.500000X0.075000X0*%
%TD*%
%TA.AperFunction,ComponentPad*%
%ADD20O,2.100000X1.000000*%
%TD*%
%TA.AperFunction,ComponentPad*%
%ADD21O,1.800000X1.000000*%
%TD*%
%TA.AperFunction,SMDPad,CuDef*%
%ADD22RoundRect,0.135000X0.135000X0.185000X-0.135000X0.185000X-0.135000X-0.185000X0.135000X-0.185000X0*%
%TD*%
%TA.AperFunction,ComponentPad*%
%ADD23R,1.700000X1.700000*%
%TD*%
%TA.AperFunction,ComponentPad*%
%ADD24C,1.700000*%
%TD*%
%TA.AperFunction,SMDPad,CuDef*%
%ADD25RoundRect,0.135000X0.185000X-0.135000X0.185000X0.135000X-0.185000X0.135000X-0.185000X-0.135000X0*%
%TD*%
%TA.AperFunction,SMDPad,CuDef*%
%ADD26RoundRect,0.140000X0.140000X0.170000X-0.140000X0.170000X-0.140000X-0.170000X0.140000X-0.170000X0*%
%TD*%
%TA.AperFunction,ComponentPad*%
%ADD27R,1.000000X1.000000*%
%TD*%
%TA.AperFunction,ComponentPad*%
%ADD28C,1.000000*%
%TD*%
%TA.AperFunction,SMDPad,CuDef*%
%ADD29RoundRect,0.250000X0.450000X-0.325000X0.450000X0.325000X-0.450000X0.325000X-0.450000X-0.325000X0*%
%TD*%
%TA.AperFunction,SMDPad,CuDef*%
%ADD30R,1.140000X0.575000*%
%TD*%
%TA.AperFunction,SMDPad,CuDef*%
%ADD31R,0.200000X0.700000*%
%TD*%
%TA.AperFunction,SMDPad,CuDef*%
%ADD32Outline4P,-0.360000X-0.180000X0.360000X-0.180000X0.000000X0.180000X0.000000X0.180000X315.000000*%
%TD*%
%TA.AperFunction,SMDPad,CuDef*%
%ADD33R,0.700000X0.200000*%
%TD*%
%TA.AperFunction,SMDPad,CuDef*%
%ADD34Outline4P,-0.360000X-0.180000X0.360000X-0.180000X0.000000X0.180000X0.000000X0.180000X45.000000*%
%TD*%
%TA.AperFunction,SMDPad,CuDef*%
%ADD35Outline4P,-0.360000X-0.180000X0.360000X-0.180000X0.000000X0.180000X0.000000X0.180000X135.000000*%
%TD*%
%TA.AperFunction,SMDPad,CuDef*%
%ADD36Outline4P,-0.360000X-0.180000X0.360000X-0.180000X0.000000X0.180000X0.000000X0.180000X225.000000*%
%TD*%
%TA.AperFunction,SMDPad,CuDef*%
%ADD37R,1.701800X1.701800*%
%TD*%
%TA.AperFunction,SMDPad,CuDef*%
%ADD38RoundRect,0.150000X0.587500X0.150000X-0.587500X0.150000X-0.587500X-0.150000X0.587500X-0.150000X0*%
%TD*%
%TA.AperFunction,SMDPad,CuDef*%
%ADD39R,1.300000X1.500000*%
%TD*%
%TA.AperFunction,SMDPad,CuDef*%
%ADD40R,0.350000X0.375000*%
%TD*%
%TA.AperFunction,SMDPad,CuDef*%
%ADD41R,0.375000X0.350000*%
%TD*%
%TA.AperFunction,SMDPad,CuDef*%
%ADD42RoundRect,0.150000X-0.512500X-0.150000X0.512500X-0.150000X0.512500X0.150000X-0.512500X0.150000X0*%
%TD*%
%TA.AperFunction,SMDPad,CuDef*%
%ADD43RoundRect,0.203200X-0.000010X-0.000010X0.000010X-0.000010X0.000010X0.000010X-0.000010X0.000010X0*%
%TD*%
%TA.AperFunction,SMDPad,CuDef*%
%ADD44R,0.457200X0.406400*%
%TD*%
%TA.AperFunction,SMDPad,CuDef*%
%ADD45R,0.463000X0.406400*%
%TD*%
%TA.AperFunction,SMDPad,CuDef*%
%ADD46RoundRect,0.225000X0.225000X0.250000X-0.225000X0.250000X-0.225000X-0.250000X0.225000X-0.250000X0*%
%TD*%
%TA.AperFunction,SMDPad,CuDef*%
%ADD47RoundRect,0.140000X-0.170000X0.140000X-0.170000X-0.140000X0.170000X-0.140000X0.170000X0.140000X0*%
%TD*%
%TA.AperFunction,SMDPad,CuDef*%
%ADD48RoundRect,0.135000X-0.135000X-0.185000X0.135000X-0.185000X0.135000X0.185000X-0.135000X0.185000X0*%
%TD*%
%TA.AperFunction,SMDPad,CuDef*%
%ADD49RoundRect,0.150000X0.512500X0.150000X-0.512500X0.150000X-0.512500X-0.150000X0.512500X-0.150000X0*%
%TD*%
%TA.AperFunction,SMDPad,CuDef*%
%ADD50RoundRect,0.218750X-0.256250X0.218750X-0.256250X-0.218750X0.256250X-0.218750X0.256250X0.218750X0*%
%TD*%
%TA.AperFunction,SMDPad,CuDef*%
%ADD51RoundRect,0.150000X0.150000X0.275000X-0.150000X0.275000X-0.150000X-0.275000X0.150000X-0.275000X0*%
%TD*%
%TA.AperFunction,SMDPad,CuDef*%
%ADD52RoundRect,0.175000X0.175000X0.225000X-0.175000X0.225000X-0.175000X-0.225000X0.175000X-0.225000X0*%
%TD*%
%TA.AperFunction,SMDPad,CuDef*%
%ADD53C,0.250000*%
%TD*%
%TA.AperFunction,ViaPad*%
%ADD54C,0.350000*%
%TD*%
%TA.AperFunction,Conductor*%
%ADD55C,0.200000*%
%TD*%
%TA.AperFunction,Conductor*%
%ADD56C,0.150000*%
%TD*%
%TA.AperFunction,Conductor*%
%ADD57C,0.400000*%
%TD*%
G04 APERTURE END LIST*
D10*
X215100000Y-137200000D02*
X223300000Y-137200000D01*
X223300000Y-139100000D01*
X215100000Y-139100000D01*
X215100000Y-137200000D01*
D11*
D12*
X218285714Y-138463855D02*
X217828571Y-138463855D01*
X218057143Y-138463855D02*
X218057143Y-137663855D01*
X218057143Y-137663855D02*
X217980952Y-137778140D01*
X217980952Y-137778140D02*
X217904762Y-137854331D01*
X217904762Y-137854331D02*
X217828571Y-137892426D01*
X218628572Y-138387664D02*
X218666667Y-138425760D01*
X218666667Y-138425760D02*
X218628572Y-138463855D01*
X218628572Y-138463855D02*
X218590476Y-138425760D01*
X218590476Y-138425760D02*
X218628572Y-138387664D01*
X218628572Y-138387664D02*
X218628572Y-138463855D01*
X218933333Y-137663855D02*
X219428571Y-137663855D01*
X219428571Y-137663855D02*
X219161905Y-137968617D01*
X219161905Y-137968617D02*
X219276190Y-137968617D01*
X219276190Y-137968617D02*
X219352381Y-138006712D01*
X219352381Y-138006712D02*
X219390476Y-138044807D01*
X219390476Y-138044807D02*
X219428571Y-138120998D01*
X219428571Y-138120998D02*
X219428571Y-138311474D01*
X219428571Y-138311474D02*
X219390476Y-138387664D01*
X219390476Y-138387664D02*
X219352381Y-138425760D01*
X219352381Y-138425760D02*
X219276190Y-138463855D01*
X219276190Y-138463855D02*
X219047619Y-138463855D01*
X219047619Y-138463855D02*
X218971428Y-138425760D01*
X218971428Y-138425760D02*
X218933333Y-138387664D01*
X219771429Y-138387664D02*
X219809524Y-138425760D01*
X219809524Y-138425760D02*
X219771429Y-138463855D01*
X219771429Y-138463855D02*
X219733333Y-138425760D01*
X219733333Y-138425760D02*
X219771429Y-138387664D01*
X219771429Y-138387664D02*
X219771429Y-138463855D01*
X220304762Y-137663855D02*
X220380952Y-137663855D01*
X220380952Y-137663855D02*
X220457143Y-137701950D01*
X220457143Y-137701950D02*
X220495238Y-137740045D01*
X220495238Y-137740045D02*
X220533333Y-137816236D01*
X220533333Y-137816236D02*
X220571428Y-137968617D01*
X220571428Y-137968617D02*
X220571428Y-138159093D01*
X220571428Y-138159093D02*
X220533333Y-138311474D01*
X220533333Y-138311474D02*
X220495238Y-138387664D01*
X220495238Y-138387664D02*
X220457143Y-138425760D01*
X220457143Y-138425760D02*
X220380952Y-138463855D01*
X220380952Y-138463855D02*
X220304762Y-138463855D01*
X220304762Y-138463855D02*
X220228571Y-138425760D01*
X220228571Y-138425760D02*
X220190476Y-138387664D01*
X220190476Y-138387664D02*
X220152381Y-138311474D01*
X220152381Y-138311474D02*
X220114285Y-138159093D01*
X220114285Y-138159093D02*
X220114285Y-137968617D01*
X220114285Y-137968617D02*
X220152381Y-137816236D01*
X220152381Y-137816236D02*
X220190476Y-137740045D01*
X220190476Y-137740045D02*
X220228571Y-137701950D01*
X220228571Y-137701950D02*
X220304762Y-137663855D01*
D13*
%TO.P,C401,1*%
%TO.N,/Project Architecture/Main/V_{BAT}*%
X195850000Y-148025000D03*
%TO.P,C401,2*%
%TO.N,GND*%
X197400000Y-148025000D03*
%TD*%
D14*
%TO.P,C412,1*%
%TO.N,/Project Architecture/Main/V_{LED}*%
X212700000Y-148475000D03*
%TO.P,C412,2*%
%TO.N,GND*%
X213660000Y-148475000D03*
%TD*%
D15*
%TO.P,C416,1*%
%TO.N,+1V8*%
X200400000Y-153335000D03*
%TO.P,C416,2*%
%TO.N,GND*%
X200400000Y-152375000D03*
%TD*%
D16*
%TO.P,R403,1*%
%TO.N,Net-(M401-P0.01)*%
X193510000Y-152887500D03*
%TO.P,R403,2*%
%TO.N,/Project Architecture/Main/ENABLE_{LED}*%
X193510000Y-151062500D03*
%TD*%
D17*
%TO.P,IC402,A1,IN*%
%TO.N,/Project Architecture/Main/V_{BAT}*%
X195450000Y-149225000D03*
%TO.P,IC402,A2,GND*%
%TO.N,GND*%
X195850000Y-149225000D03*
%TO.P,IC402,B1,L*%
%TO.N,Net-(IC402-L)*%
X195450000Y-149625000D03*
%TO.P,IC402,B2,OUT*%
%TO.N,/Project Architecture/Main/V_{LED}*%
X195850000Y-149625000D03*
%TO.P,IC402,C1,EN*%
%TO.N,/Project Architecture/Main/ENABLE_{LED}*%
X195450000Y-150025000D03*
%TO.P,IC402,C2,FB*%
%TO.N,/Project Architecture/Main/V_{LED}*%
X195850000Y-150025000D03*
%TD*%
D18*
%TO.P,X401,A1,GND*%
%TO.N,GND*%
X190005000Y-140830000D03*
%TO.P,X401,A4,VBUS*%
%TO.N,Net-(IC403-V_{DD})*%
X190005000Y-141630000D03*
D19*
%TO.P,X401,A5,CC1*%
%TO.N,Net-(X401-CC1)*%
X190005000Y-142780000D03*
%TO.P,X401,A6,D+*%
%TO.N,unconnected-(X401-D+-PadA6)*%
X190005000Y-143780000D03*
%TO.P,X401,A7,D-*%
%TO.N,unconnected-(X401-D--PadA7)*%
X190005000Y-144280000D03*
%TO.P,X401,A8*%
%TO.N,N/C*%
X190005000Y-145280000D03*
D18*
%TO.P,X401,A9,VBUS*%
%TO.N,Net-(IC403-V_{DD})*%
X190005000Y-146430000D03*
%TO.P,X401,A12,GND*%
%TO.N,GND*%
X190005000Y-147230000D03*
%TO.P,X401,B1,GND*%
X190005000Y-147230000D03*
%TO.P,X401,B4,VBUS*%
%TO.N,Net-(IC403-V_{DD})*%
X190005000Y-146430000D03*
D19*
%TO.P,X401,B5,CC2*%
%TO.N,Net-(X401-CC2)*%
X190005000Y-145780000D03*
%TO.P,X401,B6,D+*%
%TO.N,unconnected-(X401-D+-PadB6)*%
X190005000Y-144780000D03*
%TO.P,X401,B7,D-*%
%TO.N,unconnected-(X401-D--PadB7)*%
X190005000Y-143280000D03*
%TO.P,X401,B8*%
%TO.N,N/C*%
X190005000Y-142280000D03*
D18*
%TO.P,X401,B9,VBUS*%
%TO.N,Net-(IC403-V_{DD})*%
X190005000Y-141630000D03*
%TO.P,X401,B12,GND*%
%TO.N,GND*%
X190005000Y-140830000D03*
D20*
%TO.P,X401,S1,SHIELD*%
X189430000Y-139710000D03*
D21*
X185250000Y-139710000D03*
D20*
X189430000Y-148350000D03*
D21*
X185250000Y-148350000D03*
%TD*%
D22*
%TO.P,R401,1*%
%TO.N,/Project Architecture/Main/V_{BAT}*%
X188210000Y-150350000D03*
%TO.P,R401,2*%
%TO.N,Net-(D401-A)*%
X187190000Y-150350000D03*
%TD*%
%TO.P,R409,1*%
%TO.N,+1V8*%
X212210000Y-155000000D03*
%TO.P,R409,2*%
%TO.N,Net-(IC404-INT_{PPG})*%
X211190000Y-155000000D03*
%TD*%
D23*
%TO.P,J402,1,Pin_1*%
%TO.N,GND*%
X225700000Y-138135000D03*
D24*
%TO.P,J402,2,Pin_2*%
%TO.N,Net-(IC404-SCLK_{SENSOR})*%
X225700000Y-140675000D03*
%TO.P,J402,3,Pin_3*%
%TO.N,Net-(IC404-MISO_{SENSOR})*%
X225700000Y-143215000D03*
%TO.P,J402,4,Pin_4*%
%TO.N,Net-(IC404-MOSI_{SENSOR})*%
X225700000Y-145755000D03*
%TO.P,J402,5,Pin_5*%
%TO.N,Net-(IC404-CS_{PPG})*%
X225700000Y-148295000D03*
%TO.P,J402,6,Pin_6*%
%TO.N,Net-(IC404-CS_{ACC})*%
X225700000Y-150835000D03*
%TO.P,J402,7,Pin_7*%
%TO.N,/Project Architecture/Main/STATUS*%
X225700000Y-153375000D03*
%TD*%
D14*
%TO.P,C410,1*%
%TO.N,Net-(IC404-V_{CORE})*%
X213100000Y-155650000D03*
%TO.P,C410,2*%
%TO.N,GND*%
X214060000Y-155650000D03*
%TD*%
D25*
%TO.P,R406,1*%
%TO.N,Net-(IC403-PROG)*%
X196000000Y-146400000D03*
%TO.P,R406,2*%
%TO.N,GND*%
X196000000Y-145380000D03*
%TD*%
D15*
%TO.P,C411,1*%
%TO.N,+1V8*%
X201700000Y-153335000D03*
%TO.P,C411,2*%
%TO.N,GND*%
X201700000Y-152375000D03*
%TD*%
D14*
%TO.P,C408,1*%
%TO.N,+1V8*%
X213090000Y-156650000D03*
%TO.P,C408,2*%
%TO.N,GND*%
X214050000Y-156650000D03*
%TD*%
D26*
%TO.P,C409,1*%
%TO.N,+1V8*%
X207480000Y-157925000D03*
%TO.P,C409,2*%
%TO.N,GND*%
X206520000Y-157925000D03*
%TD*%
D23*
%TO.P,J401,1,Pin_1*%
%TO.N,/Project Architecture/Main/SDA*%
X225700000Y-156975000D03*
D24*
%TO.P,J401,2,Pin_2*%
%TO.N,/Project Architecture/Main/SCL*%
X225700000Y-159515000D03*
%TO.P,J401,3,Pin_3*%
%TO.N,/Project Architecture/Main/~{RESET_{HR}}*%
X225700000Y-162055000D03*
%TO.P,J401,4,Pin_4*%
%TO.N,GND*%
X225700000Y-164595000D03*
%TD*%
D27*
%TO.P,X403,1,VTref*%
%TO.N,+1V8*%
X208200000Y-138200000D03*
D28*
%TO.P,X403,2,SWDIO/TMS*%
%TO.N,/Project Architecture/Main/SWDIO*%
X208200000Y-139470000D03*
%TO.P,X403,3,GND*%
%TO.N,GND*%
X206930000Y-138200000D03*
%TO.P,X403,4,SWCLK/TCK*%
%TO.N,/Project Architecture/Main/SWDCLK*%
X206930000Y-139470000D03*
%TO.P,X403,5,GND*%
%TO.N,GND*%
X205660000Y-138200000D03*
%TO.P,X403,6,SWO/TDO*%
%TO.N,unconnected-(X403-SWO{slash}TDO-Pad6)*%
X205660000Y-139470000D03*
%TO.P,X403,7,KEY*%
%TO.N,unconnected-(X403-KEY-Pad7)*%
X204390000Y-138200000D03*
%TO.P,X403,8,NC/TDI*%
%TO.N,unconnected-(X403-NC{slash}TDI-Pad8)*%
X204390000Y-139470000D03*
%TO.P,X403,9,GNDDetect*%
%TO.N,unconnected-(X403-GNDDetect-Pad9)*%
X203120000Y-138200000D03*
%TO.P,X403,10,~{RESET}*%
%TO.N,/Project Architecture/Main/~{RESET}*%
X203120000Y-139470000D03*
%TD*%
D29*
%TO.P,D401,1,K*%
%TO.N,Net-(D401-K)*%
X184900000Y-152400000D03*
%TO.P,D401,2,A*%
%TO.N,Net-(D401-A)*%
X184900000Y-150350000D03*
%TD*%
D30*
%TO.P,Y401,1,1*%
%TO.N,Net-(IC404-32k_{OUT})*%
X213500000Y-158687500D03*
%TO.P,Y401,2,2*%
%TO.N,Net-(IC404-32k_{IN})*%
X213500000Y-157862500D03*
%TD*%
D26*
%TO.P,C417,1*%
%TO.N,+1V8*%
X209980000Y-146775000D03*
%TO.P,C417,2*%
%TO.N,GND*%
X209020000Y-146775000D03*
%TD*%
D31*
%TO.P,IC404,1,MFIO*%
%TO.N,/Project Architecture/Main/STATUS*%
X209230000Y-159050000D03*
D32*
X209010000Y-159020000D03*
D33*
X208980000Y-158800000D03*
D31*
%TO.P,IC404,2,CS_{ACC}*%
%TO.N,Net-(IC404-CS_{ACC})*%
X209630000Y-159050000D03*
%TO.P,IC404,3*%
%TO.N,N/C*%
X210030000Y-159050000D03*
%TO.P,IC404,4*%
X210430000Y-159050000D03*
%TO.P,IC404,5*%
X210830000Y-159050000D03*
%TO.P,IC404,6,~{RESET}*%
%TO.N,/Project Architecture/Main/~{RESET_{HR}}*%
X211230000Y-159050000D03*
%TO.P,IC404,7,GND*%
%TO.N,GND*%
X211630000Y-159050000D03*
D34*
X211850000Y-159020000D03*
D33*
X211880000Y-158800000D03*
%TO.P,IC404,8,32k_{OUT}*%
%TO.N,Net-(IC404-32k_{OUT})*%
X211880000Y-158400000D03*
%TO.P,IC404,9,32k_{IN}*%
%TO.N,Net-(IC404-32k_{IN})*%
X211880000Y-158000000D03*
%TO.P,IC404,10,GND*%
%TO.N,GND*%
X211880000Y-157600000D03*
%TO.P,IC404,11,V_{DD}*%
%TO.N,+1V8*%
X211880000Y-157200000D03*
%TO.P,IC404,12,V_{CORE}*%
%TO.N,Net-(IC404-V_{CORE})*%
X211880000Y-156800000D03*
%TO.P,IC404,13,INT_{ACC}*%
%TO.N,/Project Architecture/Main/INT_{ACC}*%
X211880000Y-156400000D03*
D35*
X211850000Y-156180000D03*
D31*
X211630000Y-156150000D03*
%TO.P,IC404,14,INT_{PPG}*%
%TO.N,Net-(IC404-INT_{PPG})*%
X211230000Y-156150000D03*
%TO.P,IC404,15*%
%TO.N,N/C*%
X210830000Y-156150000D03*
%TO.P,IC404,16*%
X210430000Y-156150000D03*
%TO.P,IC404,17*%
X210030000Y-156150000D03*
%TO.P,IC404,18,CS_{PPG}*%
%TO.N,Net-(IC404-CS_{PPG})*%
X209630000Y-156150000D03*
D33*
%TO.P,IC404,19,SCLK_{SENSOR}*%
%TO.N,Net-(IC404-SCLK_{SENSOR})*%
X208980000Y-156400000D03*
D36*
X209010000Y-156180000D03*
D31*
X209230000Y-156150000D03*
D33*
%TO.P,IC404,20,MOSI_{SENSOR}*%
%TO.N,Net-(IC404-MOSI_{SENSOR})*%
X208980000Y-156800000D03*
%TO.P,IC404,21,MISO_{SENSOR}*%
%TO.N,Net-(IC404-MISO_{SENSOR})*%
X208980000Y-157200000D03*
%TO.P,IC404,22,V_{DD}*%
%TO.N,+1V8*%
X208980000Y-157600000D03*
%TO.P,IC404,23,SDA*%
%TO.N,/Project Architecture/Main/SDA*%
X208980000Y-158000000D03*
%TO.P,IC404,24,SCL*%
%TO.N,/Project Architecture/Main/SCL*%
X208980000Y-158400000D03*
D37*
%TO.P,IC404,25*%
%TO.N,N/C*%
X210430000Y-157600000D03*
%TD*%
D38*
%TO.P,Q401,1,G*%
%TO.N,Net-(M401-P0.02)*%
X191200000Y-153075000D03*
%TO.P,Q401,2,S*%
%TO.N,GND*%
X191200000Y-151175000D03*
%TO.P,Q401,3,D*%
%TO.N,Net-(D401-K)*%
X189325000Y-152125000D03*
%TD*%
D26*
%TO.P,C406,1*%
%TO.N,+1V8*%
X197180000Y-164600000D03*
%TO.P,C406,2*%
%TO.N,GND*%
X196220000Y-164600000D03*
%TD*%
D22*
%TO.P,R405,1*%
%TO.N,GND*%
X193160000Y-145780000D03*
%TO.P,R405,2*%
%TO.N,Net-(X401-CC2)*%
X192140000Y-145780000D03*
%TD*%
D39*
%TO.P,SW401,1,1*%
%TO.N,/Project Architecture/Main/~{RESET}*%
X215600000Y-161500000D03*
%TO.P,SW401,2,2*%
%TO.N,GND*%
X220100000Y-161500000D03*
%TO.P,SW401,3,3*%
%TO.N,/Project Architecture/Main/~{RESET}*%
X215600000Y-153550000D03*
%TO.P,SW401,4,4*%
%TO.N,GND*%
X220100000Y-153550000D03*
%TD*%
D40*
%TO.P,IC406,1,SCL/SCLK*%
%TO.N,Net-(IC404-SCLK_{SENSOR})*%
X200687500Y-155867500D03*
%TO.P,IC406,2,CS*%
%TO.N,Net-(IC404-CS_{ACC})*%
X201187500Y-155867500D03*
%TO.P,IC406,3,SDO/ADDR0*%
%TO.N,Net-(IC404-MISO_{SENSOR})*%
X201687500Y-155867500D03*
%TO.P,IC406,4,SDA/SDI/SDO*%
%TO.N,Net-(IC404-MOSI_{SENSOR})*%
X202187500Y-155867500D03*
D41*
%TO.P,IC406,5,NC*%
%TO.N,unconnected-(IC406-NC-Pad5)*%
X202200000Y-155355000D03*
%TO.P,IC406,6,GND*%
%TO.N,GND*%
X202200000Y-154855000D03*
D40*
%TO.P,IC406,7,RES*%
X202187500Y-154342500D03*
%TO.P,IC406,8,GND*%
X201687500Y-154342500D03*
%TO.P,IC406,9,VDD*%
%TO.N,+1V8*%
X201187500Y-154342500D03*
%TO.P,IC406,10,VDD_{IO}*%
X200687500Y-154342500D03*
D41*
%TO.P,IC406,11,INT2*%
%TO.N,unconnected-(IC406-INT2-Pad11)*%
X200675000Y-154855000D03*
%TO.P,IC406,12,INT1*%
%TO.N,/Project Architecture/Main/INT_{ACC}*%
X200675000Y-155355000D03*
%TD*%
D15*
%TO.P,C414,1*%
%TO.N,+1V8*%
X202700000Y-153335000D03*
%TO.P,C414,2*%
%TO.N,GND*%
X202700000Y-152375000D03*
%TD*%
D42*
%TO.P,IC401,1,IN*%
%TO.N,/Project Architecture/Main/V_{BAT}*%
X202625000Y-143500000D03*
%TO.P,IC401,2,GND*%
%TO.N,GND*%
X202625000Y-144450000D03*
%TO.P,IC401,3,EN*%
%TO.N,/Project Architecture/Main/V_{BAT}*%
X202625000Y-145400000D03*
%TO.P,IC401,4,FLG*%
%TO.N,unconnected-(IC401-FLG-Pad4)*%
X204900000Y-145400000D03*
%TO.P,IC401,5,OUT*%
%TO.N,+1V8*%
X204900000Y-143500000D03*
%TD*%
D43*
%TO.P,M401,A1,GND*%
%TO.N,GND*%
X190817600Y-163113600D03*
%TO.P,M401,A3,P1.09*%
%TO.N,unconnected-(M401-P1.09-PadA3)*%
X192621000Y-163113600D03*
%TO.P,M401,A9,GND*%
%TO.N,GND*%
X198005800Y-163113600D03*
D44*
X198234400Y-163113600D03*
D43*
%TO.P,M401,B1,GND*%
X190817600Y-162224600D03*
%TO.P,M401,B2,P1.10*%
%TO.N,unconnected-(M401-P1.10-PadB2)*%
X191706600Y-162224600D03*
%TO.P,M401,B3,P1.11/AIN4*%
%TO.N,unconnected-(M401-P1.11{slash}AIN4-PadB3)*%
X192621000Y-162224600D03*
%TO.P,M401,B4,P1.12/AIN5*%
%TO.N,unconnected-(M401-P1.12{slash}AIN5-PadB4)*%
X193510000Y-162224600D03*
%TO.P,M401,B5,P1.13/AIN6*%
%TO.N,unconnected-(M401-P1.13{slash}AIN6-PadB5)*%
X194399000Y-162224600D03*
%TO.P,M401,B6,P1.14/AIN7*%
%TO.N,unconnected-(M401-P1.14{slash}AIN7-PadB6)*%
X195313400Y-162224600D03*
%TO.P,M401,B7,GND*%
%TO.N,GND*%
X196202400Y-162224600D03*
%TO.P,M401,B8,VDD*%
%TO.N,+1V8*%
X197116800Y-162224600D03*
%TO.P,M401,B9,GND*%
%TO.N,GND*%
X198005800Y-162224600D03*
D44*
X198234400Y-162224600D03*
D43*
%TO.P,M401,C8,VDD*%
%TO.N,+1V8*%
X197116800Y-161335600D03*
%TO.P,M401,C9,P1.01/32K*%
%TO.N,unconnected-(M401-P1.01{slash}32K-PadC9)*%
X198005800Y-161335600D03*
D44*
%TO.N,unconnected-(M401-P1.01{slash}32K-PadC9)_1*%
X198234400Y-161335600D03*
D43*
%TO.P,M401,D1,GND*%
%TO.N,GND*%
X190817600Y-160421200D03*
%TO.P,M401,D8,P1.00/32K*%
%TO.N,unconnected-(M401-P1.00{slash}32K-PadD8)*%
X197116800Y-160421200D03*
%TO.P,M401,D9,P1.02/NFC1*%
%TO.N,unconnected-(M401-P1.02{slash}NFC1-PadD9)*%
X198005800Y-160421200D03*
D44*
%TO.N,unconnected-(M401-P1.02{slash}NFC1-PadD9)_1*%
X198234400Y-160421200D03*
D43*
%TO.P,M401,E1,GND*%
%TO.N,GND*%
X190817600Y-159532200D03*
%TO.P,M401,E8,P1.03/NFC2*%
%TO.N,unconnected-(M401-P1.03{slash}NFC2-PadE8)*%
X197116800Y-159532200D03*
%TO.P,M401,E9,P1.04/AIN0*%
%TO.N,unconnected-(M401-P1.04{slash}AIN0-PadE9)_1*%
X198005800Y-159532200D03*
D44*
%TO.N,unconnected-(M401-P1.04{slash}AIN0-PadE9)*%
X198234400Y-159532200D03*
D43*
%TO.P,M401,F1,GND*%
%TO.N,GND*%
X190817600Y-158617800D03*
%TO.P,M401,F8,P1.05/AIN1*%
%TO.N,unconnected-(M401-P1.05{slash}AIN1-PadF8)*%
X197116800Y-158617800D03*
%TO.P,M401,F9,P1.06/AIN2*%
%TO.N,unconnected-(M401-P1.06{slash}AIN2-PadF9)*%
X198005800Y-158617800D03*
D44*
%TO.N,unconnected-(M401-P1.06{slash}AIN2-PadF9)_1*%
X198234400Y-158617800D03*
D43*
%TO.P,M401,G2,~{RESET}*%
%TO.N,/Project Architecture/Main/~{RESET}*%
X191706600Y-157728800D03*
%TO.P,M401,G8,P1.08*%
%TO.N,/Project Architecture/Main/SCL*%
X197116800Y-157728800D03*
%TO.P,M401,G9,P1.07/AIN3*%
%TO.N,/Project Architecture/Main/SDA*%
X198005800Y-157728800D03*
D44*
X198234400Y-157728800D03*
D43*
%TO.P,M401,H2,P0.04*%
%TO.N,unconnected-(M401-P0.04-PadH2)*%
X191706600Y-156814400D03*
%TO.P,M401,H8,GND*%
%TO.N,GND*%
X197116800Y-156814400D03*
%TO.P,M401,H9,P2.00*%
%TO.N,/Project Architecture/Main/~{RESET_{HR}}*%
X198005800Y-156814400D03*
D44*
X198234400Y-156814400D03*
D43*
%TO.P,M401,J2,P0.03*%
%TO.N,unconnected-(M401-P0.03-PadJ2)*%
X191706600Y-155925400D03*
%TO.P,M401,J3,SWDIO*%
%TO.N,/Project Architecture/Main/SWDIO*%
X192621000Y-155925400D03*
%TO.P,M401,J4,P0.00*%
%TO.N,unconnected-(M401-P0.00-PadJ4)*%
X193510000Y-155925400D03*
%TO.P,M401,J5,P2.09*%
%TO.N,unconnected-(M401-P2.09-PadJ5)*%
X194399000Y-155925400D03*
%TO.P,M401,J6,P2.07*%
%TO.N,unconnected-(M401-P2.07-PadJ6)*%
X195313400Y-155925400D03*
%TO.P,M401,J7,P2.03*%
%TO.N,Net-(M401-P2.03)*%
X196202400Y-155925400D03*
%TO.P,M401,J8,P2.02*%
%TO.N,unconnected-(M401-P2.02-PadJ8)*%
X197116800Y-155925400D03*
%TO.P,M401,J9,P2.01*%
%TO.N,/Project Architecture/Main/STATUS*%
X198005800Y-155925400D03*
D44*
X198234400Y-155925400D03*
D43*
%TO.P,M401,K2,P0.02*%
%TO.N,Net-(M401-P0.02)*%
X191706600Y-155036400D03*
%TO.P,M401,K3,SWDCLK*%
%TO.N,/Project Architecture/Main/SWDCLK*%
X192621000Y-155036400D03*
%TO.P,M401,K4,P0.01*%
%TO.N,Net-(M401-P0.01)*%
X193510000Y-155036400D03*
%TO.P,M401,K5,P2.10*%
%TO.N,/Project Architecture/Main/CHARGE*%
X194399000Y-155036400D03*
%TO.P,M401,K6,P2.08*%
%TO.N,unconnected-(M401-P2.08-PadK6)*%
X195313400Y-155036400D03*
%TO.P,M401,K7,P2.06*%
%TO.N,unconnected-(M401-P2.06-PadK7)*%
X196202400Y-155036400D03*
%TO.P,M401,K8,P2.05*%
%TO.N,unconnected-(M401-P2.05-PadK8)*%
X197116800Y-155036400D03*
%TO.P,M401,K9,P2.04*%
%TO.N,unconnected-(M401-P2.04-PadK9)*%
X198005800Y-155036400D03*
D45*
%TO.N,unconnected-(M401-P2.04-PadK9)_1*%
X198231500Y-155036400D03*
%TD*%
D22*
%TO.P,R407,1*%
%TO.N,/Project Architecture/Main/CHARGE*%
X200410000Y-147675000D03*
%TO.P,R407,2*%
%TO.N,+1V8*%
X199390000Y-147675000D03*
%TD*%
D46*
%TO.P,C404,1*%
%TO.N,+1V8*%
X204900000Y-141950000D03*
%TO.P,C404,2*%
%TO.N,GND*%
X203350000Y-141950000D03*
%TD*%
D13*
%TO.P,C407,1*%
%TO.N,/Project Architecture/Main/V_{BAT}*%
X199175000Y-142950000D03*
%TO.P,C407,2*%
%TO.N,GND*%
X200725000Y-142950000D03*
%TD*%
D47*
%TO.P,C413,1*%
%TO.N,Net-(IC405-V_{REF})*%
X211400000Y-151215000D03*
%TO.P,C413,2*%
%TO.N,GND*%
X211400000Y-152175000D03*
%TD*%
D22*
%TO.P,R402,1*%
%TO.N,+1V8*%
X217410000Y-162975000D03*
%TO.P,R402,2*%
%TO.N,/Project Architecture/Main/~{RESET}*%
X216390000Y-162975000D03*
%TD*%
D26*
%TO.P,C415,1*%
%TO.N,+1V8*%
X209980000Y-147775000D03*
%TO.P,C415,2*%
%TO.N,GND*%
X209020000Y-147775000D03*
%TD*%
D39*
%TO.P,SW402,1,1*%
%TO.N,GND*%
X220100000Y-143325000D03*
%TO.P,SW402,2,2*%
%TO.N,Net-(M401-P2.03)*%
X215600000Y-143325000D03*
%TO.P,SW402,3,3*%
%TO.N,GND*%
X220100000Y-151275000D03*
%TO.P,SW402,4,4*%
%TO.N,Net-(M401-P2.03)*%
X215600000Y-151275000D03*
%TD*%
D48*
%TO.P,R404,1*%
%TO.N,Net-(X401-CC1)*%
X192140000Y-142780000D03*
%TO.P,R404,2*%
%TO.N,GND*%
X193160000Y-142780000D03*
%TD*%
D49*
%TO.P,IC403,1,STAT*%
%TO.N,/Project Architecture/Main/CHARGE*%
X199975000Y-146400000D03*
%TO.P,IC403,2,V_{SS}*%
%TO.N,GND*%
X199975000Y-145450000D03*
%TO.P,IC403,3,V_{BAT}*%
%TO.N,/Project Architecture/Main/V_{BAT}*%
X199975000Y-144500000D03*
%TO.P,IC403,4,V_{DD}*%
%TO.N,Net-(IC403-V_{DD})*%
X197700000Y-144500000D03*
%TO.P,IC403,5,PROG*%
%TO.N,Net-(IC403-PROG)*%
X197700000Y-146400000D03*
%TD*%
D50*
%TO.P,L401,1,1*%
%TO.N,/Project Architecture/Main/V_{BAT}*%
X194350000Y-147837500D03*
%TO.P,L401,2,2*%
%TO.N,Net-(IC402-L)*%
X194350000Y-149412500D03*
%TD*%
D48*
%TO.P,R408,1*%
%TO.N,/Project Architecture/Main/~{RESET_{HR}}*%
X211190000Y-160300000D03*
%TO.P,R408,2*%
%TO.N,GND*%
X212210000Y-160300000D03*
%TD*%
D13*
%TO.P,C403,1*%
%TO.N,/Project Architecture/Main/V_{LED}*%
X197100000Y-150025000D03*
%TO.P,C403,2*%
%TO.N,GND*%
X198650000Y-150025000D03*
%TD*%
D51*
%TO.P,X402,1,Pin_1*%
%TO.N,/Project Architecture/Main/V_{BAT}*%
X196200000Y-141025000D03*
%TO.P,X402,2,Pin_2*%
%TO.N,GND*%
X195000000Y-141025000D03*
D52*
%TO.P,X402,MP*%
%TO.N,N/C*%
X197350000Y-137250000D03*
X193850000Y-137250000D03*
%TD*%
D53*
%TO.P,IC405,A1,V_{LED}*%
%TO.N,/Project Architecture/Main/V_{LED}*%
X211800000Y-148675000D03*
%TO.P,IC405,A2,SCLK*%
%TO.N,Net-(IC404-SCLK_{SENSOR})*%
X211800000Y-149075000D03*
%TO.P,IC405,A3,MISO*%
%TO.N,Net-(IC404-MISO_{SENSOR})*%
X211800000Y-149475000D03*
%TO.P,IC405,A4,MOSI*%
%TO.N,Net-(IC404-MOSI_{SENSOR})*%
X211800000Y-149875000D03*
%TO.P,IC405,A5,~{CSB}*%
%TO.N,Net-(IC404-CS_{PPG})*%
X211800000Y-150275000D03*
%TO.P,IC405,B1,LED3-DRV*%
%TO.N,Net-(IC405-LED3-DRV)*%
X211400000Y-148675000D03*
%TO.P,IC405,B2,~{INT}*%
%TO.N,Net-(IC404-INT_{PPG})*%
X211400000Y-149075000D03*
%TO.P,IC405,B3,GPIO1*%
%TO.N,unconnected-(IC405-GPIO1-PadB3)*%
X211400000Y-149475000D03*
%TO.P,IC405,B4,GPIO2*%
%TO.N,unconnected-(IC405-GPIO2-PadB4)*%
X211400000Y-149875000D03*
%TO.P,IC405,B5,V_{REF}*%
%TO.N,Net-(IC405-V_{REF})*%
X211400000Y-150275000D03*
%TO.P,IC405,C1,LED2-DRV*%
%TO.N,Net-(IC405-LED2-DRV)*%
X211000000Y-148675000D03*
%TO.P,IC405,C2,DVDD*%
%TO.N,+1V8*%
X211000000Y-149075000D03*
%TO.P,IC405,C3,DGND*%
%TO.N,GND*%
X211000000Y-149475000D03*
%TO.P,IC405,C4,AGND*%
X211000000Y-149875000D03*
%TO.P,IC405,C5,PD-GND*%
%TO.N,PD_GND*%
X211000000Y-150275000D03*
%TO.P,IC405,D1,LED1-DRV*%
%TO.N,Net-(IC405-LED1-DRV)*%
X210600000Y-148675000D03*
%TO.P,IC405,D2,AVDD*%
%TO.N,+1V8*%
X210600000Y-149075000D03*
%TO.P,IC405,D3,PGND*%
%TO.N,GND*%
X210600000Y-149475000D03*
%TO.P,IC405,D4,PD2-IN*%
%TO.N,Net-(D403-K)*%
X210600000Y-149875000D03*
%TO.P,IC405,D5,PD1-IN*%
%TO.N,Net-(D402-K)*%
X210600000Y-150275000D03*
%TD*%
D13*
%TO.P,C402,1*%
%TO.N,/Project Architecture/Main/V_{BAT}*%
X202625000Y-146950000D03*
%TO.P,C402,2*%
%TO.N,GND*%
X204175000Y-146950000D03*
%TD*%
D46*
%TO.P,C405,1*%
%TO.N,Net-(IC403-V_{DD})*%
X197700000Y-142950000D03*
%TO.P,C405,2*%
%TO.N,GND*%
X196150000Y-142950000D03*
%TD*%
D54*
%TO.N,GND*%
X206250000Y-154725000D03*
X190250000Y-158600000D03*
X196625000Y-148025000D03*
X198650000Y-149275000D03*
X202700000Y-154855000D03*
X198234400Y-163700000D03*
X193700000Y-145780000D03*
X220100000Y-155000000D03*
X195000000Y-140200000D03*
X199800000Y-152375000D03*
X220100000Y-147575000D03*
X196300000Y-149225000D03*
X209020000Y-146195000D03*
X206000000Y-157675000D03*
X204220000Y-154755000D03*
X214600000Y-155650000D03*
X196000000Y-144600000D03*
X203350000Y-142650000D03*
X190300000Y-162224600D03*
X200112500Y-143562500D03*
X204175000Y-146225000D03*
X193700000Y-142780000D03*
X214200000Y-148475000D03*
X196150000Y-143750000D03*
X212210000Y-160875000D03*
X195700000Y-164600000D03*
X199000000Y-145450000D03*
X201650000Y-144450000D03*
X212500000Y-157600000D03*
X212200000Y-152175000D03*
X196800000Y-157131200D03*
X212400000Y-158975000D03*
X191200000Y-151775000D03*
X214600000Y-156650000D03*
%TO.N,+1V8*%
X207050000Y-157475000D03*
X212775000Y-155000000D03*
X199800000Y-153335000D03*
X204125000Y-141950000D03*
X198800000Y-147675000D03*
X218000000Y-162975000D03*
X213090000Y-157210000D03*
X197700000Y-164600000D03*
X209980000Y-146195000D03*
%TO.N,PD_GND*%
X206100000Y-148775000D03*
X211000000Y-150275000D03*
X206100000Y-149975000D03*
%TO.N,/Project Architecture/Main/V_{LED}*%
X197100000Y-150875000D03*
X205500000Y-151375000D03*
X204300000Y-151375000D03*
X212700000Y-147675000D03*
%TO.N,/Project Architecture/Main/V_{BAT}*%
X197200000Y-141025000D03*
X191200000Y-147837500D03*
%TO.N,/Project Architecture/Main/INT_{ACC}*%
X201200000Y-155354998D03*
X212140000Y-155890000D03*
%TO.N,/Project Architecture/Main/SCL*%
X203200000Y-158175000D03*
X197563000Y-158175000D03*
%TO.N,/Project Architecture/Main/SDA*%
X203553800Y-157728800D03*
X198900000Y-157728800D03*
%TO.N,/Project Architecture/Main/~{RESET_{HR}}*%
X211190000Y-162055000D03*
%TO.N,/Project Architecture/Main/STATUS*%
X209010000Y-161275000D03*
%TO.N,/Project Architecture/Main/CHARGE*%
X199000000Y-146400000D03*
X194400000Y-154375000D03*
%TO.N,/Project Architecture/Main/SWDIO*%
X193100000Y-155500000D03*
%TO.N,/Project Architecture/Main/SWDCLK*%
X192621000Y-154475000D03*
%TO.N,/Project Architecture/Main/~{RESET}*%
X192200000Y-157728800D03*
X192200000Y-165475000D03*
%TO.N,Net-(D402-K)*%
X209800000Y-150685000D03*
%TO.N,Net-(D403-K)*%
X204300000Y-149375000D03*
%TO.N,Net-(IC404-SCLK_{SENSOR})*%
X205200000Y-156875000D03*
X208400000Y-156180000D03*
X214400000Y-152875000D03*
%TO.N,Net-(IC404-MOSI_{SENSOR})*%
X207400000Y-155867500D03*
X213600000Y-153675000D03*
%TO.N,Net-(IC404-CS_{PPG})*%
X213200000Y-154075000D03*
%TO.N,Net-(IC404-CS_{ACC})*%
X201187500Y-156475000D03*
X209629999Y-160075000D03*
%TO.N,Net-(IC404-INT_{PPG})*%
X211190000Y-154485000D03*
X211400000Y-149075000D03*
%TO.N,Net-(IC404-MISO_{SENSOR})*%
X214000000Y-153275000D03*
X206300000Y-156375000D03*
%TO.N,Net-(IC405-LED3-DRV)*%
X211500000Y-147675000D03*
X205200000Y-150275000D03*
%TO.N,Net-(IC405-LED1-DRV)*%
X205200000Y-152375000D03*
X210600000Y-148175000D03*
%TO.N,Net-(IC405-LED2-DRV)*%
X206000000Y-152775000D03*
X211100000Y-148209314D03*
%TO.N,Net-(M401-P2.03)*%
X213100000Y-143300000D03*
X196202400Y-156400000D03*
%TD*%
D55*
%TO.N,GND*%
X220100000Y-151275000D02*
X220100000Y-147575000D01*
D56*
X197400000Y-148025000D02*
X196625000Y-148025000D01*
D55*
X202200242Y-154855242D02*
X202200000Y-154855000D01*
X202700000Y-154855000D02*
X202200000Y-154855000D01*
X200112500Y-143562500D02*
X200725000Y-142950000D01*
X203350000Y-142650000D02*
X203350000Y-141950000D01*
X202200000Y-154855000D02*
X202200000Y-154355000D01*
X198234400Y-163700000D02*
X198234400Y-163113600D01*
D56*
X209020000Y-148195000D02*
X209020000Y-147775000D01*
D55*
X190250000Y-158600000D02*
X190267800Y-158617800D01*
X206250000Y-157925000D02*
X206520000Y-157925000D01*
D56*
X193700000Y-142780000D02*
X193160000Y-142780000D01*
D55*
X209020000Y-146195000D02*
X209020000Y-146775000D01*
D56*
X212400000Y-158975000D02*
X211895000Y-158975000D01*
X211880000Y-157600000D02*
X212500000Y-157600000D01*
X212210000Y-160875000D02*
X212210000Y-160300000D01*
D55*
X196800000Y-157131200D02*
X197116800Y-156814400D01*
D57*
X200400000Y-152375000D02*
X201700000Y-152375000D01*
D56*
X195850000Y-149225000D02*
X196300000Y-149225000D01*
D55*
X190267800Y-158617800D02*
X190817600Y-158617800D01*
X206000000Y-157675000D02*
X206250000Y-157925000D01*
D57*
X190005000Y-147230000D02*
X190005000Y-147775000D01*
X189430000Y-139710000D02*
X185250000Y-139710000D01*
D56*
X210600000Y-149475000D02*
X210300000Y-149475000D01*
D55*
X196000000Y-144600000D02*
X196000000Y-145380000D01*
D57*
X190005000Y-140830000D02*
X190005000Y-140285000D01*
D55*
X198234400Y-162224600D02*
X198234400Y-163113600D01*
X190817600Y-162224600D02*
X190817600Y-160421200D01*
X191200000Y-151175000D02*
X191200000Y-151775000D01*
D57*
X189430000Y-148350000D02*
X185250000Y-148350000D01*
D56*
X214200000Y-148475000D02*
X213660000Y-148475000D01*
D57*
X190005000Y-140285000D02*
X189430000Y-139710000D01*
D55*
X202200000Y-154355000D02*
X202187500Y-154342500D01*
D57*
X201700000Y-152375000D02*
X202700000Y-152375000D01*
D56*
X214600000Y-155650000D02*
X214060000Y-155650000D01*
D55*
X190817600Y-159532200D02*
X190817600Y-158617800D01*
X199975000Y-145450000D02*
X199000000Y-145450000D01*
X190817600Y-163113600D02*
X190817600Y-162224600D01*
X201687500Y-154342500D02*
X202187500Y-154342500D01*
X209020000Y-147775000D02*
X209020000Y-146775000D01*
X195000000Y-140200000D02*
X195000000Y-141025000D01*
X196202400Y-164582400D02*
X196202400Y-162224600D01*
D57*
X190005000Y-147775000D02*
X189430000Y-148350000D01*
D55*
X195700000Y-164600000D02*
X196220000Y-164600000D01*
D57*
X199800000Y-152375000D02*
X200400000Y-152375000D01*
D55*
X210600000Y-149475000D02*
X211000000Y-149475000D01*
D56*
X220100000Y-153550000D02*
X220100000Y-155000000D01*
D55*
X211000000Y-149875000D02*
X211000000Y-149475000D01*
D56*
X211895000Y-158975000D02*
X211850000Y-159020000D01*
D55*
X196150000Y-143750000D02*
X196150000Y-142950000D01*
D56*
X220100000Y-155000000D02*
X220100000Y-161500000D01*
X211400000Y-152175000D02*
X212200000Y-152175000D01*
D55*
X202625000Y-144450000D02*
X201650000Y-144450000D01*
D56*
X214050000Y-156650000D02*
X214600000Y-156650000D01*
X193700000Y-145780000D02*
X193160000Y-145780000D01*
X210300000Y-149475000D02*
X209020000Y-148195000D01*
D55*
X190817600Y-160421200D02*
X190817600Y-159532200D01*
D56*
X198650000Y-149275000D02*
X198650000Y-150025000D01*
D55*
X190300000Y-162224600D02*
X190817600Y-162224600D01*
X220100000Y-147575000D02*
X220100000Y-143325000D01*
X196220000Y-164600000D02*
X196202400Y-164582400D01*
X204175000Y-146225000D02*
X204175000Y-146950000D01*
D56*
%TO.N,+1V8*%
X199800000Y-153335000D02*
X200400000Y-153335000D01*
X201187500Y-153847500D02*
X201700000Y-153335000D01*
X210409082Y-149075000D02*
X209980000Y-148645918D01*
X211880000Y-157200000D02*
X211880001Y-157200001D01*
D55*
X204125000Y-141950000D02*
X204900000Y-141950000D01*
X197180000Y-164600000D02*
X197116800Y-164536800D01*
X212775000Y-155000000D02*
X212210000Y-155000000D01*
D56*
X202700000Y-153335000D02*
X201700000Y-153335000D01*
D55*
X209980000Y-147775000D02*
X209980000Y-146775000D01*
X208260190Y-157600000D02*
X208980000Y-157600000D01*
D56*
X213090000Y-157210000D02*
X213090000Y-156650000D01*
X200687500Y-154062500D02*
X200687500Y-154342500D01*
X211000000Y-149075000D02*
X210600000Y-149075000D01*
X210600000Y-149075000D02*
X210409082Y-149075000D01*
X211880001Y-157200001D02*
X212539999Y-157200001D01*
X200400000Y-153335000D02*
X200400000Y-153775000D01*
D55*
X209980000Y-146195000D02*
X209980000Y-146775000D01*
D56*
X200400000Y-153775000D02*
X200687500Y-154062500D01*
X201700000Y-153335000D02*
X200400000Y-153335000D01*
D55*
X207480000Y-157925000D02*
X207935190Y-157925000D01*
D56*
X209980000Y-148645918D02*
X209980000Y-147775000D01*
D55*
X197116800Y-164536800D02*
X197116800Y-162224600D01*
X197116800Y-162224600D02*
X197116800Y-161335600D01*
X198800000Y-147675000D02*
X199390000Y-147675000D01*
X207935190Y-157925000D02*
X208260190Y-157600000D01*
X207050000Y-157495000D02*
X207050000Y-157475000D01*
X197700000Y-164600000D02*
X197180000Y-164600000D01*
X204900000Y-141950000D02*
X204900000Y-143500000D01*
D56*
X218000000Y-162975000D02*
X217410000Y-162975000D01*
X212539999Y-157200001D02*
X213090000Y-156650000D01*
D55*
X207480000Y-157925000D02*
X207050000Y-157495000D01*
D56*
X201187500Y-154342500D02*
X201187500Y-153847500D01*
%TO.N,/Project Architecture/Main/V_{LED}*%
X212400000Y-148475000D02*
X212700000Y-148475000D01*
X211800000Y-148675000D02*
X212200000Y-148675000D01*
X195850000Y-150025000D02*
X197100000Y-150025000D01*
X197100000Y-150025000D02*
X197100000Y-150875000D01*
X195850000Y-150025000D02*
X195850000Y-149625000D01*
X212700000Y-147675000D02*
X212700000Y-148475000D01*
X212200000Y-148675000D02*
X212400000Y-148475000D01*
D55*
%TO.N,/Project Architecture/Main/V_{BAT}*%
X198125000Y-141025000D02*
X199175000Y-142075000D01*
X203587500Y-145084252D02*
X203271752Y-145400000D01*
X199975000Y-144500000D02*
X200800000Y-144500000D01*
X191200000Y-147837500D02*
X194350000Y-147837500D01*
X191200000Y-147837500D02*
X191200000Y-149675000D01*
X191200000Y-149675000D02*
X190525000Y-150350000D01*
D57*
X195300000Y-148025000D02*
X195112500Y-147837500D01*
D55*
X190525000Y-150350000D02*
X188210000Y-150350000D01*
X201700000Y-145400000D02*
X202625000Y-145400000D01*
D57*
X195112500Y-147837500D02*
X194350000Y-147837500D01*
D56*
X195850000Y-148025000D02*
X195850000Y-148550000D01*
D55*
X202625000Y-143500000D02*
X203287499Y-143500000D01*
X203271752Y-145400000D02*
X202625000Y-145400000D01*
X203287499Y-143500000D02*
X203587500Y-143800001D01*
X197200000Y-141025000D02*
X198125000Y-141025000D01*
X202625000Y-145400000D02*
X202625000Y-146950000D01*
D56*
X195850000Y-148550000D02*
X195450000Y-148950000D01*
D55*
X200800000Y-144500000D02*
X201700000Y-145400000D01*
X199175000Y-142075000D02*
X199175000Y-142950000D01*
X197200000Y-141025000D02*
X197300000Y-141025000D01*
X199175000Y-143700000D02*
X199975000Y-144500000D01*
X199175000Y-142950000D02*
X199175000Y-143700000D01*
X203587500Y-143800001D02*
X203587500Y-145084252D01*
D56*
X195450000Y-148950000D02*
X195450000Y-149225000D01*
D57*
X195850000Y-148025000D02*
X195300000Y-148025000D01*
D55*
X196200000Y-141025000D02*
X197200000Y-141025000D01*
D56*
%TO.N,/Project Architecture/Main/INT_{ACC}*%
X201199998Y-155355000D02*
X200675000Y-155355000D01*
X212140000Y-155890000D02*
X211850000Y-156180000D01*
X201200000Y-155354998D02*
X201199998Y-155355000D01*
%TO.N,/Project Architecture/Main/SCL*%
X204000000Y-158975000D02*
X208029264Y-158975000D01*
X208029264Y-158975000D02*
X208604263Y-158400001D01*
X197563000Y-158175000D02*
X197116800Y-157728800D01*
X203200000Y-158175000D02*
X204000000Y-158975000D01*
X208604263Y-158400001D02*
X208980000Y-158400001D01*
%TO.N,/Project Architecture/Main/SDA*%
X208400001Y-157999999D02*
X208980000Y-157999999D01*
X198234400Y-157728800D02*
X198900000Y-157728800D01*
X207800000Y-158600000D02*
X208400001Y-157999999D01*
X204425000Y-158600000D02*
X207800000Y-158600000D01*
X203553800Y-157728800D02*
X204425000Y-158600000D01*
%TO.N,/Project Architecture/Main/~{RESET_{HR}}*%
X211230001Y-159530001D02*
X211190000Y-159570002D01*
X211190000Y-162055000D02*
X204080000Y-162055000D01*
X211190000Y-159570002D02*
X211190000Y-160300000D01*
X204080000Y-162055000D02*
X198839400Y-156814400D01*
X198839400Y-156814400D02*
X198234400Y-156814400D01*
X211190000Y-162055000D02*
X211190000Y-160300000D01*
X211230001Y-159050000D02*
X211230001Y-159530001D01*
%TO.N,/Project Architecture/Main/STATUS*%
X209010000Y-161275000D02*
X209010000Y-159020000D01*
X209010000Y-159020000D02*
X208655000Y-159375000D01*
X202500000Y-159375000D02*
X199050400Y-155925400D01*
X208655000Y-159375000D02*
X202500000Y-159375000D01*
X199050400Y-155925400D02*
X198234400Y-155925400D01*
%TO.N,/Project Architecture/Main/CHARGE*%
X194399000Y-155036400D02*
X194399000Y-154376000D01*
D55*
X199975000Y-147225000D02*
X199975000Y-146400000D01*
D56*
X199975000Y-146400000D02*
X199000000Y-146400000D01*
X194399000Y-154376000D02*
X194400000Y-154375000D01*
D55*
X200410000Y-147660000D02*
X199975000Y-147225000D01*
X200410000Y-147675000D02*
X200410000Y-147660000D01*
D56*
X194399000Y-155036400D02*
X194399000Y-155049000D01*
D55*
X200400000Y-147685000D02*
X200410000Y-147675000D01*
D56*
%TO.N,/Project Architecture/Main/ENABLE_{LED}*%
X193510000Y-151062500D02*
X194412500Y-151062500D01*
X194412500Y-151062500D02*
X195450000Y-150025000D01*
D55*
%TO.N,/Project Architecture/Main/SWDIO*%
X192674600Y-155925400D02*
X192621000Y-155925400D01*
D56*
X193100000Y-155500000D02*
X192674600Y-155925400D01*
%TO.N,/Project Architecture/Main/SWDCLK*%
X192621000Y-154475000D02*
X192621000Y-155036400D01*
%TO.N,/Project Architecture/Main/~{RESET}*%
X215900000Y-162975000D02*
X215600000Y-163275000D01*
X192200000Y-165475000D02*
X214900000Y-165475000D01*
X214900000Y-165475000D02*
X215600000Y-164775000D01*
X215600000Y-163275000D02*
X215600000Y-161500000D01*
X216390000Y-162975000D02*
X215900000Y-162975000D01*
X192200000Y-157728800D02*
X191706600Y-157728800D01*
X215600000Y-164775000D02*
X215600000Y-163275000D01*
D55*
X215600000Y-161500000D02*
X215600000Y-153550000D01*
%TO.N,Net-(IC403-V_{DD})*%
X197700000Y-142950000D02*
X197700000Y-144500000D01*
D56*
%TO.N,Net-(IC404-V_{CORE})*%
X212585000Y-155865000D02*
X212800000Y-155650000D01*
X211880001Y-156799999D02*
X212400001Y-156799999D01*
X212800000Y-155650000D02*
X213100000Y-155650000D01*
X211880000Y-156800000D02*
X211880001Y-156799999D01*
X212585000Y-156615000D02*
X212585000Y-155865000D01*
X212400001Y-156799999D02*
X212585000Y-156615000D01*
%TO.N,Net-(IC405-V_{REF})*%
X211400000Y-151215000D02*
X211400000Y-150275000D01*
D55*
%TO.N,Net-(D401-A)*%
X184900000Y-150350000D02*
X187190000Y-150350000D01*
%TO.N,Net-(D401-K)*%
X188175000Y-152400000D02*
X184900000Y-152400000D01*
X188450000Y-152125000D02*
X188175000Y-152400000D01*
X189325000Y-152125000D02*
X188450000Y-152125000D01*
D56*
%TO.N,Net-(D402-K)*%
X209900000Y-150685000D02*
X210310000Y-150275000D01*
X210310000Y-150275000D02*
X210600000Y-150275000D01*
X209800000Y-150685000D02*
X209900000Y-150685000D01*
%TO.N,Net-(D403-K)*%
X209400000Y-149875000D02*
X210600000Y-149875000D01*
X208900000Y-149375000D02*
X209400000Y-149875000D01*
X204300000Y-149375000D02*
X208900000Y-149375000D01*
%TO.N,Net-(IC402-L)*%
X194350000Y-149412500D02*
X194887500Y-149412500D01*
X195100000Y-149625000D02*
X195450000Y-149625000D01*
X194887500Y-149412500D02*
X195100000Y-149625000D01*
D55*
%TO.N,Net-(IC403-PROG)*%
X196000000Y-146400000D02*
X197700000Y-146400000D01*
X196100000Y-146410000D02*
X196090000Y-146400000D01*
X196090000Y-146400000D02*
X196000000Y-146400000D01*
D56*
%TO.N,Net-(IC404-SCLK_{SENSOR})*%
X213400000Y-149075000D02*
X214400000Y-150075000D01*
X205200000Y-156875000D02*
X201000000Y-156875000D01*
X200687500Y-156562500D02*
X200687500Y-155867500D01*
X211800000Y-149075000D02*
X213400000Y-149075000D01*
X201000000Y-156875000D02*
X200687500Y-156562500D01*
X214400000Y-150075000D02*
X214400000Y-152875000D01*
X208400000Y-156180000D02*
X209010000Y-156180000D01*
%TO.N,Net-(IC404-MOSI_{SENSOR})*%
X213000000Y-149875000D02*
X213600000Y-150475000D01*
X213600000Y-150475000D02*
X213600000Y-153675000D01*
X208325000Y-156800000D02*
X208980000Y-156800000D01*
X207400000Y-155867500D02*
X202187500Y-155867500D01*
X207400000Y-155867500D02*
X207700000Y-156167500D01*
X207700000Y-156175000D02*
X208325000Y-156800000D01*
X207700000Y-156167500D02*
X207700000Y-156175000D01*
X211800000Y-149875000D02*
X213000000Y-149875000D01*
%TO.N,Net-(IC404-CS_{PPG})*%
X213200000Y-150575000D02*
X212900000Y-150275000D01*
X213200000Y-154075000D02*
X213200000Y-150575000D01*
X213200000Y-154075000D02*
X210857900Y-154075000D01*
X210857900Y-154075000D02*
X209629999Y-155302901D01*
X212900000Y-150275000D02*
X211800000Y-150275000D01*
X209629999Y-155302901D02*
X209629999Y-156150000D01*
%TO.N,Net-(IC404-32k_{IN})*%
X212433900Y-158001000D02*
X212720050Y-158001000D01*
X212720050Y-158001000D02*
X212858550Y-157862500D01*
X211880000Y-157999999D02*
X212432899Y-157999999D01*
X212858550Y-157862500D02*
X213500000Y-157862500D01*
X212432899Y-157999999D02*
X212433900Y-158001000D01*
%TO.N,Net-(IC404-CS_{ACC})*%
X201187500Y-156475000D02*
X201187500Y-155867500D01*
X209629999Y-160075000D02*
X209629999Y-159050000D01*
%TO.N,Net-(IC404-INT_{PPG})*%
X211190000Y-154485000D02*
X211190000Y-155000000D01*
X211190000Y-155590000D02*
X211190000Y-155000000D01*
X211230000Y-155630000D02*
X211190000Y-155590000D01*
X211230000Y-156150000D02*
X211230000Y-155630000D01*
%TO.N,Net-(IC404-MISO_{SENSOR})*%
X208125000Y-157200000D02*
X208980000Y-157200000D01*
X213200000Y-149475000D02*
X214000000Y-150275000D01*
X206300000Y-156375000D02*
X207300000Y-156375000D01*
X201687500Y-156182000D02*
X201687500Y-155867500D01*
X201880500Y-156375000D02*
X201687500Y-156182000D01*
X207300000Y-156375000D02*
X208125000Y-157200000D01*
X214000000Y-150275000D02*
X214000000Y-153275000D01*
X211800000Y-149475000D02*
X213200000Y-149475000D01*
X206300000Y-156375000D02*
X201880500Y-156375000D01*
%TO.N,Net-(IC404-32k_{OUT})*%
X212950000Y-158687500D02*
X213500000Y-158687500D01*
X211880000Y-158400001D02*
X212662501Y-158400001D01*
X212662501Y-158400001D02*
X212950000Y-158687500D01*
%TO.N,Net-(IC405-LED3-DRV)*%
X211500000Y-147675000D02*
X211500000Y-148375000D01*
X211400000Y-148475000D02*
X211400000Y-148675000D01*
X211500000Y-148375000D02*
X211400000Y-148475000D01*
%TO.N,Net-(IC405-LED1-DRV)*%
X210600000Y-148675000D02*
X210600000Y-148175000D01*
%TO.N,Net-(IC405-LED2-DRV)*%
X211000000Y-148309314D02*
X211000000Y-148675000D01*
X211100000Y-148209314D02*
X211000000Y-148309314D01*
%TO.N,Net-(M401-P0.02)*%
X191200000Y-154529800D02*
X191706600Y-155036400D01*
X191200000Y-153075000D02*
X191200000Y-154529800D01*
%TO.N,Net-(M401-P2.03)*%
X215600000Y-143325000D02*
X213125000Y-143325000D01*
X196202400Y-156400000D02*
X196202400Y-155925400D01*
X213125000Y-143325000D02*
X213100000Y-143300000D01*
X215600000Y-143325000D02*
X215600000Y-151275000D01*
%TO.N,Net-(M401-P0.01)*%
X193510000Y-152887500D02*
X193510000Y-155036400D01*
%TO.N,Net-(X401-CC1)*%
X192140000Y-142780000D02*
X190005000Y-142780000D01*
%TO.N,Net-(X401-CC2)*%
X192140000Y-145780000D02*
X190005000Y-145780000D01*
%TD*%
%TA.AperFunction,Conductor*%
%TO.N,Net-(IC403-V_{DD})*%
G36*
X194542539Y-141219685D02*
G01*
X194588294Y-141272489D01*
X194598340Y-141318669D01*
X194598903Y-141318614D01*
X194599378Y-141323440D01*
X194599500Y-141324000D01*
X194599500Y-141324678D01*
X194614032Y-141397735D01*
X194614033Y-141397739D01*
X194614034Y-141397740D01*
X194669399Y-141480601D01*
X194752260Y-141535966D01*
X194752264Y-141535967D01*
X194825321Y-141550499D01*
X194825324Y-141550500D01*
X194825326Y-141550500D01*
X195174676Y-141550500D01*
X195174677Y-141550499D01*
X195247740Y-141535966D01*
X195330601Y-141480601D01*
X195385966Y-141397740D01*
X195400500Y-141324674D01*
X195400500Y-141324000D01*
X195400600Y-141323658D01*
X195401097Y-141318614D01*
X195402053Y-141318708D01*
X195403050Y-141315314D01*
X195401762Y-141306353D01*
X195412740Y-141282312D01*
X195420185Y-141256961D01*
X195427025Y-141251033D01*
X195430787Y-141242797D01*
X195453021Y-141228507D01*
X195472989Y-141211206D01*
X195483503Y-141208918D01*
X195489565Y-141205023D01*
X195524500Y-141200000D01*
X195675500Y-141200000D01*
X195742539Y-141219685D01*
X195788294Y-141272489D01*
X195798340Y-141318669D01*
X195798903Y-141318614D01*
X195799378Y-141323440D01*
X195799500Y-141324000D01*
X195799500Y-141324678D01*
X195814032Y-141397735D01*
X195814033Y-141397739D01*
X195814034Y-141397740D01*
X195869399Y-141480601D01*
X195952260Y-141535966D01*
X195952264Y-141535967D01*
X196025321Y-141550499D01*
X196025324Y-141550500D01*
X196025326Y-141550500D01*
X196374676Y-141550500D01*
X196374677Y-141550499D01*
X196447740Y-141535966D01*
X196530601Y-141480601D01*
X196585966Y-141397740D01*
X196600374Y-141325309D01*
X196615084Y-141297185D01*
X196628278Y-141268297D01*
X196631167Y-141266439D01*
X196632759Y-141263398D01*
X196660341Y-141247691D01*
X196687056Y-141230523D01*
X196691650Y-141229862D01*
X196693474Y-141228824D01*
X196721991Y-141225500D01*
X196959523Y-141225500D01*
X197026562Y-141245185D01*
X197039338Y-141255480D01*
X197043940Y-141258555D01*
X197043942Y-141258557D01*
X197145200Y-141300500D01*
X197145201Y-141300500D01*
X197254799Y-141300500D01*
X197254800Y-141300500D01*
X197356058Y-141258557D01*
X197356062Y-141258552D01*
X197366212Y-141251772D01*
X197367544Y-141253765D01*
X197414119Y-141228334D01*
X197440477Y-141225500D01*
X197990588Y-141225500D01*
X198057627Y-141245185D01*
X198078269Y-141261819D01*
X198463681Y-141647231D01*
X198497166Y-141708554D01*
X198500000Y-141734912D01*
X198500000Y-143276000D01*
X198480315Y-143343039D01*
X198427511Y-143388794D01*
X198376000Y-143400000D01*
X197124000Y-143400000D01*
X197056961Y-143380315D01*
X197011206Y-143327511D01*
X197000000Y-143276000D01*
X197000000Y-142100000D01*
X195300000Y-142100000D01*
X195300000Y-146776000D01*
X195280315Y-146843039D01*
X195227511Y-146888794D01*
X195176000Y-146900000D01*
X190649115Y-146900000D01*
X190582076Y-146880315D01*
X190580225Y-146879103D01*
X190527739Y-146844033D01*
X190527735Y-146844032D01*
X190454677Y-146829500D01*
X190454674Y-146829500D01*
X189555326Y-146829500D01*
X189555321Y-146829500D01*
X189470746Y-146846323D01*
X189401154Y-146840096D01*
X189345977Y-146797232D01*
X189334296Y-146777375D01*
X189329627Y-146767425D01*
X189326503Y-146755763D01*
X189313978Y-146734069D01*
X189311741Y-146729301D01*
X189308521Y-146708436D01*
X189300000Y-146676632D01*
X189300000Y-146144255D01*
X189319685Y-146077216D01*
X189372489Y-146031461D01*
X189441647Y-146021517D01*
X189448181Y-146022635D01*
X189472720Y-146027517D01*
X189487715Y-146030500D01*
X189487716Y-146030500D01*
X190522286Y-146030500D01*
X190522287Y-146030499D01*
X190535257Y-146027919D01*
X190573475Y-146020318D01*
X190573477Y-146020317D01*
X190639204Y-145976399D01*
X190705881Y-145955520D01*
X190708096Y-145955500D01*
X191661232Y-145955500D01*
X191728271Y-145975185D01*
X191774026Y-146027989D01*
X191782849Y-146055308D01*
X191783162Y-146056883D01*
X191783163Y-146056886D01*
X191783164Y-146056888D01*
X191835214Y-146134786D01*
X191913112Y-146186836D01*
X191913114Y-146186836D01*
X191913115Y-146186837D01*
X191981801Y-146200500D01*
X191981804Y-146200500D01*
X192298198Y-146200500D01*
X192366884Y-146186837D01*
X192366884Y-146186836D01*
X192366888Y-146186836D01*
X192444786Y-146134786D01*
X192496836Y-146056888D01*
X192497112Y-146055500D01*
X192510500Y-145988198D01*
X192789499Y-145988198D01*
X192803162Y-146056884D01*
X192803163Y-146056886D01*
X192803164Y-146056888D01*
X192855214Y-146134786D01*
X192933112Y-146186836D01*
X192933114Y-146186836D01*
X192933115Y-146186837D01*
X193001801Y-146200500D01*
X193001804Y-146200500D01*
X193318198Y-146200500D01*
X193386884Y-146186837D01*
X193386884Y-146186836D01*
X193386888Y-146186836D01*
X193464786Y-146134786D01*
X193488851Y-146098770D01*
X193542461Y-146053966D01*
X193611785Y-146045257D01*
X193639405Y-146053100D01*
X193645197Y-146055499D01*
X193645198Y-146055499D01*
X193645200Y-146055500D01*
X193645201Y-146055500D01*
X193754799Y-146055500D01*
X193754800Y-146055500D01*
X193856058Y-146013557D01*
X193933557Y-145936058D01*
X193975500Y-145834800D01*
X193975500Y-145725200D01*
X193933557Y-145623942D01*
X193856058Y-145546443D01*
X193754800Y-145504500D01*
X193645200Y-145504500D01*
X193645199Y-145504500D01*
X193645191Y-145504501D01*
X193639399Y-145506901D01*
X193569930Y-145514367D01*
X193507452Y-145483089D01*
X193488850Y-145461228D01*
X193464786Y-145425214D01*
X193462183Y-145423475D01*
X193386888Y-145373164D01*
X193386886Y-145373163D01*
X193386884Y-145373162D01*
X193318198Y-145359500D01*
X193318196Y-145359500D01*
X193001804Y-145359500D01*
X193001802Y-145359500D01*
X192933115Y-145373162D01*
X192933112Y-145373164D01*
X192855214Y-145425214D01*
X192803164Y-145503112D01*
X192803162Y-145503115D01*
X192789500Y-145571801D01*
X192789500Y-145571804D01*
X192789500Y-145988196D01*
X192789500Y-145988198D01*
X192789499Y-145988198D01*
X192510500Y-145988198D01*
X192510500Y-145571801D01*
X192496837Y-145503115D01*
X192496836Y-145503114D01*
X192496836Y-145503112D01*
X192444786Y-145425214D01*
X192366888Y-145373164D01*
X192366886Y-145373163D01*
X192366884Y-145373162D01*
X192298198Y-145359500D01*
X192298196Y-145359500D01*
X191981804Y-145359500D01*
X191981802Y-145359500D01*
X191913115Y-145373162D01*
X191913112Y-145373164D01*
X191835214Y-145425214D01*
X191783164Y-145503112D01*
X191783162Y-145503116D01*
X191782849Y-145504692D01*
X191781218Y-145507808D01*
X191778489Y-145514398D01*
X191777899Y-145514153D01*
X191750463Y-145566603D01*
X191689747Y-145601177D01*
X191661232Y-145604500D01*
X190780914Y-145604500D01*
X190713875Y-145584815D01*
X190668120Y-145532011D01*
X190658176Y-145462853D01*
X190666354Y-145433045D01*
X190670318Y-145423475D01*
X190680499Y-145372288D01*
X190680500Y-145372286D01*
X190680500Y-145187713D01*
X190680499Y-145187711D01*
X190670318Y-145136524D01*
X190670317Y-145136523D01*
X190645172Y-145098891D01*
X190624294Y-145032214D01*
X190642778Y-144964834D01*
X190645172Y-144961109D01*
X190652269Y-144950487D01*
X190670317Y-144923477D01*
X190670317Y-144923475D01*
X190670318Y-144923475D01*
X190680499Y-144872288D01*
X190680500Y-144872286D01*
X190680500Y-144687713D01*
X190680499Y-144687711D01*
X190670318Y-144636524D01*
X190670317Y-144636523D01*
X190645172Y-144598891D01*
X190624294Y-144532214D01*
X190642778Y-144464834D01*
X190645172Y-144461109D01*
X190652269Y-144450487D01*
X190670317Y-144423477D01*
X190670317Y-144423475D01*
X190670318Y-144423475D01*
X190680499Y-144372288D01*
X190680500Y-144372286D01*
X190680500Y-144187713D01*
X190680499Y-144187711D01*
X190670318Y-144136524D01*
X190670317Y-144136523D01*
X190645172Y-144098891D01*
X190624294Y-144032214D01*
X190642778Y-143964834D01*
X190645172Y-143961109D01*
X190652269Y-143950487D01*
X190670317Y-143923477D01*
X190670317Y-143923475D01*
X190670318Y-143923475D01*
X190680499Y-143872288D01*
X190680500Y-143872286D01*
X190680500Y-143687713D01*
X190680499Y-143687711D01*
X190670318Y-143636524D01*
X190670317Y-143636523D01*
X190645172Y-143598891D01*
X190624294Y-143532214D01*
X190642778Y-143464834D01*
X190645172Y-143461109D01*
X190652269Y-143450487D01*
X190670317Y-143423477D01*
X190670317Y-143423475D01*
X190670318Y-143423475D01*
X190677919Y-143385257D01*
X190680500Y-143372284D01*
X190680500Y-143187716D01*
X190680500Y-143187713D01*
X190680499Y-143187711D01*
X190670318Y-143136524D01*
X190666354Y-143126955D01*
X190658884Y-143057485D01*
X190690158Y-142995006D01*
X190750246Y-142959352D01*
X190780914Y-142955500D01*
X191661232Y-142955500D01*
X191728271Y-142975185D01*
X191774026Y-143027989D01*
X191782849Y-143055308D01*
X191783162Y-143056883D01*
X191783163Y-143056886D01*
X191783164Y-143056888D01*
X191835214Y-143134786D01*
X191913112Y-143186836D01*
X191913114Y-143186836D01*
X191913115Y-143186837D01*
X191981801Y-143200500D01*
X191981804Y-143200500D01*
X192298198Y-143200500D01*
X192366884Y-143186837D01*
X192366884Y-143186836D01*
X192366888Y-143186836D01*
X192444786Y-143134786D01*
X192496836Y-143056888D01*
X192497112Y-143055500D01*
X192510500Y-142988198D01*
X192789499Y-142988198D01*
X192803162Y-143056884D01*
X192803163Y-143056886D01*
X192803164Y-143056888D01*
X192855214Y-143134786D01*
X192933112Y-143186836D01*
X192933114Y-143186836D01*
X192933115Y-143186837D01*
X193001801Y-143200500D01*
X193001804Y-143200500D01*
X193318198Y-143200500D01*
X193386884Y-143186837D01*
X193386884Y-143186836D01*
X193386888Y-143186836D01*
X193464786Y-143134786D01*
X193488851Y-143098770D01*
X193542461Y-143053966D01*
X193611785Y-143045257D01*
X193639405Y-143053100D01*
X193645197Y-143055499D01*
X193645198Y-143055499D01*
X193645200Y-143055500D01*
X193645201Y-143055500D01*
X193754799Y-143055500D01*
X193754800Y-143055500D01*
X193856058Y-143013557D01*
X193933557Y-142936058D01*
X193975500Y-142834800D01*
X193975500Y-142725200D01*
X193933557Y-142623942D01*
X193856058Y-142546443D01*
X193754800Y-142504500D01*
X193645200Y-142504500D01*
X193645199Y-142504500D01*
X193645191Y-142504501D01*
X193639399Y-142506901D01*
X193569930Y-142514367D01*
X193507452Y-142483089D01*
X193488850Y-142461228D01*
X193464786Y-142425214D01*
X193462183Y-142423475D01*
X193386888Y-142373164D01*
X193386886Y-142373163D01*
X193386884Y-142373162D01*
X193318198Y-142359500D01*
X193318196Y-142359500D01*
X193001804Y-142359500D01*
X193001802Y-142359500D01*
X192933115Y-142373162D01*
X192933112Y-142373164D01*
X192855214Y-142425214D01*
X192803164Y-142503112D01*
X192803162Y-142503115D01*
X192789500Y-142571801D01*
X192789500Y-142571804D01*
X192789500Y-142988196D01*
X192789500Y-142988198D01*
X192789499Y-142988198D01*
X192510500Y-142988198D01*
X192510500Y-142571801D01*
X192496837Y-142503115D01*
X192496836Y-142503114D01*
X192496836Y-142503112D01*
X192444786Y-142425214D01*
X192366888Y-142373164D01*
X192366886Y-142373163D01*
X192366884Y-142373162D01*
X192298198Y-142359500D01*
X192298196Y-142359500D01*
X191981804Y-142359500D01*
X191981802Y-142359500D01*
X191913115Y-142373162D01*
X191913112Y-142373164D01*
X191835214Y-142425214D01*
X191783164Y-142503112D01*
X191783162Y-142503116D01*
X191782849Y-142504692D01*
X191781218Y-142507808D01*
X191778489Y-142514398D01*
X191777899Y-142514153D01*
X191750463Y-142566603D01*
X191689747Y-142601177D01*
X191661232Y-142604500D01*
X190780914Y-142604500D01*
X190713875Y-142584815D01*
X190668120Y-142532011D01*
X190658176Y-142462853D01*
X190666354Y-142433045D01*
X190670318Y-142423475D01*
X190680499Y-142372288D01*
X190680500Y-142372286D01*
X190680500Y-142187713D01*
X190680499Y-142187711D01*
X190670318Y-142136524D01*
X190670317Y-142136523D01*
X190631528Y-142078471D01*
X190573476Y-142039682D01*
X190573475Y-142039681D01*
X190522288Y-142029500D01*
X190522284Y-142029500D01*
X189487716Y-142029500D01*
X189448190Y-142037362D01*
X189378599Y-142031133D01*
X189323422Y-141988270D01*
X189300178Y-141922380D01*
X189300000Y-141915744D01*
X189300000Y-141383367D01*
X189302484Y-141372220D01*
X189301450Y-141364459D01*
X189308994Y-141343018D01*
X189311741Y-141330698D01*
X189313975Y-141325934D01*
X189326503Y-141304237D01*
X189329628Y-141292572D01*
X189334296Y-141282624D01*
X189350451Y-141264362D01*
X189363140Y-141243544D01*
X189373189Y-141238661D01*
X189380592Y-141230294D01*
X189404053Y-141223666D01*
X189425985Y-141213011D01*
X189440984Y-141213233D01*
X189447830Y-141211300D01*
X189454850Y-141213439D01*
X189470747Y-141213676D01*
X189555323Y-141230500D01*
X189555326Y-141230500D01*
X190454676Y-141230500D01*
X190454677Y-141230499D01*
X190527740Y-141215966D01*
X190527744Y-141215963D01*
X190539020Y-141211293D01*
X190540399Y-141214622D01*
X190587031Y-141200020D01*
X190589249Y-141200000D01*
X194475500Y-141200000D01*
X194542539Y-141219685D01*
G37*
%TD.AperFunction*%
%TD*%
%TA.AperFunction,Conductor*%
%TO.N,PD_GND*%
G36*
X208967482Y-148394685D02*
G01*
X208988124Y-148411319D01*
X210064625Y-149487819D01*
X210098110Y-149549142D01*
X210093126Y-149618834D01*
X210051254Y-149674767D01*
X209985790Y-149699184D01*
X209976944Y-149699500D01*
X209524057Y-149699500D01*
X209457018Y-149679815D01*
X209436376Y-149663181D01*
X208999413Y-149226218D01*
X208981842Y-149218940D01*
X208934909Y-149199500D01*
X208934908Y-149199500D01*
X204565477Y-149199500D01*
X204498438Y-149179815D01*
X204477796Y-149163181D01*
X204456059Y-149141444D01*
X204456058Y-149141443D01*
X204354800Y-149099500D01*
X204245200Y-149099500D01*
X204245199Y-149099500D01*
X204143940Y-149141444D01*
X204066444Y-149218940D01*
X204029323Y-149308557D01*
X204024500Y-149320200D01*
X204024500Y-149429800D01*
X204066443Y-149531058D01*
X204143942Y-149608557D01*
X204245200Y-149650500D01*
X204245201Y-149650500D01*
X204354799Y-149650500D01*
X204354800Y-149650500D01*
X204456058Y-149608557D01*
X204477796Y-149586819D01*
X204539119Y-149553334D01*
X204565477Y-149550500D01*
X208775943Y-149550500D01*
X208842982Y-149570185D01*
X208863624Y-149586819D01*
X209300584Y-150023780D01*
X209300585Y-150023780D01*
X209300587Y-150023782D01*
X209365091Y-150050501D01*
X209365092Y-150050501D01*
X209449343Y-150050501D01*
X209449351Y-150050500D01*
X209986943Y-150050500D01*
X210008190Y-150056739D01*
X210030278Y-150058319D01*
X210041060Y-150066390D01*
X210053982Y-150070185D01*
X210068480Y-150086917D01*
X210086211Y-150100190D01*
X210090918Y-150112811D01*
X210099737Y-150122989D01*
X210102888Y-150144905D01*
X210110627Y-150165655D01*
X210107764Y-150178815D01*
X210109681Y-150192147D01*
X210100482Y-150212289D01*
X210095775Y-150233928D01*
X210082505Y-150251652D01*
X210080656Y-150255703D01*
X210074623Y-150262182D01*
X209962140Y-150374663D01*
X209900817Y-150408147D01*
X209867013Y-150408449D01*
X209867013Y-150409500D01*
X209745199Y-150409500D01*
X209643940Y-150451444D01*
X209566444Y-150528940D01*
X209566443Y-150528941D01*
X209566443Y-150528942D01*
X209524500Y-150630200D01*
X209524500Y-150739800D01*
X209566443Y-150841058D01*
X209643942Y-150918557D01*
X209745200Y-150960500D01*
X209745201Y-150960500D01*
X209854799Y-150960500D01*
X209854800Y-150960500D01*
X209956058Y-150918557D01*
X210033557Y-150841058D01*
X210053407Y-150793133D01*
X210080284Y-150752909D01*
X210339262Y-150493931D01*
X210400584Y-150460448D01*
X210470276Y-150465432D01*
X210474394Y-150467053D01*
X210529470Y-150489865D01*
X210555145Y-150500500D01*
X210555147Y-150500500D01*
X210644853Y-150500500D01*
X210644855Y-150500500D01*
X210686295Y-150483335D01*
X210727733Y-150466172D01*
X210727734Y-150466170D01*
X210727736Y-150466170D01*
X210791170Y-150402736D01*
X210791170Y-150402734D01*
X210791172Y-150402733D01*
X210810812Y-150355315D01*
X210825500Y-150319855D01*
X210825500Y-150230145D01*
X210825500Y-150224500D01*
X210828050Y-150215814D01*
X210826762Y-150206853D01*
X210837740Y-150182812D01*
X210845185Y-150157461D01*
X210852025Y-150151533D01*
X210855787Y-150143297D01*
X210878021Y-150129007D01*
X210897989Y-150111706D01*
X210908503Y-150109418D01*
X210914565Y-150105523D01*
X210949500Y-150100500D01*
X211050500Y-150100500D01*
X211117539Y-150120185D01*
X211163294Y-150172989D01*
X211174500Y-150224500D01*
X211174500Y-150319856D01*
X211190561Y-150358629D01*
X211200000Y-150406082D01*
X211200000Y-150651000D01*
X211180315Y-150718039D01*
X211127511Y-150763794D01*
X211076000Y-150775000D01*
X210800000Y-150775000D01*
X210800000Y-151151000D01*
X210780315Y-151218039D01*
X210727511Y-151263794D01*
X210676000Y-151275000D01*
X209424000Y-151275000D01*
X209356961Y-151255315D01*
X209311206Y-151202511D01*
X209300000Y-151151000D01*
X209300000Y-150975000D01*
X208700000Y-150375000D01*
X205599500Y-150375000D01*
X205532461Y-150355315D01*
X205486706Y-150302511D01*
X205475500Y-150251000D01*
X205475500Y-150220201D01*
X205475500Y-150220200D01*
X205433557Y-150118942D01*
X205356058Y-150041443D01*
X205254800Y-149999500D01*
X205145200Y-149999500D01*
X205145199Y-149999500D01*
X205043940Y-150041444D01*
X204966444Y-150118940D01*
X204924500Y-150220199D01*
X204924500Y-150251000D01*
X204904815Y-150318039D01*
X204852011Y-150363794D01*
X204800500Y-150375000D01*
X203724000Y-150375000D01*
X203656961Y-150355315D01*
X203611206Y-150302511D01*
X203600000Y-150251000D01*
X203600000Y-148499000D01*
X203619685Y-148431961D01*
X203672489Y-148386206D01*
X203724000Y-148375000D01*
X208900443Y-148375000D01*
X208967482Y-148394685D01*
G37*
%TD.AperFunction*%
%TD*%
M02*
